<svg width="537" height="634" viewBox="0 0 537 634" fill="none" xmlns="http://www.w3.org/2000/svg">
<path d="M504.851 178.691L353.588 178.691C350.713 178.691 347.955 177.505 345.922 175.394C343.889 173.283 342.747 170.419 342.747 167.434V53.0851C342.747 50.1009 343.889 47.239 345.921 45.1288C347.953 43.0187 350.709 41.8333 353.583 41.8333L504.856 41.8333C507.73 41.8333 510.486 43.0187 512.518 45.1288C514.55 47.239 515.691 50.1009 515.691 53.0851V167.434C515.691 170.419 514.549 173.283 512.516 175.394C510.483 177.505 507.726 178.691 504.851 178.691Z" fill="#D8CDE4"/>
<path d="M342.294 167.433V53.0844C342.294 49.9755 343.483 46.9939 345.6 44.7955C347.717 42.5972 350.588 41.3622 353.582 41.3622H504.856C507.85 41.3622 510.721 42.5972 512.838 44.7955C514.955 46.9939 516.144 49.9755 516.144 53.0844V167.433C516.144 168.973 515.852 170.498 515.284 171.921C514.717 173.344 513.885 174.637 512.836 175.726C511.788 176.815 510.543 177.679 509.173 178.268C507.802 178.857 506.334 179.161 504.851 179.161H353.587C352.104 179.161 350.636 178.857 349.266 178.268C347.895 177.679 346.65 176.815 345.602 175.726C344.553 174.637 343.721 173.344 343.154 171.921C342.586 170.498 342.294 168.973 342.294 167.433ZM353.582 42.3028C350.829 42.3036 348.189 43.4399 346.243 45.4617C344.296 47.4836 343.203 50.2255 343.203 53.0844V167.433C343.203 170.294 344.297 173.038 346.245 175.061C348.193 177.083 350.835 178.22 353.59 178.22H504.851C507.606 178.22 510.248 177.083 512.196 175.061C514.144 173.038 515.238 170.294 515.238 167.433V53.0844C515.238 50.2249 514.144 47.4826 512.197 45.4607C510.25 43.4388 507.609 42.3028 504.856 42.3028H353.582Z" fill="#292A2E"/>
<path d="M342.748 53.0829V62.6107H515.69V53.0829C515.69 50.0987 514.549 47.2367 512.517 45.1266C510.484 43.0165 507.728 41.831 504.855 41.831H353.583C352.16 41.831 350.751 42.1221 349.436 42.6875C348.122 43.253 346.927 44.0818 345.921 45.1267C344.915 46.1715 344.117 47.4119 343.573 48.777C343.028 50.1422 342.748 51.6053 342.748 53.0829Z" fill="#292A2E"/>
<path d="M401.81 78.012H393.649C393.553 78.012 393.461 77.9724 393.393 77.9018C393.325 77.8312 393.287 77.7355 393.287 77.6357C393.287 77.5359 393.325 77.4402 393.393 77.3697C393.461 77.2991 393.553 77.2595 393.649 77.2595H401.81C401.906 77.2595 401.998 77.2991 402.066 77.3697C402.134 77.4402 402.172 77.5359 402.172 77.6357C402.172 77.7355 402.134 77.8312 402.066 77.9018C401.998 77.9724 401.906 78.012 401.81 78.012Z" fill="#292A2E"/>
<path d="M387.765 78.012H384.677C384.581 78.012 384.489 77.9724 384.421 77.9018C384.353 77.8312 384.314 77.7355 384.314 77.6357C384.314 77.5359 384.353 77.4402 384.421 77.3697C384.489 77.2991 384.581 77.2595 384.677 77.2595H387.765C387.861 77.2595 387.953 77.2991 388.021 77.3697C388.089 77.4402 388.127 77.5359 388.127 77.6357C388.127 77.7355 388.089 77.8312 388.021 77.9018C387.953 77.9724 387.861 78.012 387.765 78.012Z" fill="#C69BBB"/>
<path d="M387.765 84.7998H384.677C384.581 84.7998 384.489 84.7602 384.421 84.6896C384.353 84.6191 384.314 84.5234 384.314 84.4236C384.314 84.3238 384.353 84.2281 384.421 84.1575C384.489 84.0869 384.581 84.0473 384.677 84.0473H387.765C387.861 84.0473 387.953 84.0869 388.021 84.1575C388.089 84.2281 388.127 84.3238 388.127 84.4236C388.127 84.5234 388.089 84.6191 388.021 84.6896C387.953 84.7602 387.861 84.7998 387.765 84.7998Z" fill="#C69BBB"/>
<path d="M387.765 91.5877H384.677C384.581 91.5877 384.489 91.548 384.421 91.4775C384.353 91.4069 384.314 91.3112 384.314 91.2114C384.314 91.1116 384.353 91.0159 384.421 90.9453C384.489 90.8748 384.581 90.8351 384.677 90.8351H387.765C387.861 90.8351 387.953 90.8748 388.021 90.9453C388.089 91.0159 388.127 91.1116 388.127 91.2114C388.127 91.3112 388.089 91.4069 388.021 91.4775C387.953 91.548 387.861 91.5877 387.765 91.5877Z" fill="#C69BBB"/>
<path d="M387.765 98.3755H384.677C384.581 98.3755 384.489 98.3359 384.421 98.2653C384.353 98.1948 384.314 98.099 384.314 97.9993C384.314 97.8995 384.353 97.8038 384.421 97.7332C384.489 97.6626 384.581 97.623 384.677 97.623H387.765C387.861 97.623 387.953 97.6626 388.021 97.7332C388.089 97.8038 388.127 97.8995 388.127 97.9993C388.127 98.099 388.089 98.1948 388.021 98.2653C387.953 98.3359 387.861 98.3755 387.765 98.3755Z" fill="#C69BBB"/>
<path d="M387.765 105.163H384.677C384.581 105.163 384.489 105.124 384.421 105.053C384.353 104.983 384.314 104.887 384.314 104.787C384.314 104.687 384.353 104.592 384.421 104.521C384.489 104.45 384.581 104.411 384.677 104.411H387.765C387.861 104.411 387.953 104.45 388.021 104.521C388.089 104.592 388.127 104.687 388.127 104.787C388.127 104.887 388.089 104.983 388.021 105.053C387.953 105.124 387.861 105.163 387.765 105.163Z" fill="#C69BBB"/>
<path d="M387.765 111.951H384.677C384.581 111.951 384.489 111.912 384.421 111.841C384.353 111.77 384.314 111.675 384.314 111.575C384.314 111.475 384.353 111.379 384.421 111.309C384.489 111.238 384.581 111.199 384.677 111.199H387.765C387.861 111.199 387.953 111.238 388.021 111.309C388.089 111.379 388.127 111.475 388.127 111.575C388.127 111.675 388.089 111.77 388.021 111.841C387.953 111.912 387.861 111.951 387.765 111.951Z" fill="#C69BBB"/>
<path d="M387.765 118.739H384.677C384.581 118.739 384.489 118.699 384.421 118.629C384.353 118.558 384.314 118.463 384.314 118.363C384.314 118.263 384.353 118.167 384.421 118.097C384.489 118.026 384.581 117.986 384.677 117.986H387.765C387.861 117.986 387.953 118.026 388.021 118.097C388.089 118.167 388.127 118.263 388.127 118.363C388.127 118.463 388.089 118.558 388.021 118.629C387.953 118.699 387.861 118.739 387.765 118.739Z" fill="#C69BBB"/>
<path d="M387.765 125.527H384.677C384.581 125.527 384.489 125.487 384.421 125.417C384.353 125.346 384.314 125.25 384.314 125.151C384.314 125.051 384.353 124.955 384.421 124.885C384.489 124.814 384.581 124.774 384.677 124.774H387.765C387.861 124.774 387.953 124.814 388.021 124.885C388.089 124.955 388.127 125.051 388.127 125.151C388.127 125.25 388.089 125.346 388.021 125.417C387.953 125.487 387.861 125.527 387.765 125.527Z" fill="#C69BBB"/>
<path d="M387.765 132.315H384.677C384.581 132.315 384.489 132.275 384.421 132.205C384.353 132.134 384.314 132.038 384.314 131.938C384.314 131.839 384.353 131.743 384.421 131.672C384.489 131.602 384.581 131.562 384.677 131.562H387.765C387.861 131.562 387.953 131.602 388.021 131.672C388.089 131.743 388.127 131.839 388.127 131.938C388.127 132.038 388.089 132.134 388.021 132.205C387.953 132.275 387.861 132.315 387.765 132.315Z" fill="#C69BBB"/>
<path d="M387.765 139.103H384.677C384.581 139.103 384.489 139.063 384.421 138.992C384.353 138.922 384.314 138.826 384.314 138.726C384.314 138.626 384.353 138.531 384.421 138.46C384.489 138.39 384.581 138.35 384.677 138.35H387.765C387.861 138.35 387.953 138.39 388.021 138.46C388.089 138.531 388.127 138.626 388.127 138.726C388.127 138.826 388.089 138.922 388.021 138.992C387.953 139.063 387.861 139.103 387.765 139.103Z" fill="#C69BBB"/>
<path d="M387.765 145.89H384.677C384.581 145.89 384.489 145.851 384.421 145.78C384.353 145.71 384.314 145.614 384.314 145.514C384.314 145.414 384.353 145.319 384.421 145.248C384.489 145.177 384.581 145.138 384.677 145.138H387.765C387.861 145.138 387.953 145.177 388.021 145.248C388.089 145.319 388.127 145.414 388.127 145.514C388.127 145.614 388.089 145.71 388.021 145.78C387.953 145.851 387.861 145.89 387.765 145.89Z" fill="#C69BBB"/>
<path d="M387.765 152.678H384.677C384.581 152.678 384.489 152.639 384.421 152.568C384.353 152.497 384.314 152.402 384.314 152.302C384.314 152.202 384.353 152.106 384.421 152.036C384.489 151.965 384.581 151.926 384.677 151.926H387.765C387.861 151.926 387.953 151.965 388.021 152.036C388.089 152.106 388.127 152.202 388.127 152.302C388.127 152.402 388.089 152.497 388.021 152.568C387.953 152.639 387.861 152.678 387.765 152.678Z" fill="#C69BBB"/>
<path d="M387.765 159.466H384.677C384.581 159.466 384.489 159.426 384.421 159.356C384.353 159.285 384.314 159.19 384.314 159.09C384.314 158.99 384.353 158.894 384.421 158.824C384.489 158.753 384.581 158.714 384.677 158.714H387.765C387.861 158.714 387.953 158.753 388.021 158.824C388.089 158.894 388.127 158.99 388.127 159.09C388.127 159.19 388.089 159.285 388.021 159.356C387.953 159.426 387.861 159.466 387.765 159.466Z" fill="#C69BBB"/>
<path d="M387.765 166.255H384.677C384.581 166.255 384.489 166.215 384.421 166.144C384.353 166.074 384.314 165.978 384.314 165.878C384.314 165.779 384.353 165.683 384.421 165.612C384.489 165.542 384.581 165.502 384.677 165.502H387.765C387.861 165.502 387.953 165.542 388.021 165.612C388.089 165.683 388.127 165.779 388.127 165.878C388.127 165.978 388.089 166.074 388.021 166.144C387.953 166.215 387.861 166.255 387.765 166.255Z" fill="#C69BBB"/>
<path d="M408.332 84.7998H400.897C400.8 84.7998 400.708 84.7602 400.64 84.6896C400.572 84.6191 400.534 84.5234 400.534 84.4236C400.534 84.3238 400.572 84.2281 400.64 84.1575C400.708 84.0869 400.8 84.0473 400.897 84.0473H408.332C408.429 84.0473 408.521 84.0869 408.589 84.1575C408.657 84.2281 408.695 84.3238 408.695 84.4236C408.695 84.5234 408.657 84.6191 408.589 84.6896C408.521 84.7602 408.429 84.7998 408.332 84.7998Z" fill="#292A2E"/>
<path d="M401.81 125.527H393.649C393.553 125.527 393.461 125.487 393.393 125.417C393.325 125.346 393.287 125.25 393.287 125.151C393.287 125.051 393.325 124.955 393.393 124.885C393.461 124.814 393.553 124.774 393.649 124.774H401.81C401.906 124.774 401.998 124.814 402.066 124.885C402.134 124.955 402.172 125.051 402.172 125.151C402.172 125.25 402.134 125.346 402.066 125.417C401.998 125.487 401.906 125.527 401.81 125.527Z" fill="#292A2E"/>
<path d="M408.332 132.315H400.897C400.8 132.315 400.708 132.275 400.64 132.205C400.572 132.134 400.534 132.038 400.534 131.938C400.534 131.839 400.572 131.743 400.64 131.672C400.708 131.602 400.8 131.562 400.897 131.562H408.332C408.429 131.562 408.521 131.602 408.589 131.672C408.657 131.743 408.695 131.839 408.695 131.938C408.695 132.038 408.657 132.134 408.589 132.205C408.521 132.275 408.429 132.315 408.332 132.315Z" fill="#292A2E"/>
<path d="M450.364 91.5877H405.969C405.873 91.5877 405.781 91.548 405.713 91.4775C405.645 91.4069 405.606 91.3112 405.606 91.2114C405.606 91.1116 405.645 91.0159 405.713 90.9453C405.781 90.8748 405.873 90.8351 405.969 90.8351H450.364C450.46 90.8351 450.552 90.8748 450.62 90.9453C450.688 91.0159 450.726 91.1116 450.726 91.2114C450.726 91.3112 450.688 91.4069 450.62 91.4775C450.552 91.548 450.46 91.5877 450.364 91.5877Z" fill="#292A2E"/>
<path d="M489.56 91.5877H458.21C458.114 91.5877 458.022 91.548 457.954 91.4775C457.886 91.4069 457.848 91.3112 457.848 91.2114C457.848 91.1116 457.886 91.0159 457.954 90.9453C458.022 90.8748 458.114 90.8351 458.21 90.8351H489.56C489.656 90.8351 489.748 90.8748 489.816 90.9453C489.884 91.0159 489.922 91.1116 489.922 91.2114C489.922 91.3112 489.884 91.4069 489.816 91.4775C489.748 91.548 489.656 91.5877 489.56 91.5877Z" fill="#7E1D66"/>
<path d="M506.384 91.5877H496.774C496.678 91.5877 496.586 91.548 496.518 91.4775C496.45 91.4069 496.412 91.3112 496.412 91.2114C496.412 91.1116 496.45 91.0159 496.518 90.9453C496.586 90.8748 496.678 90.8351 496.774 90.8351H506.384C506.48 90.8351 506.572 90.8748 506.64 90.9453C506.708 91.0159 506.746 91.1116 506.746 91.2114C506.746 91.3112 506.708 91.4069 506.64 91.4775C506.572 91.548 506.48 91.5877 506.384 91.5877Z" fill="#292A2E"/>
<path d="M472.104 105.163H405.969C405.873 105.163 405.781 105.124 405.713 105.053C405.645 104.983 405.606 104.887 405.606 104.787C405.606 104.687 405.645 104.592 405.713 104.521C405.781 104.45 405.873 104.411 405.969 104.411H472.104C472.2 104.411 472.292 104.45 472.36 104.521C472.428 104.592 472.466 104.687 472.466 104.787C472.466 104.887 472.428 104.983 472.36 105.053C472.292 105.124 472.2 105.163 472.104 105.163Z" fill="#292A2E"/>
<path d="M489.56 105.163H479.95C479.854 105.163 479.762 105.124 479.694 105.053C479.626 104.983 479.588 104.887 479.588 104.787C479.588 104.687 479.626 104.592 479.694 104.521C479.762 104.45 479.854 104.411 479.95 104.411H489.56C489.656 104.411 489.748 104.45 489.816 104.521C489.884 104.592 489.922 104.687 489.922 104.787C489.922 104.887 489.884 104.983 489.816 105.053C489.748 105.124 489.656 105.163 489.56 105.163Z" fill="#C69BBB"/>
<path d="M414.129 98.3755H405.969C405.873 98.3755 405.781 98.3359 405.713 98.2653C405.645 98.1948 405.606 98.099 405.606 97.9993C405.606 97.8995 405.645 97.8038 405.713 97.7332C405.781 97.6626 405.873 97.623 405.969 97.623H414.129C414.226 97.623 414.318 97.6626 414.386 97.7332C414.454 97.8038 414.492 97.8995 414.492 97.9993C414.492 98.099 414.454 98.1948 414.386 98.2653C414.318 98.3359 414.226 98.3755 414.129 98.3755Z" fill="#7E1D66"/>
<path d="M467.819 98.3755H421.976C421.88 98.3755 421.787 98.3359 421.719 98.2653C421.651 98.1948 421.613 98.099 421.613 97.9993C421.613 97.8995 421.651 97.8038 421.719 97.7332C421.787 97.6626 421.88 97.623 421.976 97.623H467.819C467.915 97.623 468.007 97.6626 468.075 97.7332C468.143 97.8038 468.181 97.8995 468.181 97.9993C468.181 98.099 468.143 98.1948 468.075 98.2653C468.007 98.3359 467.915 98.3755 467.819 98.3755Z" fill="#C69BBB"/>
<path d="M506.447 98.3755H476.544C476.448 98.3755 476.356 98.3359 476.288 98.2653C476.22 98.1948 476.182 98.099 476.182 97.9993C476.182 97.8995 476.22 97.8038 476.288 97.7332C476.356 97.6626 476.448 97.623 476.544 97.623H506.445C506.541 97.623 506.633 97.6626 506.701 97.7332C506.769 97.8038 506.807 97.8995 506.807 97.9993C506.807 98.099 506.769 98.1948 506.701 98.2653C506.633 98.3359 506.541 98.3755 506.445 98.3755H506.447Z" fill="#292A2E"/>
<path d="M450.364 111.951H405.969C405.873 111.951 405.781 111.912 405.713 111.841C405.645 111.77 405.606 111.675 405.606 111.575C405.606 111.475 405.645 111.379 405.713 111.309C405.781 111.238 405.873 111.199 405.969 111.199H450.364C450.46 111.199 450.552 111.238 450.62 111.309C450.688 111.379 450.726 111.475 450.726 111.575C450.726 111.675 450.688 111.77 450.62 111.841C450.552 111.912 450.46 111.951 450.364 111.951Z" fill="#292A2E"/>
<path d="M475.066 111.951H458.21C458.114 111.951 458.022 111.912 457.954 111.841C457.886 111.77 457.848 111.675 457.848 111.575C457.848 111.475 457.886 111.379 457.954 111.309C458.022 111.238 458.114 111.199 458.21 111.199H475.066C475.162 111.199 475.254 111.238 475.322 111.309C475.39 111.379 475.428 111.475 475.428 111.575C475.428 111.675 475.39 111.77 475.322 111.841C475.254 111.912 475.162 111.951 475.066 111.951Z" fill="#7E1D66"/>
<path d="M506.384 111.951H482.281C482.185 111.951 482.093 111.912 482.025 111.841C481.957 111.77 481.919 111.675 481.919 111.575C481.919 111.475 481.957 111.379 482.025 111.309C482.093 111.238 482.185 111.199 482.281 111.199H506.384C506.48 111.199 506.573 111.238 506.641 111.309C506.708 111.379 506.747 111.475 506.747 111.575C506.747 111.675 506.708 111.77 506.641 111.841C506.573 111.912 506.48 111.951 506.384 111.951Z" fill="#292A2E"/>
<path d="M414.129 118.739H405.969C405.873 118.739 405.781 118.699 405.713 118.629C405.645 118.558 405.606 118.463 405.606 118.363C405.606 118.263 405.645 118.167 405.713 118.097C405.781 118.026 405.873 117.987 405.969 117.987H414.129C414.226 117.987 414.318 118.026 414.386 118.097C414.454 118.167 414.492 118.263 414.492 118.363C414.492 118.463 414.454 118.558 414.386 118.629C414.318 118.699 414.226 118.739 414.129 118.739Z" fill="#C69BBB"/>
<path d="M467.819 118.739H421.976C421.88 118.739 421.787 118.699 421.719 118.629C421.651 118.558 421.613 118.463 421.613 118.363C421.613 118.263 421.651 118.167 421.719 118.097C421.787 118.026 421.88 117.987 421.976 117.987H467.819C467.915 117.987 468.007 118.026 468.075 118.097C468.143 118.167 468.181 118.263 468.181 118.363C468.181 118.463 468.143 118.558 468.075 118.629C468.007 118.699 467.915 118.739 467.819 118.739Z" fill="#7E1D66"/>
<path d="M448.914 145.89H404.52C404.423 145.89 404.331 145.851 404.263 145.78C404.195 145.71 404.157 145.614 404.157 145.514C404.157 145.414 404.195 145.319 404.263 145.248C404.331 145.178 404.423 145.138 404.52 145.138H448.914C449.01 145.138 449.103 145.178 449.171 145.248C449.239 145.319 449.277 145.414 449.277 145.514C449.277 145.614 449.239 145.71 449.171 145.78C449.103 145.851 449.01 145.89 448.914 145.89Z" fill="#292A2E"/>
<path d="M488.111 145.89H456.761C456.665 145.89 456.573 145.851 456.505 145.78C456.437 145.71 456.398 145.614 456.398 145.514C456.398 145.414 456.437 145.319 456.505 145.248C456.573 145.178 456.665 145.138 456.761 145.138H488.111C488.207 145.138 488.299 145.178 488.367 145.248C488.435 145.319 488.473 145.414 488.473 145.514C488.473 145.614 488.435 145.71 488.367 145.78C488.299 145.851 488.207 145.89 488.111 145.89Z" fill="#C69BBB"/>
<path d="M427.174 139.103H404.52C404.423 139.103 404.331 139.063 404.263 138.992C404.195 138.922 404.157 138.826 404.157 138.726C404.157 138.626 404.195 138.531 404.263 138.46C404.331 138.39 404.423 138.35 404.52 138.35H427.174C427.27 138.35 427.362 138.39 427.43 138.46C427.498 138.531 427.536 138.626 427.536 138.726C427.536 138.826 427.498 138.922 427.43 138.992C427.362 139.063 427.27 139.103 427.174 139.103Z" fill="#7E1D66"/>
<path d="M466.369 139.103H435.02C434.923 139.103 434.831 139.063 434.763 138.992C434.695 138.922 434.657 138.826 434.657 138.726C434.657 138.626 434.695 138.531 434.763 138.46C434.831 138.39 434.923 138.35 435.02 138.35H466.369C466.465 138.35 466.558 138.39 466.626 138.46C466.694 138.531 466.732 138.626 466.732 138.726C466.732 138.826 466.694 138.922 466.626 138.992C466.558 139.063 466.465 139.103 466.369 139.103Z" fill="#C69BBB"/>
<path d="M504.997 139.103H475.095C474.999 139.103 474.906 139.063 474.839 138.992C474.771 138.922 474.732 138.826 474.732 138.726C474.732 138.626 474.771 138.531 474.839 138.46C474.906 138.39 474.999 138.35 475.095 138.35H504.996C505.092 138.35 505.184 138.39 505.252 138.46C505.32 138.531 505.358 138.626 505.358 138.726C505.358 138.826 505.32 138.922 505.252 138.992C505.184 139.063 505.092 139.103 504.996 139.103H504.997Z" fill="#292A2E"/>
<path d="M470.655 159.467H404.52C404.423 159.467 404.331 159.427 404.263 159.357C404.195 159.286 404.157 159.19 404.157 159.091C404.157 158.991 404.195 158.895 404.263 158.825C404.331 158.754 404.423 158.714 404.52 158.714H470.655C470.751 158.714 470.843 158.754 470.911 158.825C470.979 158.895 471.017 158.991 471.017 159.091C471.017 159.19 470.979 159.286 470.911 159.357C470.843 159.427 470.751 159.467 470.655 159.467Z" fill="#C69BBB"/>
<path d="M488.11 159.467H478.501C478.405 159.467 478.313 159.427 478.245 159.357C478.177 159.286 478.139 159.19 478.139 159.091C478.139 158.991 478.177 158.895 478.245 158.825C478.313 158.754 478.405 158.714 478.501 158.714H488.11C488.206 158.714 488.299 158.754 488.367 158.825C488.435 158.895 488.473 158.991 488.473 159.091C488.473 159.19 488.435 159.286 488.367 159.357C488.299 159.427 488.206 159.467 488.11 159.467Z" fill="#292A2E"/>
<path d="M412.68 152.679H404.52C404.423 152.679 404.331 152.639 404.263 152.569C404.195 152.498 404.157 152.403 404.157 152.303C404.157 152.203 404.195 152.107 404.263 152.037C404.331 151.966 404.423 151.926 404.52 151.926H412.68C412.776 151.926 412.868 151.966 412.936 152.037C413.004 152.107 413.043 152.203 413.043 152.303C413.043 152.403 413.004 152.498 412.936 152.569C412.868 152.639 412.776 152.679 412.68 152.679Z" fill="#C69BBB"/>
<path d="M466.37 152.679H420.526C420.43 152.679 420.338 152.639 420.27 152.569C420.202 152.498 420.164 152.403 420.164 152.303C420.164 152.203 420.202 152.107 420.27 152.037C420.338 151.966 420.43 151.926 420.526 151.926H466.37C466.466 151.926 466.558 151.966 466.626 152.037C466.694 152.107 466.732 152.203 466.732 152.303C466.732 152.403 466.694 152.498 466.626 152.569C466.558 152.639 466.466 152.679 466.37 152.679Z" fill="#292A2E"/>
<path d="M504.997 152.679H475.095C474.999 152.679 474.906 152.639 474.839 152.569C474.771 152.498 474.732 152.403 474.732 152.303C474.732 152.203 474.771 152.107 474.839 152.037C474.906 151.966 474.999 151.926 475.095 151.926H504.996C505.092 151.926 505.184 151.966 505.252 152.037C505.32 152.107 505.358 152.203 505.358 152.303C505.358 152.403 505.32 152.498 505.252 152.569C505.184 152.639 505.092 152.679 504.996 152.679H504.997Z" fill="#7E1D66"/>
<path d="M448.914 166.255H404.52C404.423 166.255 404.331 166.215 404.263 166.144C404.195 166.074 404.157 165.978 404.157 165.878C404.157 165.779 404.195 165.683 404.263 165.612C404.331 165.542 404.423 165.502 404.52 165.502H448.914C449.01 165.502 449.103 165.542 449.171 165.612C449.239 165.683 449.277 165.779 449.277 165.878C449.277 165.978 449.239 166.074 449.171 166.144C449.103 166.215 449.01 166.255 448.914 166.255Z" fill="#7E1D66"/>
<path d="M473.617 166.255H456.761C456.665 166.255 456.573 166.215 456.505 166.144C456.437 166.074 456.398 165.978 456.398 165.878C456.398 165.779 456.437 165.683 456.505 165.612C456.573 165.542 456.665 165.502 456.761 165.502H473.617C473.713 165.502 473.805 165.542 473.873 165.612C473.941 165.683 473.979 165.779 473.979 165.878C473.979 165.978 473.941 166.074 473.873 166.144C473.805 166.215 473.713 166.255 473.617 166.255Z" fill="#292A2E"/>
<path d="M504.935 166.255H480.832C480.736 166.255 480.644 166.215 480.576 166.144C480.508 166.074 480.47 165.978 480.47 165.878C480.47 165.779 480.508 165.683 480.576 165.612C480.644 165.542 480.736 165.502 480.832 165.502H504.935C505.031 165.502 505.123 165.542 505.191 165.612C505.259 165.683 505.297 165.779 505.297 165.878C505.297 165.978 505.259 166.074 505.191 166.144C505.123 166.215 505.031 166.255 504.935 166.255Z" fill="#C69BBB"/>
<path d="M381.234 173.518C381.138 173.518 381.046 173.478 380.978 173.408C380.91 173.337 380.872 173.242 380.872 173.142V66.1626C380.872 66.0629 380.91 65.9671 380.978 65.8966C381.046 65.826 381.138 65.7864 381.234 65.7864C381.331 65.7864 381.423 65.826 381.491 65.8966C381.559 65.9671 381.597 66.0629 381.597 66.1626V173.142C381.597 173.242 381.559 173.337 381.491 173.408C381.423 173.478 381.331 173.518 381.234 173.518Z" fill="#292A2E"/>
<path d="M502.588 59.0113C505.799 59.0113 508.401 56.3085 508.401 52.9745C508.401 49.6405 505.799 46.9377 502.588 46.9377C499.377 46.9377 496.774 49.6405 496.774 52.9745C496.774 56.3085 499.377 59.0113 502.588 59.0113Z" fill="#D8CDE4"/>
<path d="M364.662 70.8629H348.971C348.875 70.8629 348.782 70.8233 348.715 70.7527C348.647 70.6822 348.608 70.5865 348.608 70.4867C348.608 70.3869 348.647 70.2912 348.715 70.2206C348.782 70.1501 348.875 70.1104 348.971 70.1104H364.662C364.758 70.1104 364.85 70.1501 364.918 70.2206C364.986 70.2912 365.024 70.3869 365.024 70.4867C365.024 70.5865 364.986 70.6822 364.918 70.7527C364.85 70.8233 364.758 70.8629 364.662 70.8629Z" fill="#292A2E"/>
<path d="M359.935 78.2844H348.971C348.875 78.2844 348.782 78.2448 348.715 78.1742C348.647 78.1037 348.608 78.0079 348.608 77.9082C348.608 77.8084 348.647 77.7127 348.715 77.6421C348.782 77.5715 348.875 77.5319 348.971 77.5319H359.935C360.031 77.5319 360.123 77.5715 360.191 77.6421C360.259 77.7127 360.297 77.8084 360.297 77.9082C360.297 78.0079 360.259 78.1037 360.191 78.1742C360.123 78.2448 360.031 78.2844 359.935 78.2844Z" fill="#292A2E"/>
<path d="M369.576 85.7059H348.971C348.875 85.7059 348.782 85.6663 348.715 85.5957C348.647 85.5251 348.608 85.4294 348.608 85.3296C348.608 85.2298 348.647 85.1341 348.715 85.0636C348.782 84.993 348.875 84.9534 348.971 84.9534H369.576C369.673 84.9534 369.765 84.993 369.833 85.0636C369.901 85.1341 369.939 85.2298 369.939 85.3296C369.939 85.4294 369.901 85.5251 369.833 85.5957C369.765 85.6663 369.673 85.7059 369.576 85.7059Z" fill="#292A2E"/>
<path d="M373.422 93.1273H356.218C356.122 93.1273 356.03 93.0877 355.962 93.0171C355.894 92.9466 355.855 92.8509 355.855 92.7511C355.855 92.6513 355.894 92.5556 355.962 92.485C356.03 92.4145 356.122 92.3748 356.218 92.3748H373.422C373.518 92.3748 373.61 92.4145 373.678 92.485C373.746 92.5556 373.784 92.6513 373.784 92.7511C373.784 92.8509 373.746 92.9466 373.678 93.0171C373.61 93.0877 373.518 93.1273 373.422 93.1273Z" fill="#292A2E"/>
<path d="M365.102 100.55H356.218C356.122 100.55 356.03 100.51 355.962 100.439C355.894 100.369 355.855 100.273 355.855 100.173C355.855 100.074 355.894 99.9778 355.962 99.9073C356.03 99.8367 356.122 99.7971 356.218 99.7971H365.102C365.199 99.7971 365.291 99.8367 365.359 99.9073C365.427 99.9778 365.465 100.074 365.465 100.173C365.465 100.273 365.427 100.369 365.359 100.439C365.291 100.51 365.199 100.55 365.102 100.55Z" fill="#292A2E"/>
<path d="M371.909 107.971H356.218C356.122 107.971 356.03 107.931 355.962 107.861C355.894 107.79 355.855 107.695 355.855 107.595C355.855 107.495 355.894 107.399 355.962 107.329C356.03 107.258 356.122 107.219 356.218 107.219H371.909C372.005 107.219 372.097 107.258 372.165 107.329C372.233 107.399 372.271 107.495 372.271 107.595C372.271 107.695 372.233 107.79 372.165 107.861C372.097 107.931 372.005 107.971 371.909 107.971Z" fill="#292A2E"/>
<path d="M361.069 115.393H348.971C348.875 115.393 348.782 115.353 348.715 115.282C348.647 115.212 348.608 115.116 348.608 115.016C348.608 114.916 348.647 114.821 348.715 114.75C348.782 114.68 348.875 114.64 348.971 114.64H361.069C361.165 114.64 361.258 114.68 361.326 114.75C361.394 114.821 361.432 114.916 361.432 115.016C361.432 115.116 361.394 115.212 361.326 115.282C361.258 115.353 361.165 115.393 361.069 115.393Z" fill="#292A2E"/>
<path d="M356.91 122.813H348.971C348.875 122.813 348.782 122.774 348.715 122.703C348.647 122.632 348.608 122.537 348.608 122.437C348.608 122.337 348.647 122.241 348.715 122.171C348.782 122.1 348.875 122.061 348.971 122.061H356.91C357.006 122.061 357.099 122.1 357.167 122.171C357.235 122.241 357.273 122.337 357.273 122.437C357.273 122.537 357.235 122.632 357.167 122.703C357.099 122.774 357.006 122.813 356.91 122.813Z" fill="#292A2E"/>
<path d="M387.272 69.2706V69.4061L391.801 71.1519C391.865 71.1793 391.921 71.2262 391.96 71.2866C391.998 71.347 392.019 71.418 392.018 71.4906V71.6185C392.019 71.675 392.007 71.7309 391.981 71.781C391.956 71.831 391.919 71.8735 391.873 71.9045C391.827 71.9381 391.774 71.9592 391.718 71.9657C391.662 71.9723 391.606 71.9642 391.554 71.9421L386.438 69.8651C386.374 69.8386 386.32 69.793 386.281 69.734C386.242 69.675 386.221 69.6054 386.221 69.534V69.1502C386.22 69.0786 386.241 69.0085 386.28 68.9493C386.318 68.8901 386.374 68.8447 386.438 68.8191L391.554 66.7346C391.596 66.7198 391.64 66.7122 391.684 66.712C391.751 66.7135 391.817 66.7343 391.873 66.7722C391.919 66.8048 391.956 66.8487 391.981 66.8999C392.007 66.9512 392.019 67.0081 392.018 67.0657V67.1936C392.02 67.2655 392 67.336 391.961 67.3954C391.922 67.4547 391.866 67.5 391.801 67.5247L387.272 69.2706Z" fill="#C69BBB"/>
<path d="M396.25 65.1994L393.54 73.8159C393.518 73.8878 393.474 73.9506 393.416 73.9952C393.357 74.0398 393.286 74.064 393.214 74.0642C393.161 74.0651 393.109 74.0525 393.062 74.0275C393.016 74.0026 392.975 73.9661 392.945 73.9213C392.913 73.8768 392.891 73.8251 392.881 73.7702C392.871 73.7154 392.874 73.6589 392.888 73.6052L395.598 64.9962C395.621 64.9229 395.665 64.8589 395.725 64.8131C395.785 64.7672 395.857 64.7418 395.931 64.7404C395.984 64.7402 396.035 64.753 396.082 64.7779C396.129 64.8028 396.169 64.839 396.199 64.8833C396.232 64.9278 396.253 64.9798 396.262 65.0349C396.271 65.0899 396.267 65.1464 396.25 65.1994Z" fill="#C69BBB"/>
<path d="M402.905 69.1502V69.534C402.906 69.6047 402.887 69.6741 402.849 69.7332C402.812 69.7922 402.758 69.8382 402.695 69.8651L397.571 71.9421C397.521 71.964 397.465 71.972 397.411 71.9654C397.356 71.9588 397.304 71.9378 397.26 71.9045C397.213 71.8738 397.175 71.8316 397.148 71.7817C397.122 71.7317 397.108 71.6756 397.108 71.6185V71.4906C397.107 71.417 397.128 71.345 397.168 71.2844C397.209 71.2239 397.266 71.1776 397.332 71.1519L401.861 69.4061V69.2706L397.332 67.5247C397.266 67.5017 397.208 67.4572 397.167 67.3976C397.127 67.338 397.106 67.2665 397.108 67.1936V67.0657C397.108 67.0076 397.122 66.9504 397.148 66.8992C397.175 66.848 397.213 66.8044 397.26 66.7722C397.316 66.7344 397.381 66.7136 397.448 66.712C397.49 66.7115 397.532 66.7192 397.571 66.7346L402.695 68.8191C402.758 68.8452 402.813 68.891 402.85 68.9502C402.888 69.0094 402.907 69.0793 402.905 69.1502Z" fill="#C69BBB"/>
<path d="M300.447 0H45.1953V265.061H300.447V0Z" fill="#F4F4F4"/>
<path d="M45.1951 0H42.2695V265.061H45.1951V0Z" fill="#F4F4F4"/>
<path opacity="0.05" d="M45.1951 0H42.2695V265.061H45.1951V0Z" fill="#292A2E"/>
<path opacity="0.05" d="M107.031 182.649V113.3H161.736V153.59H246.474V224.928H282.488V265.061H246.474H239.535H57.4746V182.649H107.031Z" fill="#292A2E"/>
<path opacity="0.34" d="M154.714 120.83H114.877V128.359H154.714V120.83Z" fill="#E2CDDD"/>
<path opacity="0.34" d="M154.714 136.433H114.877V143.962H154.714V136.433Z" fill="#E2CDDD"/>
<path opacity="0.34" d="M154.714 152.036H114.877V159.565H154.714V152.036Z" fill="#E2CDDD"/>
<path opacity="0.34" d="M71.8806 189.957H64.5381V197.487H71.8806V189.957Z" fill="#E2CDDD"/>
<path opacity="0.34" d="M71.8806 205.56H64.5381V213.09H71.8806V205.56Z" fill="#E2CDDD"/>
<path opacity="0.34" d="M71.8806 221.164H64.5381V228.694H71.8806V221.164Z" fill="#E2CDDD"/>
<path opacity="0.34" d="M85.4636 189.957H78.1211V197.487H85.4636V189.957Z" fill="#E2CDDD"/>
<path opacity="0.34" d="M85.4636 205.56H78.1211V213.09H85.4636V205.56Z" fill="#E2CDDD"/>
<path opacity="0.34" d="M85.4636 221.164H78.1211V228.694H85.4636V221.164Z" fill="#E2CDDD"/>
<path opacity="0.34" d="M98.6804 189.957H91.3379V197.487H98.6804V189.957Z" fill="#E2CDDD"/>
<path opacity="0.34" d="M98.6804 205.56H91.3379V213.09H98.6804V205.56Z" fill="#E2CDDD"/>
<path opacity="0.34" d="M98.6804 221.164H91.3379V228.694H98.6804V221.164Z" fill="#E2CDDD"/>
<path d="M45.1953 131.044H96.5565V0H100.804V131.044H239.535V0H243.783V131.044H300.447V135.454H243.783V265.061H239.535V135.454H100.804V265.061H96.5565V135.454H45.1953V131.044Z" fill="#D8CDE4"/>
<path d="M310.616 264.741H35.0273V273.556H310.616V264.741Z" fill="#F4F4F4"/>
<path opacity="0.1" d="M310.616 264.741H35.0273V273.556H310.616V264.741Z" fill="#292A2E"/>
<path opacity="0.1" d="M35.0271 264.741H31.0479V273.556H35.0271V264.741Z" fill="#292A2E"/>
<path opacity="0.1" d="M35.0271 264.741H31.0479V273.556H35.0271V264.741Z" fill="#292A2E"/>
<path d="M42.27 11.285L300.447 11.285V4.73117L42.27 4.73117V11.285Z" fill="#D8CDE4"/>
<path d="M42.27 23.5272L300.447 23.5272V16.9734L42.27 16.9734V23.5272Z" fill="#D8CDE4"/>
<path d="M42.27 35.7686L300.447 35.7686V29.2148L42.27 29.2148V35.7686Z" fill="#D8CDE4"/>
<path d="M42.27 48.01L300.447 48.01V41.4562L42.27 41.4562V48.01Z" fill="#D8CDE4"/>
<path d="M42.27 60.2507L300.447 60.2507V53.6969L42.27 53.6969V60.2507Z" fill="#D8CDE4"/>
<path d="M69.6905 67.6429H73.5596L73.5596 7.62939e-06H69.6905L69.6905 67.6429Z" fill="#D8CDE4"/>
<path d="M71.298 77.3573C74.2337 77.3573 76.6135 74.886 76.6135 71.8374C76.6135 68.7889 74.2337 66.3176 71.298 66.3176C68.3623 66.3176 65.9824 68.7889 65.9824 71.8374C65.9824 74.886 68.3623 77.3573 71.298 77.3573Z" fill="#D8CDE4"/>
<path d="M44.5239 633.494L43.1006 633.209L65.3455 403.663L66.7688 403.948L44.5239 633.494Z" fill="#494949"/>
<path d="M127.354 633.494L125.931 633.209L148.175 403.663L149.598 403.948L127.354 633.494Z" fill="#494949"/>
<path d="M310.443 633.494L311.866 633.209L289.622 403.663L288.198 403.948L310.443 633.494Z" fill="#494949"/>
<path d="M227.613 633.494L229.037 633.209L206.792 403.663L205.369 403.948L227.613 633.494Z" fill="#494949"/>
<path d="M198.114 302.64L196.678 302.839L209.673 403.907L211.109 403.708L198.114 302.64Z" fill="#494949"/>
<path d="M48.9561 302.639L47.5195 302.838L60.5145 403.906L61.9511 403.707L48.9561 302.639Z" fill="#494949"/>
<path d="M210.983 396.405H65.0902C61.1539 396.405 57.9629 399.718 57.9629 403.806V403.806C57.9629 407.894 61.1539 411.208 65.0902 411.208H210.983C214.92 411.208 218.111 407.894 218.111 403.806V403.806C218.111 399.718 214.92 396.405 210.983 396.405Z" fill="#292A2E"/>
<path opacity="0.8" d="M210.983 396.405H65.0902C61.1539 396.405 57.9629 399.718 57.9629 403.806V403.806C57.9629 407.894 61.1539 411.208 65.0902 411.208H210.983C214.92 411.208 218.111 407.894 218.111 403.806V403.806C218.111 399.718 214.92 396.405 210.983 396.405Z" fill="#D8CDE4"/>
<path d="M210.984 411.959H65.0912C64.0601 411.959 63.039 411.749 62.0864 411.339C61.1338 410.929 60.2682 410.328 59.539 409.571C58.8099 408.814 58.2316 407.915 57.837 406.926C57.4424 405.937 57.2393 404.876 57.2393 403.806C57.2393 402.735 57.4424 401.675 57.837 400.685C58.2316 399.696 58.8099 398.797 59.539 398.04C60.2682 397.283 61.1338 396.682 62.0864 396.273C63.039 395.863 64.0601 395.652 65.0912 395.652H210.984C212.015 395.652 213.036 395.863 213.989 396.273C214.941 396.682 215.807 397.283 216.536 398.04C217.265 398.797 217.843 399.696 218.238 400.685C218.633 401.675 218.836 402.735 218.836 403.806C218.836 404.876 218.633 405.937 218.238 406.926C217.843 407.915 217.265 408.814 216.536 409.571C215.807 410.328 214.941 410.929 213.989 411.339C213.036 411.749 212.015 411.959 210.984 411.959ZM65.0912 397.157C64.2504 397.157 63.4178 397.329 62.641 397.663C61.8642 397.997 61.1584 398.487 60.5639 399.104C59.9694 399.722 59.4978 400.455 59.176 401.261C58.8542 402.068 58.6886 402.933 58.6886 403.806C58.6886 404.679 58.8542 405.543 59.176 406.35C59.4978 407.157 59.9694 407.89 60.5639 408.507C61.1584 409.124 61.8642 409.614 62.641 409.948C63.4178 410.282 64.2504 410.454 65.0912 410.454H210.984C211.825 410.454 212.657 410.282 213.434 409.948C214.211 409.614 214.917 409.124 215.511 408.507C216.106 407.89 216.577 407.157 216.899 406.35C217.221 405.543 217.386 404.679 217.386 403.806C217.386 402.933 217.221 402.068 216.899 401.261C216.577 400.455 216.106 399.722 215.511 399.104C214.917 398.487 214.211 397.997 213.434 397.663C212.657 397.329 211.825 397.157 210.984 397.157H65.0912Z" fill="#292A2E"/>
<path d="M291.059 396.405H145.165C141.229 396.405 138.038 399.718 138.038 403.806V403.806C138.038 407.894 141.229 411.208 145.165 411.208H291.059C294.995 411.208 298.186 407.894 298.186 403.806V403.806C298.186 399.718 294.995 396.405 291.059 396.405Z" fill="#D8CDE4"/>
<path d="M291.059 411.959H145.165C144.134 411.959 143.113 411.749 142.161 411.339C141.208 410.929 140.342 410.328 139.613 409.571C138.884 408.814 138.306 407.915 137.911 406.926C137.517 405.937 137.313 404.876 137.313 403.806C137.313 402.735 137.517 401.675 137.911 400.685C138.306 399.696 138.884 398.797 139.613 398.04C140.342 397.283 141.208 396.682 142.161 396.273C143.113 395.863 144.134 395.652 145.165 395.652H291.059C292.09 395.652 293.111 395.863 294.064 396.273C295.016 396.682 295.882 397.283 296.611 398.04C297.34 398.797 297.918 399.696 298.313 400.685C298.708 401.675 298.911 402.735 298.911 403.806C298.911 404.876 298.708 405.937 298.313 406.926C297.918 407.915 297.34 408.814 296.611 409.571C295.882 410.328 295.016 410.929 294.064 411.339C293.111 411.749 292.09 411.959 291.059 411.959ZM145.165 397.157C144.325 397.157 143.492 397.329 142.715 397.663C141.938 397.997 141.233 398.487 140.638 399.104C140.044 399.722 139.572 400.455 139.25 401.261C138.928 402.068 138.763 402.933 138.763 403.806C138.763 404.679 138.928 405.543 139.25 406.35C139.572 407.157 140.044 407.89 140.638 408.507C141.233 409.124 141.938 409.614 142.715 409.948C143.492 410.282 144.325 410.454 145.165 410.454H291.059C291.9 410.454 292.732 410.282 293.509 409.948C294.286 409.614 294.992 409.124 295.586 408.507C296.181 407.89 296.652 407.157 296.974 406.35C297.296 405.543 297.461 404.679 297.461 403.806C297.461 402.933 297.296 402.068 296.974 401.261C296.652 400.455 296.181 399.722 295.586 399.104C294.992 398.487 294.286 397.997 293.509 397.663C292.732 397.329 291.9 397.157 291.059 397.157H145.165Z" fill="#292A2E"/>
<path d="M190.122 302.738H48.6294C46.316 302.737 44.0817 301.863 42.3435 300.278C40.6053 298.693 39.482 296.505 39.1831 294.123L29.8239 219.487C29.6489 218.092 29.7627 216.674 30.1574 215.328C30.5522 213.982 31.2189 212.739 32.1131 211.682C33.0073 210.625 34.1084 209.778 35.3428 209.198C36.5772 208.618 37.9166 208.318 39.2716 208.318H180.762C183.076 208.318 185.31 209.192 187.048 210.777C188.786 212.363 189.91 214.55 190.209 216.932L199.567 291.569C199.742 292.964 199.629 294.381 199.234 295.727C198.84 297.073 198.173 298.316 197.279 299.373C196.385 300.43 195.284 301.277 194.05 301.857C192.816 302.438 191.477 302.738 190.122 302.738Z" fill="#292A2E"/>
<path opacity="0.8" d="M190.122 302.738H48.6294C46.316 302.737 44.0817 301.863 42.3435 300.278C40.6053 298.693 39.482 296.505 39.1831 294.123L29.8239 219.487C29.6489 218.092 29.7627 216.674 30.1574 215.328C30.5522 213.982 31.2189 212.739 32.1131 211.682C33.0073 210.625 34.1084 209.778 35.3428 209.198C36.5772 208.618 37.9166 208.318 39.2716 208.318H180.762C183.076 208.318 185.31 209.192 187.048 210.777C188.786 212.363 189.91 214.55 190.209 216.932L199.567 291.569C199.742 292.964 199.629 294.381 199.234 295.727C198.84 297.073 198.173 298.316 197.279 299.373C196.385 300.43 195.284 301.277 194.05 301.857C192.816 302.438 191.477 302.738 190.122 302.738Z" fill="#D8CDE4"/>
<path d="M190.122 303.49H48.6292C46.1413 303.484 43.7399 302.542 41.8706 300.837C40.0012 299.132 38.7909 296.781 38.4641 294.22L29.1055 219.584C28.9171 218.083 29.0392 216.557 29.4639 215.109C29.8886 213.66 30.606 212.322 31.5682 211.185C32.5303 210.047 33.7152 209.136 35.0436 208.512C36.3719 207.887 37.8133 207.565 39.2714 207.565H180.762C183.25 207.571 185.651 208.513 187.521 210.218C189.39 211.923 190.6 214.274 190.927 216.835L200.286 291.472C200.474 292.973 200.352 294.498 199.927 295.947C199.503 297.395 198.785 298.732 197.823 299.87C196.861 301.007 195.677 301.919 194.349 302.543C193.02 303.167 191.579 303.49 190.122 303.49ZM39.2714 209.07C38.0196 209.07 36.7823 209.347 35.642 209.883C34.5016 210.419 33.4845 211.202 32.6585 212.179C31.8325 213.155 31.2167 214.304 30.852 215.547C30.4874 216.791 30.3824 218.1 30.544 219.389L39.9033 294.026C40.1836 296.225 41.2227 298.243 42.8277 299.707C44.4327 301.171 46.4946 301.98 48.6306 301.985H190.122C191.373 301.985 192.61 301.707 193.75 301.171C194.89 300.635 195.907 299.852 196.733 298.876C197.559 297.899 198.174 296.751 198.539 295.507C198.903 294.264 199.008 292.954 198.847 291.666L189.49 217.03C189.209 214.831 188.17 212.813 186.565 211.349C184.96 209.885 182.898 209.076 180.762 209.071L39.2714 209.07Z" fill="#292A2E"/>
<path d="M198.122 302.738H56.6296C54.3163 302.737 52.0821 301.863 50.344 300.278C48.6059 298.693 47.4827 296.505 47.1841 294.123L37.8219 219.487C37.647 218.092 37.7607 216.674 38.1554 215.329C38.55 213.983 39.2166 212.74 40.1107 211.683C41.0047 210.626 42.1056 209.779 43.3398 209.198C44.5741 208.618 45.9133 208.318 47.2682 208.318H188.763C191.077 208.318 193.311 209.192 195.049 210.777C196.787 212.363 197.91 214.55 198.209 216.932L207.568 291.569C207.743 292.964 207.629 294.382 207.235 295.727C206.84 297.073 206.173 298.316 205.279 299.373C204.385 300.43 203.285 301.277 202.05 301.857C200.816 302.438 199.477 302.738 198.122 302.738Z" fill="#D8CDE4"/>
<path d="M198.122 303.49H56.63C54.1422 303.484 51.7409 302.541 49.8716 300.837C48.0024 299.132 46.7922 296.781 46.4656 294.22L37.1063 219.584C36.9181 218.083 37.0404 216.557 37.4652 215.109C37.8899 213.661 38.6072 212.323 39.5693 211.186C40.5313 210.048 41.716 209.137 43.0441 208.512C44.3723 207.888 45.8135 207.565 47.2714 207.565H188.763C191.251 207.571 193.652 208.514 195.522 210.218C197.391 211.923 198.601 214.274 198.928 216.835L208.287 291.472C208.476 292.973 208.353 294.498 207.928 295.947C207.504 297.395 206.786 298.732 205.824 299.87C204.862 301.007 203.677 301.918 202.349 302.543C201.021 303.167 199.58 303.49 198.122 303.49ZM47.2714 209.07C46.0199 209.071 44.7829 209.348 43.6429 209.885C42.5029 210.421 41.4862 211.204 40.6605 212.18C39.8348 213.157 39.2192 214.305 38.8548 215.548C38.4903 216.792 38.3854 218.101 38.5469 219.39L47.9026 294.026C48.1833 296.224 49.2224 298.243 50.8274 299.707C52.4323 301.17 54.494 301.98 56.63 301.985H198.122C199.374 301.985 200.611 301.708 201.752 301.172C202.892 300.636 203.909 299.853 204.735 298.877C205.561 297.9 206.177 296.751 206.542 295.508C206.906 294.265 207.011 292.955 206.85 291.666L197.49 217.03C197.21 214.831 196.171 212.813 194.566 211.349C192.961 209.885 190.899 209.076 188.763 209.071L47.2714 209.07Z" fill="#292A2E"/>
<path d="M308.108 319.779L306.666 319.93L337.217 633.999L338.659 633.847L308.108 319.779Z" fill="#494949"/>
<path d="M182.874 93.7377C182.874 93.7377 192.276 86.3681 194.606 69.4045C196.41 56.2706 184.742 64.7795 184.742 64.7795C184.742 64.7795 185.953 55.3089 179.307 56.2488C172.662 57.1887 168.944 67.1372 168.944 67.1372" fill="#0C0C0C"/>
<path d="M144.965 57.3572C144.965 57.3572 111.996 61.0303 123.915 107.419L126.832 107.623L132.754 108.035" fill="#0C0C0C"/>
<path d="M177.352 155.869C177.207 155.849 175.598 183.562 144.592 181.149C123.127 179.479 115.474 155.83 114.981 155.83C117.296 155.32 120.156 154.544 121.293 154.278C123.77 153.681 126.013 152.315 127.724 150.361C129.435 148.408 130.533 145.96 130.872 143.342C131.5 139.414 130.437 119.315 130.762 115.341L163.711 122.977C163.251 131.373 160.028 150.834 171.321 154.278C173.203 154.848 175.227 155.372 177.352 155.869Z" fill="#E98862"/>
<path opacity="0.52" d="M164.175 146.325C163.659 144.597 163.326 142.816 163.184 141.014C162.822 136.901 162.895 132.759 163.401 128.663C156.704 127.724 150.395 124.854 145.19 120.378C144.579 122.724 141.214 132.977 142.147 135.207C143.904 139.422 152.178 146.325 164.175 146.325Z" fill="#0C0C0C"/>
<path d="M157.374 140.839C144.375 139.629 128.817 131.1 128.593 112.777L128.39 96.2436C128.166 77.921 137.251 62.9448 153.865 62.7251C170.479 62.5061 183.079 77.1955 183.303 95.5189L183.393 102.838C183.381 105.352 183.204 107.862 182.864 110.351C182.012 116.935 180.69 126.946 176.388 133.718C172.324 140.112 165.678 141.612 157.374 140.839Z" fill="#E98862"/>
<path d="M163.405 124.093C166.087 124.219 168.761 123.689 171.21 122.545C171.26 122.522 171.306 122.49 171.345 122.449C171.383 122.408 171.413 122.36 171.434 122.307C171.455 122.253 171.465 122.197 171.464 122.14C171.464 122.082 171.452 122.026 171.431 121.973C171.409 121.921 171.378 121.873 171.338 121.833C171.299 121.793 171.252 121.762 171.201 121.74C171.15 121.719 171.096 121.708 171.041 121.709C170.986 121.71 170.931 121.721 170.881 121.744C165.605 124.08 160.814 123.738 157.027 120.754C156.951 120.691 156.871 120.633 156.788 120.579C156.693 120.533 156.585 120.526 156.485 120.559C156.385 120.592 156.301 120.663 156.248 120.757C156.196 120.852 156.18 120.963 156.202 121.069C156.225 121.176 156.286 121.269 156.372 121.331C156.402 121.351 156.451 121.391 156.517 121.446C158.508 123.02 160.906 123.942 163.405 124.093Z" fill="#0C0C0C"/>
<path d="M163.28 128.219C163.764 128.25 164.251 128.238 164.734 128.183C164.844 128.17 164.945 128.113 165.015 128.023C165.085 127.934 165.118 127.819 165.106 127.704C165.094 127.589 165.039 127.484 164.953 127.411C164.866 127.339 164.756 127.305 164.645 127.317C161.741 127.638 160.356 126.256 160.297 126.197C160.218 126.115 160.112 126.069 160.001 126.069C159.89 126.069 159.783 126.114 159.704 126.196C159.625 126.277 159.581 126.388 159.581 126.504C159.581 126.619 159.625 126.73 159.703 126.811C160.703 127.696 161.967 128.193 163.28 128.219Z" fill="#0C0C0C"/>
<path d="M177.816 106.361C178.946 106.361 179.863 105.41 179.863 104.236C179.863 103.063 178.946 102.111 177.816 102.111C176.686 102.111 175.77 103.063 175.77 104.236C175.77 105.41 176.686 106.361 177.816 106.361Z" fill="#0C0C0C"/>
<path d="M157.823 105.059C158.953 105.059 159.869 104.107 159.869 102.934C159.869 101.76 158.953 100.808 157.823 100.808C156.693 100.808 155.776 101.76 155.776 102.934C155.776 104.107 156.693 105.059 157.823 105.059Z" fill="#0C0C0C"/>
<path d="M129.693 118.345C124.644 118.412 120.483 112.857 120.417 107.614C120.351 102.371 124.41 99.4261 129.459 99.3598L132.103 102.838L134.032 118.288L129.693 118.345Z" fill="#E98862"/>
<path d="M134.712 109.921C134.712 109.921 136.418 83.9939 143.988 82.3925C149.031 81.3261 161.258 88.7536 172.584 86.5103C177.539 85.532 182.243 86.8023 182.721 89.233C182.91 90.1955 185.997 76.3647 178.238 65.8714C172.06 57.5145 151.843 55.1553 142.645 57.8945C117.178 65.4816 128.416 100.501 128.416 100.501L129.552 109.439L134.712 109.921Z" fill="#0C0C0C"/>
<path d="M166.453 117.972H166.486C168.113 117.955 170.84 117.738 170.829 116.474C170.818 115.426 167.948 104.151 167.62 102.869C167.589 102.762 167.519 102.673 167.425 102.619C167.331 102.564 167.221 102.55 167.117 102.579C167.014 102.607 166.925 102.676 166.869 102.772C166.814 102.867 166.796 102.981 166.819 103.089C168.094 108.083 169.993 115.771 170.001 116.484C169.843 116.785 168.163 117.095 166.478 117.114C166.372 117.116 166.27 117.161 166.195 117.238C166.119 117.316 166.076 117.421 166.072 117.531C166.069 117.641 166.107 117.749 166.178 117.831C166.249 117.913 166.347 117.964 166.453 117.973V117.972Z" fill="#0C0C0C"/>
<path d="M172.008 92.7119C173.718 92.2232 175.523 92.2232 177.233 92.7119C178.073 92.9464 178.874 93.3107 179.61 93.7926C180.337 94.2644 181.004 94.8297 181.595 95.4753C181.708 95.5891 181.774 95.7445 181.778 95.9081C181.782 96.0717 181.724 96.2306 181.617 96.3506C181.51 96.4706 181.362 96.5423 181.205 96.5503C181.047 96.5583 180.893 96.5019 180.775 96.3933L180.738 96.3602C180.191 95.8344 179.582 95.3821 178.926 95.0139C178.283 94.648 177.59 94.3851 176.87 94.2343C175.455 93.926 173.985 94.0114 172.612 94.4819L172.554 94.503C172.327 94.5862 172.078 94.5725 171.861 94.4649C171.644 94.3573 171.477 94.1646 171.397 93.9292C171.316 93.6938 171.33 93.4349 171.433 93.2096C171.537 92.9843 171.722 92.811 171.949 92.7278L172.008 92.7119Z" fill="#0C0C0C"/>
<path d="M159.899 93.7798C158.598 93.1232 157.153 92.8353 155.71 92.9452C154.978 92.9947 154.257 93.1591 153.573 93.4329C152.876 93.7074 152.216 94.0714 151.607 94.5165L151.568 94.5436C151.437 94.6306 151.279 94.662 151.127 94.6312C150.975 94.6004 150.839 94.5098 150.75 94.3782C150.66 94.2467 150.623 94.0843 150.645 93.9247C150.668 93.7652 150.749 93.6209 150.871 93.5217C151.539 92.9635 152.273 92.4953 153.054 92.128C153.846 91.7528 154.686 91.5027 155.549 91.386C157.306 91.1371 159.096 91.3862 160.728 92.1069C160.949 92.2067 161.123 92.3936 161.211 92.6265C161.3 92.8593 161.295 93.1191 161.199 93.3486C161.103 93.5781 160.923 93.7586 160.699 93.8503C160.475 93.9421 160.224 93.9375 160.003 93.8377L159.953 93.8129L159.899 93.7798Z" fill="#0C0C0C"/>
<path d="M169.574 74.865C173.311 74.0542 175.409 68.7665 174.26 63.0546C173.11 57.3428 169.149 53.3697 165.412 54.1805C161.675 54.9913 159.577 60.2789 160.726 65.9908C161.876 71.7027 165.837 75.6757 169.574 74.865Z" fill="#0C0C0C"/>
<path d="M378.003 594.304C378.003 594.304 381.889 615.219 400.747 616.385C419.604 617.55 415.516 633.151 415.516 633.151H343.45V595.762L378.003 594.304Z" fill="#C69BBB"/>
<path d="M240.902 581.098C240.902 581.098 235.498 601.647 251.925 611.337C268.351 621.026 258.05 633.151 258.05 633.151L193.385 600.115L209.278 566.566L240.902 581.098Z" fill="#C69BBB"/>
<path d="M200.851 575.294L255.383 396.651H156.536C136.68 396.651 128.402 379.166 128.402 358.548C128.402 337.93 147.922 319.855 167.777 319.855H301.184C313.295 319.855 326.874 327.546 333.52 338.059C340.167 348.572 338.37 364.862 333.554 376.402L246.23 596.642" fill="#3D363E"/>
<path opacity="0.8" d="M200.851 575.294L255.383 396.651H156.536C136.68 396.651 128.402 379.166 128.402 358.548C128.402 337.93 147.922 319.855 167.777 319.855H301.184C313.295 319.855 326.874 327.546 333.52 338.059C340.167 348.572 338.37 364.862 333.554 376.402L246.23 596.642" fill="#251D26"/>
<path d="M339.306 613.728L248.125 396.651L128.4 396.642C100.347 394.358 87.4992 378.393 87.9079 357.78C88.3108 337.428 98.2346 317.325 117.745 317.325H279.112C293.548 317.633 304.905 334.199 310.26 348.123L386.062 600.438" fill="#0D040E"/>
<path d="M79.7426 317.575C79.7426 317.575 74.4256 353.58 82.8537 373.598C93.3753 398.59 132.818 396.642 132.818 396.642L130.596 317.325L79.7426 317.575Z" fill="#0D040E"/>
<path d="M313.691 316.866L229.121 298.669C225.597 297.91 222.314 296.241 219.576 293.816C216.837 291.391 214.733 288.288 213.456 284.793L180.193 193.772C179.18 191.041 178.697 188.128 178.771 185.202C178.845 182.276 179.476 179.394 180.626 176.721C181.776 174.049 183.423 171.639 185.473 169.629C187.523 167.62 189.935 166.051 192.57 165.012C195.206 163.974 198.013 163.486 200.83 163.577C203.648 163.669 206.42 164.337 208.988 165.544C211.556 166.752 213.869 168.474 215.794 170.612C217.719 172.75 219.219 175.262 220.206 178.004L249.304 257.622L322.377 273.345C322.377 273.345 315.158 317.182 313.691 316.866Z" fill="#C69BBB"/>
<path d="M215.877 216.887C214.9 228.801 207.978 303.134 207.035 317.81H79.7984C79.0672 304.574 76.6939 248.377 73.9212 222.494C71.2754 197.794 70.3152 183.699 73.3632 176.024C78.7389 162.486 92.1912 157.615 103.779 155.986C110.854 154.992 121.496 154.278 121.496 154.278C121.496 154.278 122.397 173.207 143.883 174.26C173.13 175.69 171.177 154.278 171.322 154.278C176.06 154.278 201.852 157.856 208.301 162.221C217.41 168.387 220.102 176.788 220.208 184.507C220.331 193.395 216.984 203.374 215.877 216.887Z" fill="#C69BBB"/>
<path d="M210.877 277.625H210.846C210.799 277.621 210.752 277.607 210.71 277.584C210.668 277.562 210.63 277.531 210.599 277.493C210.569 277.455 210.545 277.412 210.531 277.364C210.516 277.317 210.511 277.268 210.515 277.219L213.818 236.014C213.821 235.965 213.833 235.916 213.854 235.872C213.876 235.827 213.906 235.787 213.942 235.755C213.979 235.723 214.021 235.699 214.067 235.684C214.113 235.67 214.161 235.665 214.209 235.67C214.256 235.675 214.302 235.688 214.345 235.711C214.387 235.734 214.425 235.765 214.455 235.802C214.486 235.84 214.509 235.884 214.524 235.931C214.538 235.978 214.544 236.028 214.54 236.077L211.237 277.281C211.229 277.375 211.188 277.462 211.121 277.526C211.054 277.589 210.967 277.625 210.877 277.625Z" fill="#0C0C0C"/>
<path d="M271.473 302.355L299.391 213.237C299.881 211.671 300.837 210.306 302.12 209.338C303.403 208.371 304.948 207.849 306.534 207.849H427.521C428.707 207.849 429.876 208.141 430.932 208.7C431.989 209.259 432.903 210.07 433.599 211.066C434.296 212.062 434.756 213.215 434.941 214.431C435.126 215.648 435.031 216.892 434.665 218.063L399.5 307.184C399.009 308.75 398.054 310.114 396.771 311.082C395.488 312.05 393.943 312.571 392.357 312.571H278.616C277.43 312.571 276.261 312.28 275.204 311.721C274.148 311.161 273.233 310.35 272.537 309.354C271.84 308.357 271.38 307.203 271.195 305.987C271.01 304.77 271.106 303.526 271.473 302.355Z" fill="#292A2E"/>
<path d="M271.473 302.355L299.391 213.237C299.881 211.671 300.837 210.306 302.12 209.338C303.403 208.371 304.948 207.849 306.534 207.849H427.521C428.707 207.849 429.876 208.141 430.932 208.7C431.989 209.259 432.903 210.07 433.599 211.066C434.296 212.062 434.756 213.215 434.941 214.431C435.126 215.648 435.031 216.892 434.665 218.063L399.5 307.184C399.009 308.75 398.054 310.114 396.771 311.082C395.488 312.05 393.943 312.571 392.357 312.571H278.616C277.43 312.571 276.261 312.28 275.204 311.721C274.148 311.161 273.233 310.35 272.537 309.354C271.84 308.357 271.38 307.203 271.195 305.987C271.01 304.77 271.106 303.526 271.473 302.355Z" fill="#292A2E"/>
<path d="M294.247 305.341H218.109C216.212 305.341 214.674 306.938 214.674 308.908V309C214.674 310.97 216.212 312.567 218.109 312.567H294.247C296.144 312.567 297.682 310.97 297.682 309V308.908C297.682 306.938 296.144 305.341 294.247 305.341Z" fill="#292A2E"/>
<path d="M294.247 305.341H218.109C216.212 305.341 214.674 306.938 214.674 308.908V309C214.674 310.97 216.212 312.567 218.109 312.567H294.247C296.144 312.567 297.682 310.97 297.682 309V308.908C297.682 306.938 296.144 305.341 294.247 305.341Z" fill="#292A2E"/>
<path d="M349.446 276.944C356.034 276.944 361.375 271.398 361.375 264.556C361.375 257.715 356.034 252.169 349.446 252.169C342.857 252.169 337.517 257.715 337.517 264.556C337.517 271.398 342.857 276.944 349.446 276.944Z" fill="#D8CDE4"/>
<path d="M265.109 281.479L246.107 274.562L248.835 274.366C249.714 274.285 250.531 273.86 251.12 273.177C251.71 272.494 252.027 271.605 252.009 270.688C251.984 270.215 251.866 269.753 251.663 269.329C251.46 268.905 251.176 268.529 250.828 268.223C250.48 267.917 250.076 267.687 249.64 267.549C249.204 267.41 248.746 267.365 248.293 267.417L214.674 271.127L215.543 282.346C215.815 285.83 217.082 289.151 219.183 291.882C221.283 294.614 224.122 296.632 227.334 297.678L241.893 302.387C242.645 302.647 243.46 302.629 244.201 302.337C244.942 302.044 245.562 301.495 245.958 300.782C246.301 300.13 246.436 299.381 246.341 298.645C246.246 297.908 245.927 297.222 245.43 296.687C245.462 296.664 245.49 296.633 245.51 296.598C245.531 296.563 245.544 296.524 245.549 296.484C245.555 296.443 245.552 296.402 245.542 296.362C245.532 296.323 245.513 296.286 245.489 296.254L248.17 297.128C249.007 297.419 249.919 297.37 250.723 296.99C251.526 296.611 252.161 295.928 252.498 295.081C252.774 294.312 252.78 293.467 252.514 292.695C252.249 291.923 251.73 291.272 251.049 290.858C251.08 290.841 251.108 290.817 251.131 290.789L252.234 291.148C252.986 291.408 253.802 291.39 254.542 291.098C255.283 290.805 255.904 290.255 256.299 289.542C256.716 288.752 256.822 287.824 256.595 286.955C256.368 286.085 255.825 285.34 255.081 284.876C255.088 284.853 255.091 284.83 255.092 284.806L263.005 287.686C263.399 287.833 263.816 287.899 264.234 287.878C264.652 287.857 265.062 287.75 265.44 287.564C265.818 287.378 266.156 287.115 266.436 286.792C266.716 286.469 266.931 286.092 267.07 285.682C267.208 285.272 267.267 284.837 267.242 284.403C267.218 283.97 267.111 283.545 266.928 283.155C266.745 282.764 266.489 282.415 266.175 282.128C265.861 281.841 265.495 281.621 265.099 281.482L265.109 281.479Z" fill="#E98862"/>
<path opacity="0.2" d="M254.791 285.124C254.755 285.124 254.718 285.117 254.683 285.104L247.029 282.214C246.951 282.184 246.887 282.123 246.852 282.044C246.816 281.965 246.813 281.875 246.842 281.793C246.87 281.712 246.929 281.645 247.005 281.609C247.081 281.572 247.168 281.568 247.247 281.598L254.902 284.489C254.971 284.515 255.03 284.566 255.067 284.633C255.104 284.699 255.117 284.778 255.105 284.853C255.092 284.929 255.053 284.998 254.997 285.048C254.94 285.097 254.868 285.124 254.794 285.124H254.791Z" fill="#0A0A0A"/>
<path opacity="0.2" d="M250.921 290.903C250.885 290.903 250.849 290.896 250.815 290.884L244.782 288.661C244.743 288.647 244.706 288.625 244.674 288.597C244.642 288.568 244.616 288.533 244.598 288.494C244.579 288.455 244.568 288.412 244.566 288.369C244.564 288.325 244.569 288.282 244.583 288.241C244.597 288.199 244.619 288.162 244.648 288.129C244.676 288.097 244.71 288.071 244.748 288.053C244.786 288.034 244.828 288.024 244.869 288.023C244.911 288.021 244.953 288.028 244.993 288.044L251.026 290.267C251.096 290.292 251.155 290.343 251.193 290.41C251.231 290.476 251.244 290.555 251.232 290.631C251.219 290.707 251.181 290.776 251.124 290.825C251.067 290.875 250.996 290.903 250.921 290.903Z" fill="#0A0A0A"/>
<path opacity="0.2" d="M245.24 296.767C245.202 296.767 245.164 296.759 245.128 296.745L242.301 295.626C242.223 295.595 242.16 295.533 242.126 295.454C242.092 295.375 242.09 295.284 242.119 295.203C242.149 295.122 242.209 295.057 242.285 295.021C242.362 294.986 242.449 294.983 242.527 295.014L245.353 296.133C245.422 296.161 245.48 296.212 245.516 296.279C245.553 296.346 245.565 296.424 245.552 296.499C245.538 296.574 245.5 296.643 245.443 296.692C245.386 296.741 245.315 296.767 245.241 296.767H245.24Z" fill="#0A0A0A"/>
<path d="M229.554 264.487L149.839 264.432L119.682 188.04L74.6953 207.682L112.319 298.346L112.687 299.249C114.528 303.656 117.628 307.369 121.569 309.885C125.509 312.4 130.099 313.598 134.717 313.314L230.758 307.423L229.554 264.487Z" fill="#C69BBB"/>
<path d="M133.397 313.731C128.928 313.723 124.558 312.363 120.822 309.817C117.085 307.272 114.143 303.651 112.356 299.398L111.988 298.495L79.9258 221.244L80.591 220.943L113.021 299.102C114.84 303.431 117.893 307.078 121.768 309.551C125.643 312.025 130.155 313.207 134.696 312.939L230.385 307.069L229.2 264.865L149.595 264.809L126.405 206.072L127.076 205.787L150.08 264.057L229.903 264.113L231.13 307.777L230.779 307.799L134.741 313.689C134.292 313.717 133.842 313.731 133.397 313.731Z" fill="#0C0C0C"/>
<path d="M44.732 319.783L14.1602 633.85L15.6022 634.001L46.174 319.935L44.732 319.783Z" fill="#494949"/>
<path d="M171.044 319.783L140.472 633.849L141.914 634.001L172.486 319.934L171.044 319.783Z" fill="#494949"/>
<path d="M434.419 319.779L432.977 319.93L463.527 633.999L464.969 633.847L434.419 319.779Z" fill="#494949"/>
<path d="M461.967 313.689H19.1832C15.9037 313.689 13.2451 316.45 13.2451 319.855C13.2451 323.26 15.9037 326.021 19.1832 326.021H461.967C465.247 326.021 467.905 323.26 467.905 319.855C467.905 316.45 465.247 313.689 461.967 313.689Z" fill="#292A2E"/>
<path opacity="0.8" d="M461.967 313.689H19.1832C15.9037 313.689 13.2451 316.45 13.2451 319.855C13.2451 323.26 15.9037 326.021 19.1832 326.021H461.967C465.247 326.021 467.905 323.26 467.905 319.855C467.905 316.45 465.247 313.689 461.967 313.689Z" fill="#D8CDE4"/>
<path d="M461.968 326.774H19.1863C18.3056 326.783 17.4317 326.611 16.6153 326.268C15.799 325.924 15.0563 325.416 14.4302 324.773C13.8041 324.13 13.3071 323.364 12.9679 322.52C12.6287 321.675 12.4541 320.77 12.4541 319.855C12.4541 318.941 12.6287 318.035 12.9679 317.191C13.3071 316.347 13.8041 315.581 14.4302 314.937C15.0563 314.294 15.799 313.786 16.6153 313.443C17.4317 313.099 18.3056 312.927 19.1863 312.937H461.968C462.849 312.927 463.723 313.099 464.539 313.443C465.355 313.786 466.098 314.294 466.724 314.937C467.35 315.581 467.847 316.347 468.186 317.191C468.526 318.035 468.7 318.941 468.7 319.855C468.7 320.77 468.526 321.675 468.186 322.52C467.847 323.364 467.35 324.13 466.724 324.773C466.098 325.416 465.355 325.924 464.539 326.268C463.723 326.611 462.849 326.783 461.968 326.774ZM19.1863 314.442C18.4966 314.433 17.8121 314.567 17.1725 314.835C16.5329 315.104 15.9509 315.501 15.4602 316.005C14.9696 316.508 14.5801 317.108 14.3142 317.769C14.0484 318.43 13.9115 319.139 13.9115 319.855C13.9115 320.571 14.0484 321.281 14.3142 321.942C14.5801 322.603 14.9696 323.202 15.4602 323.706C15.9509 324.209 16.5329 324.607 17.1725 324.875C17.8121 325.143 18.4966 325.277 19.1863 325.268H461.968C462.658 325.277 463.342 325.143 463.982 324.875C464.622 324.607 465.204 324.209 465.694 323.706C466.185 323.202 466.574 322.603 466.84 321.942C467.106 321.281 467.243 320.571 467.243 319.855C467.243 319.139 467.106 318.43 466.84 317.769C466.574 317.108 466.185 316.508 465.694 316.005C465.204 315.501 464.622 315.104 463.982 314.835C463.342 314.567 462.658 314.433 461.968 314.442H19.1863Z" fill="#292A2E"/>
<path d="M461.967 313.689H150.323C147.043 313.689 144.385 316.45 144.385 319.855C144.385 323.26 147.043 326.021 150.323 326.021H461.967C465.247 326.021 467.905 323.26 467.905 319.855C467.905 316.45 465.247 313.689 461.967 313.689Z" fill="#D8CDE4"/>
<path d="M461.968 326.774H150.323C148.568 326.755 146.891 326.017 145.656 324.722C144.422 323.426 143.729 321.678 143.729 319.855C143.729 318.033 144.422 316.284 145.656 314.988C146.891 313.693 148.568 312.956 150.323 312.937H461.968C462.849 312.927 463.722 313.099 464.539 313.443C465.355 313.786 466.098 314.294 466.724 314.937C467.35 315.581 467.847 316.347 468.186 317.191C468.525 318.035 468.7 318.941 468.7 319.855C468.7 320.77 468.525 321.675 468.186 322.52C467.847 323.364 467.35 324.13 466.724 324.773C466.098 325.416 465.355 325.924 464.539 326.268C463.722 326.611 462.849 326.783 461.968 326.774ZM150.323 314.442C148.951 314.459 147.641 315.036 146.676 316.05C145.712 317.063 145.171 318.43 145.171 319.855C145.171 321.28 145.712 322.647 146.676 323.661C147.641 324.674 148.951 325.252 150.323 325.268H461.968C462.658 325.277 463.342 325.143 463.982 324.875C464.621 324.607 465.203 324.209 465.694 323.706C466.185 323.202 466.574 322.603 466.84 321.942C467.106 321.281 467.243 320.571 467.243 319.855C467.243 319.139 467.106 318.43 466.84 317.769C466.574 317.108 466.185 316.508 465.694 316.005C465.203 315.501 464.621 315.104 463.982 314.835C463.342 314.567 462.658 314.433 461.968 314.442H150.323Z" fill="#292A2E"/>
<path d="M473.911 533.876C473.816 533.877 473.721 533.857 473.633 533.819C473.545 533.782 473.465 533.726 473.398 533.656C472.377 532.596 470.713 513.143 466.23 455.225C464.396 431.526 462.663 409.141 461.398 395.538C461.308 394.566 460.945 394.453 460.827 394.416C459.095 393.874 453.832 398.184 450.893 401.958C450.772 402.114 450.597 402.213 450.406 402.234C450.215 402.255 450.023 402.196 449.874 402.07C449.724 401.945 449.629 401.763 449.609 401.564C449.588 401.366 449.645 401.167 449.766 401.012C451.709 398.516 458.043 391.974 461.243 392.975C461.888 393.176 462.693 393.759 462.841 395.393C464.107 409.009 465.84 431.4 467.675 455.104C470.399 490.3 473.485 530.174 474.499 532.685C474.577 532.798 474.623 532.93 474.633 533.068C474.643 533.206 474.616 533.344 474.555 533.467C474.494 533.59 474.402 533.694 474.288 533.766C474.175 533.838 474.044 533.876 473.911 533.876Z" fill="#494949"/>
<path d="M459.536 420.5C471.561 410.491 475.547 394.911 468.438 385.702C461.33 376.493 445.818 377.142 433.793 387.151C421.768 397.161 417.782 412.741 424.891 421.95C432 431.159 447.511 430.51 459.536 420.5Z" fill="#7E1D66"/>
<path opacity="0.2" d="M459.536 420.5C471.561 410.491 475.547 394.911 468.438 385.702C461.33 376.493 445.818 377.142 433.793 387.151C421.768 397.161 417.782 412.741 424.891 421.95C432 431.159 447.511 430.51 459.536 420.5Z" fill="#D8CDE4"/>
<path d="M428.263 424.292C428.194 424.292 428.127 424.272 428.069 424.233C428.01 424.195 427.964 424.14 427.935 424.076C427.906 424.011 427.895 423.939 427.903 423.868C427.912 423.797 427.94 423.731 427.984 423.676L462.255 380.759C462.316 380.683 462.404 380.634 462.5 380.625C462.596 380.616 462.691 380.646 462.765 380.71C462.839 380.774 462.886 380.866 462.895 380.965C462.904 381.064 462.874 381.163 462.813 381.24L428.542 424.156C428.508 424.199 428.465 424.233 428.417 424.256C428.369 424.28 428.316 424.292 428.263 424.292Z" fill="#D8CDE4"/>
<path d="M481.385 524.677C481.269 524.677 481.155 524.648 481.052 524.593C480.95 524.538 480.861 524.458 480.794 524.36C480.727 524.262 480.684 524.149 480.667 524.03C480.651 523.911 480.662 523.79 480.7 523.677L493.575 485.233C493.954 484.103 494.599 483.091 495.453 482.287C496.307 481.484 497.341 480.916 498.46 480.636C499.58 480.355 500.75 480.371 501.862 480.681C502.974 480.991 503.994 481.587 504.827 482.412L511.634 489.163C511.773 489.301 511.853 489.491 511.858 489.69C511.862 489.89 511.79 490.083 511.657 490.228C511.524 490.372 511.342 490.456 511.15 490.46C510.957 490.465 510.771 490.39 510.632 490.252L503.827 483.5C503.169 482.849 502.364 482.379 501.485 482.134C500.607 481.889 499.684 481.876 498.8 482.098C497.916 482.319 497.1 482.768 496.426 483.402C495.752 484.036 495.242 484.835 494.943 485.727L482.07 524.172C482.021 524.319 481.928 524.447 481.805 524.538C481.682 524.628 481.535 524.677 481.385 524.677Z" fill="#494949"/>
<path d="M530.647 510.448C539.559 503.123 539.029 487.012 529.464 474.463C519.899 461.914 504.92 457.68 496.008 465.005C487.097 472.33 487.626 488.441 497.191 500.99C506.756 513.538 521.735 517.773 530.647 510.448Z" fill="#7E1D66"/>
<path d="M468.066 531.425C467.903 531.425 467.745 531.368 467.617 531.263C467.49 531.158 467.399 531.012 467.361 530.847L445.754 437.048C445.607 436.409 445.292 435.824 444.845 435.359C444.398 434.893 443.836 434.565 443.221 434.409C442.606 434.254 441.962 434.277 441.359 434.477C440.756 434.677 440.217 435.046 439.803 435.543L433.143 443.535C433.081 443.611 433.006 443.673 432.92 443.718C432.835 443.763 432.742 443.791 432.646 443.798C432.551 443.806 432.455 443.794 432.364 443.763C432.273 443.731 432.189 443.682 432.117 443.617C432.044 443.552 431.985 443.472 431.942 443.383C431.9 443.294 431.874 443.197 431.868 443.098C431.861 442.999 431.874 442.899 431.905 442.805C431.936 442.711 431.984 442.624 432.048 442.55L438.707 434.559C439.296 433.852 440.061 433.328 440.918 433.043C441.776 432.759 442.692 432.726 443.566 432.948C444.44 433.169 445.239 433.637 445.874 434.299C446.509 434.962 446.955 435.793 447.165 436.702L468.767 530.5C468.811 530.694 468.779 530.898 468.679 531.067C468.578 531.236 468.417 531.357 468.231 531.404C468.177 531.417 468.122 531.424 468.066 531.425Z" fill="#494949"/>
<path d="M460.094 464.372C462.721 448.603 455.77 434.188 444.571 432.177C433.371 430.166 422.163 441.32 419.537 457.089C416.911 472.859 423.861 487.274 435.061 489.285C446.26 491.296 457.468 480.142 460.094 464.372Z" fill="#7E1D66"/>
<path d="M473.911 533.876C473.882 533.876 473.852 533.875 473.822 533.871C473.728 533.859 473.636 533.828 473.554 533.779C473.471 533.731 473.398 533.665 473.339 533.587C473.281 533.509 473.237 533.42 473.212 533.325C473.186 533.23 473.179 533.13 473.191 533.032L486.986 416.723C487.136 415.456 487.636 414.261 488.425 413.282C489.213 412.302 490.258 411.58 491.432 411.203C492.606 410.825 493.86 410.807 495.044 411.152C496.228 411.497 497.29 412.189 498.104 413.146L513.872 431.691C513.999 431.84 514.064 432.037 514.052 432.236C514.04 432.435 513.952 432.621 513.808 432.753C513.664 432.885 513.475 432.953 513.283 432.94C513.091 432.928 512.912 432.837 512.785 432.687L497.017 414.142C496.388 413.403 495.567 412.868 494.652 412.601C493.737 412.334 492.768 412.348 491.86 412.64C490.953 412.932 490.146 413.49 489.536 414.247C488.927 415.004 488.541 415.927 488.425 416.907L474.63 533.216C474.609 533.398 474.524 533.566 474.391 533.687C474.259 533.809 474.088 533.876 473.911 533.876Z" fill="#494949"/>
<path d="M530.044 441.997C535.545 431.669 529.072 417.017 515.586 409.27C502.1 401.524 486.708 403.617 481.206 413.944C475.705 424.272 482.178 438.924 495.664 446.671C509.15 454.417 524.542 452.324 530.044 441.997Z" fill="#7E1D66"/>
<path opacity="0.2" d="M530.647 510.448C539.559 503.123 539.029 487.012 529.464 474.463C519.899 461.914 504.92 457.68 496.008 465.005C487.097 472.33 487.626 488.441 497.191 500.99C506.756 513.538 521.735 517.773 530.647 510.448Z" fill="#D8CDE4"/>
<path opacity="0.5" d="M460.094 464.372C462.721 448.603 455.77 434.188 444.571 432.177C433.371 430.166 422.163 441.32 419.537 457.089C416.911 472.859 423.861 487.274 435.061 489.285C446.26 491.296 457.468 480.142 460.094 464.372Z" fill="#D8CDE4"/>
<path opacity="0.5" d="M530.044 441.997C535.545 431.669 529.072 417.017 515.586 409.27C502.1 401.524 486.708 403.617 481.206 413.944C475.705 424.272 482.178 438.924 495.664 446.671C509.15 454.417 524.542 452.324 530.044 441.997Z" fill="#D8CDE4"/>
<path d="M491.555 632.565H456.266L450.418 515.317H497.403L491.555 632.565Z" fill="#292A2E"/>
<path opacity="0.3" d="M491.555 632.565H456.266L450.418 515.317H497.403L491.555 632.565Z" fill="#D8CDE4"/>
<path d="M530.648 510.819C530.593 510.819 530.539 510.806 530.49 510.781C530.441 510.756 530.398 510.72 530.364 510.676L495.724 465.233C495.664 465.155 495.637 465.055 495.648 464.956C495.659 464.857 495.708 464.767 495.783 464.705C495.858 464.643 495.954 464.614 496.05 464.626C496.145 464.637 496.232 464.688 496.292 464.766L530.932 510.208C530.974 510.264 531.001 510.331 531.008 510.401C531.016 510.471 531.004 510.542 530.974 510.606C530.945 510.67 530.898 510.724 530.841 510.761C530.783 510.799 530.716 510.819 530.648 510.819Z" fill="#D8CDE4"/>
<path d="M527.74 445.637C527.663 445.637 527.588 445.61 527.527 445.562L483.201 411.953C483.123 411.894 483.071 411.805 483.056 411.707C483.041 411.608 483.065 411.507 483.122 411.427C483.178 411.346 483.263 411.292 483.358 411.277C483.453 411.261 483.55 411.286 483.628 411.345L527.954 444.955C528.015 445.002 528.06 445.068 528.083 445.144C528.105 445.219 528.104 445.3 528.08 445.375C528.056 445.45 528.01 445.515 527.949 445.561C527.887 445.607 527.813 445.632 527.737 445.632L527.74 445.637Z" fill="#D8CDE4"/>
<path d="M433.26 488.794C433.228 488.794 433.196 488.79 433.166 488.781C433.073 488.755 432.994 488.692 432.946 488.606C432.898 488.52 432.885 488.417 432.91 488.321L447.02 433.422C447.047 433.328 447.108 433.248 447.19 433.2C447.272 433.152 447.369 433.14 447.46 433.165C447.552 433.19 447.63 433.251 447.678 433.335C447.727 433.419 447.742 433.52 447.72 433.615L433.61 488.515C433.589 488.595 433.544 488.666 433.48 488.716C433.417 488.767 433.339 488.794 433.26 488.794Z" fill="#D8CDE4"/>
<path d="M508.592 633.621H1.00728C0.87274 633.621 0.743712 633.566 0.648578 633.467C0.553445 633.368 0.5 633.234 0.5 633.095C0.5 632.955 0.553445 632.821 0.648578 632.722C0.743712 632.623 0.87274 632.568 1.00728 632.568H508.59C508.725 632.568 508.854 632.623 508.949 632.722C509.044 632.821 509.098 632.955 509.098 633.095C509.098 633.234 509.044 633.368 508.949 633.467C508.854 633.566 508.725 633.621 508.59 633.621H508.592Z" fill="#292A2E"/>
<g opacity="0.65">
<path d="M508.592 633.621H1.00728C0.87274 633.621 0.743712 633.566 0.648578 633.467C0.553445 633.368 0.5 633.234 0.5 633.095C0.5 632.955 0.553445 632.821 0.648578 632.722C0.743712 632.623 0.87274 632.568 1.00728 632.568H508.59C508.725 632.568 508.854 632.623 508.949 632.722C509.044 632.821 509.098 632.955 509.098 633.095C509.098 633.234 509.044 633.368 508.949 633.467C508.854 633.566 508.725 633.621 508.59 633.621H508.592Z" fill="#292A2E"/>
</g>
</svg>
