<svg width="220" height="41" viewBox="0 0 220 41" fill="none" xmlns="http://www.w3.org/2000/svg">
<path d="M41.1865 37.999C40.2751 37.9502 39.388 37.8851 38.5254 37.8037C37.679 37.7061 36.9059 37.5758 36.2061 37.4131C35.5062 37.2503 34.9121 37.0387 34.4238 36.7783C33.9518 36.5016 33.6426 36.1598 33.4961 35.7529L19.9951 2.40332C19.7184 2.4196 19.4499 2.53353 19.1895 2.74512C19.0755 4.76335 18.457 6.38281 17.334 7.60352L17.8955 9.04395L7.59277 34.9473C6.94173 36.5749 4.93978 37.5921 1.58691 37.999C1.48926 38.2269 1.44043 38.4303 1.44043 38.6094C1.44043 38.8047 1.48926 39 1.58691 39.1953C3.44238 39.1302 4.93164 39.0814 6.05469 39.0488C7.19401 39.0163 7.97526 39 8.39844 39C8.77279 39 9.61914 39.0163 10.9375 39.0488C12.2721 39.0814 14.0788 39.1302 16.3574 39.1953C16.4551 39 16.5039 38.8047 16.5039 38.6094C16.5039 38.4303 16.4551 38.2269 16.3574 37.999C15.0065 37.8688 13.9079 37.7305 13.0615 37.584C12.2152 37.4212 11.556 37.2503 11.084 37.0713C10.612 36.8923 10.2946 36.6969 10.1318 36.4854C9.96908 36.2575 9.8877 36.0052 9.8877 35.7285C9.8877 35.5495 9.92025 35.3704 9.98535 35.1914L13.5498 26.2559C15.3564 26.2233 16.8132 26.1989 17.9199 26.1826C19.043 26.1663 19.8161 26.1582 20.2393 26.1582C21.167 26.1582 21.9889 26.1663 22.7051 26.1826C23.4375 26.1826 24.0641 26.1908 24.585 26.207L28.125 35.1914C28.2064 35.4355 28.2471 35.6227 28.2471 35.7529C28.2471 36.1924 28.0192 36.583 27.5635 36.9248C27.124 37.2666 26.5788 37.5026 25.9277 37.6328L23.291 37.999C23.1934 38.2269 23.1445 38.4303 23.1445 38.6094C23.1445 38.8047 23.1934 39 23.291 39.1953C24.6745 39.1465 26.0742 39.1058 27.4902 39.0732C28.9225 39.0407 30.3874 39.0244 31.8848 39.0244C33.3822 39.0244 34.8958 39.0407 36.4258 39.0732C37.972 39.1058 39.5589 39.1465 41.1865 39.1953C41.3005 38.9674 41.3574 38.7721 41.3574 38.6094C41.3574 38.5117 41.3411 38.4141 41.3086 38.3164C41.276 38.2188 41.2354 38.113 41.1865 37.999ZM20.2393 24.2539C17.8792 24.2539 15.9342 24.2214 14.4043 24.1562L19.043 12.1934H19.1406L23.8037 24.2051C22.9248 24.2376 21.7367 24.2539 20.2393 24.2539ZM19.0918 14.7568L15.8447 23.2041C17.8141 23.3018 19.9788 23.318 22.3389 23.2529L19.0918 14.7568ZM41.9434 37.0957C42.3503 38.0723 42.334 39.1058 41.8945 40.1963H22.5342C22.1436 39.0732 22.1436 38.0397 22.5342 37.0957C24.3083 36.998 25.5615 36.819 26.2939 36.5586C27.0264 36.2819 27.2786 35.8424 27.0508 35.2402L23.8525 27.1592C20.8415 27.0452 17.6188 27.0778 14.1846 27.2568L11.0352 35.3379C10.9375 35.6146 11.0107 35.8669 11.2549 36.0947C11.5153 36.3063 11.9303 36.4772 12.5 36.6074C13.0697 36.7376 13.737 36.8434 14.502 36.9248C15.2669 37.0062 16.1296 37.0632 17.0898 37.0957C17.4967 38.0723 17.4805 39.1058 17.041 40.1963C11.7025 40.001 6.32324 40.001 0.90332 40.1963C0.463867 39.1058 0.447591 38.0723 0.854492 37.0957C4.20736 36.7051 6.10352 35.9727 6.54297 34.8984L16.8457 8.99512C16.7806 8.86491 16.6504 8.57194 16.4551 8.11621C16.276 7.64421 16.1702 7.33496 16.1377 7.18848C17.4072 5.90267 18.1071 4.24251 18.2373 2.20801C19.6696 1.50814 21.3542 1.10938 23.291 1.01172L36.9873 34.9961C37.2965 35.7611 37.7848 36.2738 38.4521 36.5342C39.1195 36.7783 40.2832 36.9655 41.9434 37.0957ZM49.1211 39.293C48.3398 39.5534 47.5749 39.8708 46.8262 40.2451C46.0612 39.7731 45.5566 39.293 45.3125 38.8047C45.3451 38.707 45.3939 38.3734 45.459 37.8037C45.5241 37.234 45.5892 36.5667 45.6543 35.8018C45.7357 35.0368 45.8008 34.2474 45.8496 33.4336C45.8984 32.6198 45.9229 31.9281 45.9229 31.3584C46.6878 31.0003 47.8678 30.8213 49.4629 30.8213C49.6419 30.8213 49.821 30.8213 50 30.8213C50.179 30.8213 50.3662 30.8294 50.5615 30.8457C51.7334 34.6543 53.3366 36.7214 55.3711 37.0469C56.2012 36.9167 56.8359 36.6156 57.2754 36.1436C57.7311 35.6553 57.959 35.11 57.959 34.5078C57.959 34.0684 57.8369 33.6615 57.5928 33.2871C57.3486 32.8965 57.0231 32.5384 56.6162 32.2129C56.2093 31.8874 55.7292 31.5863 55.1758 31.3096C54.6387 31.0329 54.069 30.7643 53.4668 30.5039C52.8646 30.2272 52.2542 29.9668 51.6357 29.7227C51.0173 29.4622 50.4232 29.1937 49.8535 28.917C49.2513 28.6403 48.6816 28.3066 48.1445 27.916C47.6074 27.5091 47.1354 27.0534 46.7285 26.5488C46.3216 26.028 45.9961 25.4583 45.752 24.8398C45.5241 24.2214 45.4102 23.554 45.4102 22.8379C45.4102 22.0729 45.5404 21.2754 45.8008 20.4453C46.0612 19.6152 46.5088 18.8584 47.1436 18.1748C47.7783 17.4912 48.6328 16.9297 49.707 16.4902C50.7812 16.0345 52.1322 15.8066 53.7598 15.8066C55.5664 15.8066 56.901 15.9043 57.7637 16.0996L58.667 15.8066H60.3271C60.5387 17.1901 60.791 18.484 61.084 19.6885C61.3932 20.8929 61.735 22.016 62.1094 23.0576C61.4095 23.7575 60.5632 24.1074 59.5703 24.1074C59.0169 23.4564 58.5042 22.8704 58.0322 22.3496C57.5602 21.8125 57.1045 21.3486 56.665 20.958C56.2419 20.5674 55.8187 20.25 55.3955 20.0059C54.9886 19.7617 54.5654 19.5908 54.126 19.4932C53.0518 19.6722 52.5146 20.1605 52.5146 20.958C52.5146 21.5928 52.7913 22.1462 53.3447 22.6182C53.8981 23.0902 54.5898 23.5215 55.4199 23.9121C56.25 24.3027 57.1533 24.6771 58.1299 25.0352C59.1227 25.377 60.0586 25.7432 60.9375 26.1338C61.5723 26.4105 62.1663 26.7686 62.7197 27.208C63.2894 27.6475 63.7858 28.1602 64.209 28.7461C64.6322 29.3158 64.9658 29.9587 65.21 30.6748C65.4541 31.3747 65.5762 32.1315 65.5762 32.9453C65.5762 34.1497 65.2669 35.2321 64.6484 36.1924C64.0462 37.1527 63.2406 37.9665 62.2314 38.6338C61.2386 39.3011 60.0993 39.8138 58.8135 40.1719C57.5277 40.5299 56.2174 40.709 54.8828 40.709C52.5879 40.709 50.6673 40.237 49.1211 39.293ZM54.7119 39.708C56.7464 39.708 58.488 39.1058 59.9365 37.9014C61.3851 36.6969 62.1094 35.346 62.1094 33.8486C62.1094 32.3838 61.6618 31.1224 60.7666 30.0645C59.8714 28.9902 58.7891 28.1602 57.5195 27.5742C56.25 26.9883 54.9723 26.4512 53.6865 25.9629C52.4007 25.4583 51.3102 24.8724 50.415 24.2051C49.5199 23.5378 49.0723 22.7565 49.0723 21.8613C49.0723 20.722 49.4954 19.8594 50.3418 19.2734C51.1882 18.6875 52.181 18.3945 53.3203 18.3945C54.5247 18.3945 55.599 18.7689 56.543 19.5176C57.487 20.2663 58.6426 21.4626 60.0098 23.1064C60.4492 23.1064 60.7666 23.0007 60.9619 22.7891C60.3597 21.0638 59.4645 19.6396 58.2764 18.5166C57.1045 17.3773 55.599 16.8076 53.7598 16.8076C51.1393 16.8076 49.2594 17.4342 48.1201 18.6875C46.9808 19.9245 46.4111 21.3079 46.4111 22.8379C46.4111 24.14 46.8424 25.2549 47.7051 26.1826C48.584 27.0941 49.6338 27.8021 50.8545 28.3066C52.0915 28.7949 53.3203 29.2832 54.541 29.7715C55.7617 30.2598 56.8034 30.8945 57.666 31.6758C58.5286 32.457 58.96 33.401 58.96 34.5078C58.96 35.4355 58.5612 36.2656 57.7637 36.998C56.9661 37.7305 55.8512 38.0967 54.4189 38.0967C52.6937 38.0967 51.359 37.5514 50.415 36.4609C49.4873 35.3542 48.7061 33.8161 48.0713 31.8467C47.5016 31.8467 47.1191 31.8955 46.9238 31.9932C46.9238 33.165 46.8669 34.5078 46.7529 36.0215C46.639 37.5352 46.5251 38.4303 46.4111 38.707C46.5251 38.8698 46.6797 39.0163 46.875 39.1465C47.5423 38.6745 48.055 38.1781 48.4131 37.6572C49.8454 38.4548 50.9603 38.9919 51.7578 39.2686C52.5716 39.5615 53.5563 39.708 54.7119 39.708ZM77.4414 19.7617H87.0361C87.264 19.127 87.264 18.541 87.0361 18.0039H77.4414V12.6572C77.0345 12.4782 76.6276 12.4782 76.2207 12.6572C75.6185 13.7803 74.9512 14.765 74.2188 15.6113C73.4863 16.4414 72.8678 17.0273 72.3633 17.3691C71.875 17.6947 71.167 18.1178 70.2393 18.6387C70.1253 18.9805 70.1253 19.3548 70.2393 19.7617H73.2178V32.5547C73.2178 37.3236 75.1872 39.708 79.126 39.708C80.8024 39.708 82.3486 39.2767 83.7646 38.4141C85.1807 37.5352 86.2386 36.4609 86.9385 35.1914C86.792 34.8333 86.5234 34.638 86.1328 34.6055C84.6029 35.9727 83.1217 36.6562 81.6895 36.6562C78.8574 36.6562 77.4414 35.3704 77.4414 32.7988V19.7617ZM85.8398 33.5557C86.8652 33.6859 87.5977 34.2474 88.0371 35.2402C87.1908 36.7865 85.9619 38.0804 84.3506 39.1221C82.7393 40.18 80.9977 40.709 79.126 40.709C74.5361 40.709 72.2412 37.9909 72.2412 32.5547V20.7383H69.2383C68.9941 19.8757 68.9941 18.9805 69.2383 18.0527C70.2311 17.4831 70.988 17.0192 71.5088 16.6611C72.0296 16.2868 72.6807 15.6846 73.4619 14.8545C74.2432 14.0244 74.9349 13.0234 75.5371 11.8516C77.0671 11.2168 78.8493 11.2493 80.8838 11.9492V17.0029H87.9883C88.5091 18.2074 88.5091 19.4525 87.9883 20.7383H80.8838V32.7988C80.8838 34.3613 81.4453 35.2809 82.5684 35.5576C83.5449 35.346 84.6354 34.6787 85.8398 33.5557ZM103.394 18.3945C104.696 18.3945 105.64 18.8177 106.226 19.6641C106.812 20.4941 107.104 21.5358 107.104 22.7891C107.104 23.2611 107.023 23.7982 106.86 24.4004H97.3389C97.8434 22.3659 98.6572 20.8604 99.7803 19.8838C100.92 18.891 102.124 18.3945 103.394 18.3945ZM97.0947 26.0605H110.4C110.661 25.2467 110.791 24.4085 110.791 23.5459C110.791 21.6416 110.246 20.0465 109.155 18.7607C108.081 17.4587 106.364 16.8076 104.004 16.8076C100.928 16.8076 98.3398 17.9225 96.2402 20.1523C94.1406 22.3822 93.0908 25.2142 93.0908 28.6484C93.0908 32.3105 94.0918 35.0693 96.0938 36.9248C98.0957 38.7803 100.448 39.708 103.149 39.708C105.151 39.708 107.007 39.1709 108.716 38.0967C110.441 37.0062 111.702 35.3704 112.5 33.1895C112.272 32.929 111.955 32.75 111.548 32.6523C111.483 32.75 111.287 33.0186 110.962 33.458C110.653 33.8812 110.425 34.1904 110.278 34.3857C110.132 34.5648 109.863 34.8333 109.473 35.1914C109.098 35.5332 108.732 35.7855 108.374 35.9482C108.032 36.111 107.593 36.2738 107.056 36.4365C106.519 36.583 105.933 36.6562 105.298 36.6562C102.791 36.6562 100.798 35.9157 99.3164 34.4346C97.8353 32.9372 97.0622 30.9271 96.9971 28.4043C96.9971 27.8346 97.0296 27.0534 97.0947 26.0605ZM111.157 31.5049C112.183 31.7327 113.013 32.2454 113.647 33.043C112.72 35.582 111.287 37.4945 109.351 38.7803C107.414 40.0661 105.347 40.709 103.149 40.709C100.155 40.709 97.5586 39.6999 95.3613 37.6816C93.1803 35.6634 92.0898 32.6523 92.0898 28.6484C92.0898 25.0189 93.2048 21.9753 95.4346 19.5176C97.6807 17.0436 100.854 15.8066 104.956 15.8066C111.157 15.8066 114.258 18.3864 114.258 23.5459C114.258 24.555 114.022 25.7269 113.55 27.0615H100.439V28.6484C100.521 30.6178 101.058 32.221 102.051 33.458C103.044 34.6787 104.411 35.3949 106.152 35.6064C107.178 35.5088 108.024 35.1589 108.691 34.5566C109.359 33.9544 110.181 32.9372 111.157 31.5049ZM106.104 22.7891C106.104 20.9987 105.501 19.9163 104.297 19.542C102.865 19.9814 101.799 21.2673 101.099 23.3994H106.055C106.055 23.3343 106.063 23.2367 106.079 23.1064C106.095 22.9762 106.104 22.8704 106.104 22.7891ZM127.539 25.2549C127.946 23.7575 128.784 22.3008 130.054 20.8848C131.323 19.4688 132.617 18.7607 133.936 18.7607C135.482 18.7607 136.255 19.2572 136.255 20.25C136.255 21.1452 135.832 21.7148 134.985 21.959C134.757 22.2845 134.757 22.667 134.985 23.1064C135.864 23.1064 136.58 22.8379 137.134 22.3008C137.703 21.7637 137.988 21.015 137.988 20.0547C137.988 19.0456 137.679 18.2562 137.061 17.6865C136.458 17.1006 135.669 16.8076 134.692 16.8076C133.423 16.8076 132.145 17.3203 130.859 18.3457C129.59 19.3548 128.483 20.486 127.539 21.7393V17.54C127.409 17.2796 127.132 17.068 126.709 16.9053C124.528 17.9307 122.005 18.598 119.141 18.9072C119.043 19.2979 119.043 19.6803 119.141 20.0547C121.338 20.1523 122.909 20.486 123.853 21.0557C123.983 27.1266 123.966 31.9932 123.804 35.6553C123.771 36.8597 122.388 37.641 119.653 37.999C119.409 38.4385 119.409 38.821 119.653 39.1465C123.918 38.9512 128.564 38.9512 133.594 39.1465C133.822 38.821 133.822 38.4385 133.594 37.999C129.736 37.641 127.791 36.8597 127.759 35.6553C127.612 32.3512 127.539 28.8844 127.539 25.2549ZM131.201 35.6064C131.234 36.2412 132.332 36.7376 134.497 37.0957C135.034 38.1699 135.002 39.2035 134.399 40.1963C127.498 39.9684 122.282 39.9196 118.75 40.0498C118.148 39.0895 118.115 38.1048 118.652 37.0957C121.387 36.7376 122.77 36.2412 122.803 35.6064C122.998 30.9678 123.014 26.3128 122.852 21.6416C121.777 21.3161 120.296 21.1045 118.408 21.0068C118.034 20.0303 118.034 18.9967 118.408 17.9062C121.126 17.7435 124.007 17.0111 127.051 15.709C128.809 15.9043 130.127 16.4333 131.006 17.2959C132.373 16.3031 133.602 15.8066 134.692 15.8066C135.962 15.8066 136.995 16.181 137.793 16.9297C138.59 17.6784 138.989 18.7201 138.989 20.0547C138.989 21.3242 138.615 22.3171 137.866 23.0332C137.118 23.7493 136.157 24.1074 134.985 24.1074C133.895 24.1074 132.983 23.7412 132.251 23.0088C131.584 23.904 131.169 24.7178 131.006 25.4502C131.006 28.9821 131.071 32.3675 131.201 35.6064ZM150.195 4.69824C153.874 4.69824 155.713 6.03288 155.713 8.70215C155.713 11.3714 153.874 12.7061 150.195 12.7061C149.642 12.7061 149.121 12.6003 148.633 12.3887C148.161 12.1771 147.746 11.8923 147.388 11.5342C147.03 11.1598 146.745 10.7285 146.533 10.2402C146.322 9.75195 146.216 9.23926 146.216 8.70215C146.216 8.16504 146.322 7.65234 146.533 7.16406C146.745 6.67578 147.03 6.2526 147.388 5.89453C147.746 5.52018 148.161 5.22721 148.633 5.01562C149.121 4.80404 149.642 4.69824 150.195 4.69824ZM147.949 6.60254C147.461 7.1722 147.217 7.87207 147.217 8.70215C147.217 9.12533 147.282 9.52409 147.412 9.89844C147.559 10.2565 147.754 10.5739 147.998 10.8506C148.242 11.111 148.519 11.3226 148.828 11.4854C149.154 11.6318 149.495 11.7051 149.854 11.7051C150.195 11.7051 150.529 11.6318 150.854 11.4854C151.18 11.3226 151.465 11.111 151.709 10.8506C151.953 10.5739 152.148 10.2565 152.295 9.89844C152.441 9.52409 152.515 9.12533 152.515 8.70215C152.515 8.27897 152.441 7.88835 152.295 7.53027C152.148 7.15592 151.953 6.83854 151.709 6.57812C151.465 6.30143 151.18 6.08984 150.854 5.94336C150.529 5.7806 150.195 5.69922 149.854 5.69922C149.512 5.69922 149.178 5.77246 148.853 5.91895C148.527 6.06543 148.226 6.29329 147.949 6.60254ZM157.812 37.877C153.939 37.5189 151.986 36.7376 151.953 35.5332C151.79 30.6504 151.725 24.6527 151.758 17.54C151.628 17.2796 151.343 17.068 150.903 16.9053C148.641 17.9632 146.289 18.6305 143.848 18.9072C143.75 19.2979 143.75 19.6803 143.848 20.0547C145.687 20.1523 147.087 20.486 148.047 21.0557C148.193 27.1266 148.177 31.9525 147.998 35.5332C147.965 36.7376 146.582 37.5189 143.848 37.877C143.685 38.2839 143.685 38.6826 143.848 39.0732C148.519 38.9756 153.174 38.9756 157.812 39.0732C157.975 38.6826 157.975 38.2839 157.812 37.877ZM158.716 36.9736C158.976 37.9827 158.976 38.9674 158.716 39.9277C153.475 39.765 148.226 39.765 142.969 39.9277C142.692 38.9674 142.692 37.9827 142.969 36.9736C145.622 36.7132 146.965 36.2168 146.997 35.4844C147.209 30.9271 147.225 26.3128 147.046 21.6416C145.955 21.3161 144.596 21.1045 142.969 21.0068C142.594 20.0303 142.594 18.9967 142.969 17.9062C145.426 17.776 148.193 17.0436 151.27 15.709C153.027 15.8392 154.338 16.3682 155.2 17.2959C155.135 25.3037 155.2 31.3665 155.396 35.4844C155.444 36.2168 156.551 36.7132 158.716 36.9736ZM186.133 37.999C184.229 37.6735 182.869 37.3154 182.056 36.9248C181.242 36.5342 180.485 35.7936 179.785 34.7031L174.927 27.9404L180.469 20.8604C181.706 19.249 183.228 18.4108 185.034 18.3457C185.164 17.9876 185.164 17.6051 185.034 17.1982C182.121 17.361 179.199 17.361 176.27 17.1982C176.139 17.5726 176.139 17.9551 176.27 18.3457C176.839 18.3783 177.319 18.4759 177.71 18.6387C178.117 18.7852 178.418 19.0293 178.613 19.3711C178.825 19.6966 178.695 20.1361 178.223 20.6895L173.877 26.5488L169.775 20.8604C169.173 19.9814 169.214 19.3711 169.897 19.0293C170.581 18.6712 171.688 18.4434 173.218 18.3457C173.25 18.248 173.267 18.0527 173.267 17.7598C173.267 17.4505 173.25 17.2471 173.218 17.1494C169.523 17.3447 165.576 17.3447 161.377 17.1494C161.279 17.5563 161.279 17.9551 161.377 18.3457C161.979 18.4434 162.435 18.541 162.744 18.6387C163.07 18.7201 163.501 18.9479 164.038 19.3223C164.591 19.6803 165.104 20.193 165.576 20.8604L171.167 28.5996L165.479 35.6553C164.274 37.1527 162.777 37.9339 160.986 37.999C160.872 38.3734 160.872 38.7559 160.986 39.1465C163.916 38.9837 166.829 38.9837 169.727 39.1465C169.824 38.7559 169.824 38.3734 169.727 37.999C169.157 37.9665 168.669 37.877 168.262 37.7305C167.871 37.584 167.57 37.348 167.358 37.0225C167.163 36.6807 167.301 36.2249 167.773 35.6553L172.217 30.04L175.732 34.8496C176.497 35.9238 176.717 36.6969 176.392 37.1689C176.082 37.6247 175.212 37.9014 173.779 37.999C173.682 38.3734 173.682 38.7721 173.779 39.1953C177.848 38.9674 181.966 38.9674 186.133 39.1953C186.328 38.8047 186.328 38.4059 186.133 37.999ZM186.914 37.0957C187.419 38.1374 187.402 39.1221 186.865 40.0498C182.275 39.8545 177.661 39.8545 173.022 40.0498C172.664 39.0244 172.648 38.0397 172.974 37.0957C174.048 36.998 174.715 36.8434 174.976 36.6318C175.236 36.404 175.187 35.9971 174.829 35.4111L172.119 31.7979L169.019 35.7041C168.791 35.9645 168.669 36.1924 168.652 36.3877C168.636 36.5667 168.726 36.6969 168.921 36.7783C169.116 36.8597 169.312 36.9248 169.507 36.9736C169.718 37.0225 170.06 37.0632 170.532 37.0957C170.858 38.0397 170.841 39.0244 170.483 40.0498C167.082 39.887 163.664 39.887 160.229 40.0498C159.888 39.0895 159.888 38.1048 160.229 37.0957C162.134 37.0306 163.615 36.3307 164.673 34.9961L169.873 28.5508L165.43 22.2031C164.795 21.3405 164.168 20.7301 163.55 20.3721C162.931 19.9977 161.938 19.6234 160.571 19.249C160.246 18.2887 160.262 17.304 160.62 16.2949C165.129 16.4902 169.58 16.4902 173.975 16.2949C174.349 17.3366 174.365 18.3213 174.023 19.249C173.421 19.3467 173.088 19.5257 173.022 19.7861C172.957 20.0303 173.071 20.3477 173.364 20.7383L175.122 23.2041L177.026 20.6895C177.401 20.2337 177.474 19.9082 177.246 19.7129C177.035 19.5013 176.44 19.3467 175.464 19.249C175.171 18.2562 175.195 17.2715 175.537 16.2949C178.955 16.4577 182.365 16.4577 185.767 16.2949C186.141 17.2715 186.141 18.2562 185.767 19.249C184.578 19.2816 183.659 19.4932 183.008 19.8838C182.357 20.2581 181.746 20.8115 181.177 21.5439L177.417 26.3535L183.081 34.1416C184.139 35.5739 185.417 36.5586 186.914 37.0957ZM205.493 37.877C205.298 38.2513 205.298 38.6501 205.493 39.0732C209.725 38.9756 213.957 38.9756 218.188 39.0732C218.433 38.6826 218.433 38.2839 218.188 37.877C214.233 37.6816 212.24 36.9004 212.207 35.5332L211.938 23.2529C211.873 21.0231 211.515 19.3955 210.864 18.3701C210.213 17.3285 209.09 16.8076 207.495 16.8076C204.793 16.8076 201.579 18.6712 197.852 22.3984V2.45215C197.721 2.19173 197.437 1.97201 196.997 1.79297C194.735 2.86719 192.383 3.53451 189.941 3.79492C189.844 4.20182 189.844 4.58431 189.941 4.94238C191.813 5.04004 193.197 5.3737 194.092 5.94336V35.5332C194.059 36.7376 192.66 37.5189 189.893 37.877C189.697 38.2513 189.697 38.6501 189.893 39.0732C194.157 38.9105 198.405 38.9105 202.637 39.0732C202.848 38.6501 202.848 38.2513 202.637 37.877C199.609 37.5514 198.079 36.7702 198.047 35.5332C197.917 32.0664 197.852 28.209 197.852 23.9609C201.107 21.0801 203.67 19.6396 205.542 19.6396C207.316 19.6396 208.203 21.1126 208.203 24.0586L208.154 35.5332C208.154 36.3307 207.91 36.8923 207.422 37.2178C206.934 37.527 206.291 37.7467 205.493 37.877ZM204.688 39.9277C204.297 38.9674 204.297 37.9827 204.688 36.9736C205.225 36.9736 205.77 36.8353 206.323 36.5586C206.877 36.2656 207.153 35.9238 207.153 35.5332L207.202 24.0586C207.202 22.2845 206.852 21.2021 206.152 20.8115C204.948 21.1045 203.328 21.9834 201.294 23.4482C201.294 27.8428 201.359 31.8548 201.489 35.4844C201.554 36.347 202.205 36.8434 203.442 36.9736C203.849 37.9827 203.849 38.9674 203.442 39.9277C198.674 39.765 193.872 39.765 189.038 39.9277C188.647 38.9674 188.647 37.9827 189.038 36.9736C191.707 36.6156 193.058 36.1191 193.091 35.4844V6.55371C192 6.21191 190.649 5.99219 189.038 5.89453C188.68 4.93424 188.68 3.90072 189.038 2.79395C191.512 2.66374 194.279 1.93132 197.339 0.59668C199.113 0.726888 200.431 1.264 201.294 2.20801V18.1016C203.589 16.5716 206.242 15.8066 209.253 15.8066C211.45 15.8066 213.013 16.4089 213.94 17.6133C214.884 18.8014 215.373 20.6813 215.405 23.2529C215.47 29.6331 215.552 33.7266 215.649 35.5332C215.682 36.2005 216.829 36.6807 219.092 36.9736C219.466 38.0479 219.434 39.0326 218.994 39.9277C214.225 39.8301 209.456 39.8301 204.688 39.9277Z" fill="url(#paint0_linear_11_1414)"/>
<defs>
<linearGradient id="paint0_linear_11_1414" x1="0" y1="21" x2="220" y2="21" gradientUnits="userSpaceOnUse">
<stop stop-color="#700455"/>
<stop offset="0.47" stop-color="#CFCDCF"/>
<stop offset="1" stop-color="#3C0577"/>
</linearGradient>
</defs>
</svg>
