<svg width="525" height="328" viewBox="0 0 525 328" fill="none" xmlns="http://www.w3.org/2000/svg">
<path opacity="0.1" d="M482.07 154.46C465.493 95.7717 377.628 97.8699 328.755 81.717C260.749 55.7372 198.793 -5.5235 122.67 0.856808C-22.0805 12.9915 -22.5427 187.109 38.2615 247.914C142.606 352.258 299.152 317.94 421.052 257.208C487.019 224.341 485.713 176.621 482.07 154.46Z" fill="white"/>
<path opacity="0.1" d="M482.07 154.46C465.493 95.7717 377.628 97.8699 328.755 81.717C260.749 55.7372 198.793 -5.5235 122.67 0.856808C-22.0805 12.9915 -22.5427 187.109 38.2615 247.914C142.606 352.258 299.152 317.94 421.052 257.208C487.019 224.341 485.713 176.621 482.07 154.46Z" fill="#C69BBB"/>
<path d="M89.809 282.105L385.532 282.105C392.794 282.105 398.682 276.218 398.682 268.956V52.4415C398.682 45.1794 392.794 39.2922 385.532 39.2922L89.809 39.2922C82.5468 39.2922 76.6597 45.1794 76.6597 52.4415V268.956C76.6597 276.218 82.5468 282.105 89.809 282.105Z" fill="#F4F4F4"/>
<path d="M76.2207 268.958V52.441C76.2255 48.839 77.6587 45.386 80.2059 42.8393C82.7532 40.2926 86.2066 38.8602 89.8086 38.8562H385.532C389.134 38.8602 392.588 40.2929 395.135 42.8402C397.683 45.3875 399.116 48.8412 399.12 52.4436V268.958C399.116 272.561 397.683 276.014 395.135 278.562C392.588 281.109 389.134 282.542 385.532 282.546H89.8086C86.2061 282.542 82.7523 281.109 80.205 278.562C77.6577 276.014 76.2248 272.561 76.2207 268.958ZM89.8086 39.7292C86.4386 39.733 83.2078 41.0734 80.8249 43.4563C78.442 45.8392 77.1016 49.07 77.0978 52.44V268.958C77.1014 272.328 78.4418 275.559 80.8247 277.942C83.2076 280.325 86.4385 281.666 89.8086 281.669H385.532C388.902 281.666 392.133 280.325 394.516 277.942C396.899 275.559 398.24 272.328 398.243 268.958V52.441C398.24 49.0708 396.899 45.8396 394.516 43.4565C392.133 41.0733 388.902 39.7329 385.532 39.7292H89.8086Z" fill="#292A2E"/>
<path d="M76.6602 52.4395V65.671H398.68V52.4395C398.68 48.9521 397.294 45.6076 394.828 43.1417C392.363 40.6757 389.018 39.2903 385.531 39.2901H89.8095C86.3221 39.2901 82.9775 40.6755 80.5115 43.1415C78.0455 45.6075 76.6602 48.952 76.6602 52.4395Z" fill="#2A222B"/>
<path d="M253.063 147.997C246.782 149.368 241.226 144.086 238.397 139.041C235.068 133.104 233.697 126.18 229.529 120.695C225.788 115.863 220.341 112.642 214.304 111.693C211.563 111.212 208.754 111.272 206.037 111.871C204.773 112.185 203.539 112.608 202.348 113.134C197.193 115.383 193.028 119.442 189.792 123.966C185.965 129.315 183.322 135.487 181.509 141.787C179.464 149.028 178.42 156.514 178.406 164.038C178.349 172.02 179.418 179.97 181.58 187.654C183.816 195.653 187.381 203.219 192.128 210.035C197.205 217.238 203.62 223.395 211.025 228.172C215.126 230.808 219.476 233.035 224.012 234.821C229.442 236.884 235.177 238.027 240.982 238.204C253.666 238.753 266.543 235.796 278.018 230.463C280.848 229.149 283.597 227.666 286.25 226.023C287.091 225.502 286.318 224.169 285.472 224.693C274.602 231.399 262.301 235.442 249.571 236.491C243.611 237.03 237.604 236.704 231.737 235.521C226.717 234.376 221.877 232.545 217.355 230.082C209.481 225.973 202.487 220.363 196.768 213.568C191.547 207.268 187.47 200.102 184.722 192.394C182.057 184.943 180.492 177.143 180.075 169.24C179.645 161.762 180.226 154.259 181.8 146.935C183.151 140.377 185.529 134.072 188.847 128.256C191.664 123.458 195.363 118.99 200.082 116.066C202.171 114.722 204.486 113.767 206.915 113.249C212.726 112.068 219.096 113.847 223.842 117.265C226.288 119.054 228.336 121.33 229.856 123.951C231.582 126.87 232.778 130.052 234.041 133.187C235.265 136.228 236.531 139.313 238.449 141.994C240.211 144.564 242.541 146.694 245.259 148.217C247.758 149.608 250.673 150.057 253.475 149.484C254.443 149.273 254.033 147.789 253.064 147.999L253.063 147.997Z" fill="#C69BBB"/>
<path d="M405.743 202.408C405.861 202.392 407.168 224.073 432.354 222.182C449.79 220.877 456.007 202.377 456.407 202.377C454.527 201.977 451.361 201.397 450.526 200.951C447.78 199.476 444.383 197.941 443.498 192.609C442.988 189.536 443.854 173.815 443.587 170.705L416.823 176.681C417.196 183.248 419.814 198.471 410.64 201.166C409.113 201.609 407.469 202.019 405.743 202.408Z" fill="#E98862"/>
<path opacity="0.52" d="M416.447 194.942C416.867 193.591 417.137 192.198 417.252 190.788C417.547 187.571 417.488 184.331 417.077 181.127C422.517 180.393 427.642 178.147 431.87 174.646C432.367 176.481 435.1 184.501 434.343 186.245C432.913 189.543 426.191 194.942 416.447 194.942Z" fill="#0C0C0C"/>
<path d="M407.279 147.733C407.279 147.733 400.945 140.561 401.739 127.179C402.352 116.819 410.312 125.232 410.312 125.232C410.312 125.232 410.825 117.777 415.966 119.574C421.108 121.37 422.518 129.599 422.518 129.599" fill="#0C0C0C"/>
<path d="M443.132 125.99C443.132 125.99 468.801 134.147 452.075 167.775L449.722 167.458L444.946 166.815" fill="#0C0C0C"/>
<path d="M420.226 187.97C430.762 189.151 444.477 185.132 447.515 171.123L450.256 158.484C453.294 144.475 448.399 131.525 435.21 128.663C422.021 125.803 409.699 135.02 406.659 149.029L405.446 154.626C405.063 156.555 404.811 158.507 404.694 160.47C404.345 165.656 403.833 173.543 406.202 179.432C408.442 184.989 413.495 187.217 420.226 187.97Z" fill="#E98862"/>
<path d="M410.361 155.488C411.282 155.488 412.029 154.741 412.029 153.82C412.029 152.899 411.282 152.152 410.361 152.152C409.44 152.152 408.693 152.899 408.693 153.82C408.693 154.741 409.44 155.488 410.361 155.488Z" fill="#0C0C0C"/>
<path d="M426.26 158.042C427.181 158.042 427.928 157.295 427.928 156.374C427.928 155.453 427.181 154.706 426.26 154.706C425.339 154.706 424.592 155.453 424.592 156.374C424.592 157.295 425.339 158.042 426.26 158.042Z" fill="#0C0C0C"/>
<path opacity="0.5" d="M419.711 175.007C417.53 174.826 415.423 174.135 413.558 172.99C413.518 172.968 413.482 172.938 413.453 172.902C413.425 172.866 413.404 172.825 413.391 172.781C413.379 172.736 413.376 172.69 413.382 172.645C413.388 172.599 413.403 172.555 413.426 172.516C413.449 172.476 413.48 172.442 413.517 172.414C413.554 172.387 413.596 172.367 413.64 172.357C413.685 172.346 413.731 172.344 413.777 172.352C413.822 172.359 413.865 172.376 413.904 172.4C417.934 174.768 421.841 175.001 425.201 173.073C425.269 173.032 425.339 172.995 425.411 172.961C425.494 172.93 425.586 172.932 425.667 172.968C425.748 173.003 425.813 173.069 425.847 173.151C425.88 173.232 425.881 173.324 425.849 173.407C425.816 173.489 425.753 173.556 425.672 173.592C425.646 173.605 425.602 173.631 425.542 173.666C423.775 174.683 421.745 175.15 419.711 175.007Z" fill="#0C0C0C"/>
<path opacity="0.52" d="M419.399 178.233C419.004 178.207 418.612 178.147 418.227 178.054C418.139 178.033 418.063 177.978 418.015 177.9C417.968 177.823 417.953 177.73 417.974 177.642C417.995 177.554 418.05 177.478 418.128 177.43C418.205 177.383 418.298 177.368 418.386 177.389C420.701 177.941 421.959 177.01 422.012 176.97C422.084 176.914 422.175 176.89 422.265 176.901C422.354 176.913 422.436 176.959 422.491 177.031C422.547 177.103 422.572 177.194 422.56 177.283C422.549 177.373 422.502 177.455 422.43 177.51C421.533 178.094 420.462 178.35 419.399 178.233Z" fill="#0C0C0C"/>
<path d="M445.77 175.214C449.779 176.083 453.958 172.5 454.828 168.491C455.697 164.483 452.928 161.568 448.918 160.698L446.271 162.936L442.324 174.466L445.77 175.214Z" fill="#E98862"/>
<path d="M443.087 167.942C443.087 167.942 445.776 147.792 439.999 145.338C436.153 143.704 425.262 147.415 416.596 143.86C412.805 142.306 408.862 142.519 408.102 144.305C407.801 145.012 407.502 133.911 415.316 127.124C421.537 121.72 437.998 123.188 444.891 126.778C463.979 136.721 449.569 161.743 449.569 161.743L447.27 168.41L443.087 167.942Z" fill="#0C0C0C"/>
<g opacity="0.52">
<path d="M416.255 169.275C416.245 169.275 416.237 169.275 416.229 169.27C414.936 168.993 412.799 168.385 413.005 167.418C413.178 166.617 417.221 158.439 417.683 157.507C417.701 157.466 417.728 157.429 417.761 157.399C417.795 157.368 417.834 157.344 417.876 157.329C417.919 157.314 417.964 157.308 418.009 157.31C418.054 157.313 418.098 157.325 418.139 157.345C418.179 157.365 418.215 157.393 418.245 157.427C418.274 157.461 418.297 157.501 418.31 157.544C418.324 157.587 418.329 157.633 418.325 157.678C418.321 157.723 418.307 157.766 418.286 157.806C416.492 161.427 413.781 167.012 413.664 167.557C413.743 167.813 415.032 168.323 416.37 168.609C416.454 168.629 416.528 168.679 416.575 168.751C416.623 168.823 416.642 168.91 416.627 168.995C416.612 169.08 416.566 169.156 416.497 169.208C416.427 169.259 416.341 169.282 416.256 169.272L416.255 169.275Z" fill="#0C0C0C"/>
</g>
<path d="M416.042 148.79C414.774 148.143 413.355 147.85 411.934 147.943C411.236 147.984 410.548 148.129 409.893 148.374C409.245 148.614 408.631 148.935 408.063 149.328C407.97 149.389 407.904 149.483 407.88 149.592C407.855 149.7 407.874 149.814 407.932 149.909C407.989 150.003 408.082 150.072 408.189 150.1C408.297 150.128 408.411 150.112 408.508 150.057L408.537 150.041C409.058 149.721 409.616 149.468 410.2 149.287C410.775 149.106 411.374 149.013 411.977 149.012C413.169 149 414.343 149.302 415.38 149.89L415.419 149.913C415.566 149.999 415.741 150.024 415.906 149.982C416.071 149.94 416.212 149.834 416.299 149.687C416.386 149.541 416.411 149.366 416.369 149.2C416.326 149.035 416.22 148.894 416.074 148.807L416.042 148.79Z" fill="#0C0C0C"/>
<path d="M425.534 151.398C426.69 151.106 427.902 151.125 429.048 151.453C429.629 151.614 430.182 151.863 430.689 152.19C431.204 152.518 431.675 152.91 432.092 153.356L432.115 153.379C432.194 153.457 432.3 153.501 432.41 153.502C432.521 153.503 432.628 153.462 432.708 153.386C432.789 153.311 432.837 153.207 432.843 153.097C432.848 152.986 432.811 152.878 432.739 152.794C432.296 152.265 431.787 151.793 431.226 151.39C430.659 150.98 430.035 150.658 429.372 150.433C428.027 149.969 426.581 149.875 425.187 150.162C425.023 150.201 424.881 150.302 424.791 150.444C424.701 150.586 424.67 150.758 424.706 150.922C424.741 151.086 424.839 151.231 424.979 151.323C425.12 151.416 425.291 151.45 425.456 151.418L425.488 151.411L425.534 151.398Z" fill="#0C0C0C"/>
<path d="M429.237 130.053C431.044 125.861 430.199 121.468 427.351 120.241C424.503 119.013 420.73 121.417 418.924 125.609C417.117 129.801 417.962 134.194 420.81 135.421C423.658 136.648 427.431 134.245 429.237 130.053Z" fill="#0C0C0C"/>
<path d="M432.854 216.777C450.361 215.952 451.098 201.092 451.098 201.092C451.098 201.092 459.772 201.653 465.538 202.433C474.979 203.711 481.206 206.912 486.162 211.868C490.773 216.478 493.579 221.466 490.609 253.313C488.459 276.37 489.973 327.093 489.973 327.093H384.318C384.318 327.093 377.983 260.612 377.099 250.232C375.414 230.416 374.046 213.153 378.159 209.04C386.617 200.582 403.218 201.092 410.488 201.094C410.607 201.094 409.014 217.9 432.854 216.777Z" fill="#C69BBB"/>
<path d="M403.909 288.379L388.54 279.827C388.202 279.64 387.829 279.524 387.444 279.488C387.059 279.453 386.671 279.497 386.305 279.62C385.938 279.742 385.601 279.94 385.315 280.2C385.029 280.459 384.8 280.776 384.643 281.129C384.374 281.79 384.359 282.528 384.602 283.199C384.845 283.87 385.329 284.427 385.959 284.761L389.255 286.594L376.245 285.585C374.8 285.448 372.94 286.202 372.893 287.834C372.834 288.46 372.988 289.088 373.332 289.615C373.675 290.142 374.187 290.537 374.784 290.735C374.779 290.749 374.776 290.762 374.774 290.776C374.775 290.787 374.776 290.798 374.778 290.808L372.55 290.596C372.138 290.557 371.722 290.611 371.333 290.753C370.943 290.896 370.591 291.123 370.301 291.419C370.01 291.714 369.79 292.071 369.655 292.463C369.52 292.855 369.474 293.272 369.521 293.683C369.607 294.331 369.913 294.929 370.387 295.377C370.862 295.826 371.476 296.098 372.127 296.148L373.075 296.239C373.085 296.267 373.1 296.294 373.119 296.317C372.464 296.404 371.862 296.722 371.42 297.213C370.978 297.703 370.725 298.335 370.706 298.996C370.706 299.719 370.98 300.415 371.471 300.945C371.962 301.475 372.636 301.801 373.356 301.856L375.711 302.08C375.675 302.101 375.645 302.129 375.623 302.163C375.6 302.198 375.587 302.237 375.583 302.277C375.58 302.326 375.591 302.374 375.616 302.416C375.055 302.656 374.588 303.074 374.287 303.605C373.986 304.136 373.869 304.752 373.952 305.356C374.052 305.99 374.363 306.571 374.835 307.005C375.306 307.44 375.911 307.703 376.55 307.751L396.415 309.641C399.194 309.905 401.989 309.333 404.441 307.998C406.893 306.664 408.89 304.628 410.177 302.151C411.287 300.015 411.521 297.531 410.828 295.225C410.135 292.92 408.571 290.976 406.467 289.805L403.909 288.379Z" fill="#E98862"/>
<g opacity="0.2">
<path d="M387.656 291.798C387.649 291.865 387.616 291.927 387.565 291.97C387.513 292.013 387.447 292.034 387.38 292.028L375.009 291.053C374.975 291.05 374.942 291.041 374.912 291.025C374.882 291.01 374.855 290.989 374.833 290.963C374.811 290.937 374.795 290.908 374.784 290.875C374.774 290.843 374.77 290.809 374.772 290.776C374.775 290.742 374.784 290.709 374.8 290.679C374.815 290.649 374.836 290.622 374.862 290.6C374.888 290.578 374.917 290.561 374.95 290.551C374.982 290.541 375.016 290.537 375.049 290.539L387.421 291.515C387.454 291.518 387.487 291.527 387.517 291.542C387.547 291.557 387.574 291.579 387.596 291.604C387.618 291.63 387.634 291.66 387.645 291.692C387.655 291.724 387.659 291.758 387.656 291.791L387.656 291.798Z" fill="#0C0C0C"/>
<path d="M387.376 297.267C387.37 297.333 387.337 297.395 387.285 297.438C387.234 297.48 387.168 297.502 387.101 297.496L373.294 296.408C373.26 296.405 373.228 296.396 373.198 296.38C373.168 296.365 373.141 296.344 373.119 296.318C373.097 296.293 373.081 296.263 373.07 296.231C373.06 296.199 373.056 296.165 373.058 296.131C373.066 296.064 373.098 296.003 373.15 295.959C373.201 295.915 373.267 295.892 373.335 295.896L387.141 296.984C387.175 296.987 387.208 296.996 387.238 297.011C387.268 297.027 387.294 297.048 387.316 297.074C387.338 297.099 387.355 297.129 387.365 297.161C387.376 297.193 387.38 297.227 387.377 297.261L387.376 297.267Z" fill="#0C0C0C"/>
<path d="M387.107 303.19C387.1 303.257 387.068 303.319 387.016 303.362C386.965 303.405 386.898 303.426 386.831 303.421L375.818 302.552C375.75 302.547 375.687 302.515 375.643 302.463C375.598 302.411 375.576 302.343 375.582 302.275C375.587 302.207 375.619 302.144 375.671 302.1C375.723 302.055 375.791 302.033 375.859 302.039L386.872 302.907C386.906 302.91 386.938 302.919 386.968 302.934C386.999 302.95 387.025 302.971 387.047 302.996C387.069 303.022 387.086 303.052 387.096 303.084C387.106 303.116 387.11 303.15 387.108 303.183L387.107 303.19Z" fill="#0C0C0C"/>
</g>
<path d="M395.182 315.953L491.124 326.723C494.082 327.045 497.074 326.677 499.866 325.649C502.657 324.62 505.173 322.958 507.215 320.794C509.256 318.63 510.769 316.022 511.633 313.175C512.498 310.328 512.691 307.32 512.197 304.386L491.738 222.43C491.319 219.937 490.412 217.55 489.07 215.407C487.728 213.263 485.977 211.405 483.917 209.938C479.757 206.976 474.59 205.788 469.554 206.635C464.517 207.483 460.024 210.296 457.062 214.456C454.1 218.617 452.911 223.784 453.759 228.82L469.449 288.507L399.734 281.55L395.182 315.953Z" fill="#C69BBB"/>
<path d="M481.955 290.298C482.023 290.303 482.09 290.281 482.142 290.237C482.194 290.192 482.225 290.129 482.231 290.061C482.236 289.993 482.213 289.925 482.169 289.874C482.124 289.822 482.061 289.79 481.993 289.785L470.034 287.994C470.001 287.989 469.967 287.99 469.934 287.998C469.901 288.006 469.87 288.02 469.843 288.041C469.815 288.061 469.793 288.086 469.775 288.115C469.758 288.144 469.747 288.176 469.742 288.21C469.732 288.277 469.749 288.346 469.79 288.4C469.83 288.455 469.89 288.491 469.958 288.502L481.917 290.293C481.929 290.296 481.942 290.298 481.955 290.298Z" fill="#0C0C0C"/>
<path d="M488.453 327.093C488.521 327.098 488.588 327.075 488.639 327.03C488.691 326.985 488.722 326.921 488.726 326.853C488.73 326.785 488.708 326.718 488.663 326.666C488.617 326.615 488.554 326.584 488.486 326.58L395.719 315.758L400.216 281.867L469.449 288.505C469.489 288.51 469.529 288.506 469.567 288.493C469.605 288.48 469.639 288.458 469.667 288.429C469.695 288.4 469.716 288.365 469.728 288.327C469.74 288.288 469.743 288.248 469.736 288.208L462.244 253.32C462.239 253.286 462.227 253.254 462.21 253.225C462.192 253.197 462.168 253.172 462.141 253.152C462.113 253.132 462.082 253.118 462.049 253.111C462.016 253.104 461.982 253.103 461.948 253.109C461.881 253.121 461.821 253.158 461.782 253.214C461.742 253.269 461.726 253.338 461.738 253.405L469.172 287.95L400.021 281.322C399.987 281.318 399.952 281.32 399.919 281.329C399.886 281.338 399.855 281.354 399.828 281.375C399.801 281.396 399.779 281.423 399.762 281.453C399.745 281.483 399.735 281.516 399.731 281.55L395.179 315.955C395.172 316.021 395.191 316.088 395.233 316.141C395.274 316.194 395.335 316.228 395.401 316.237L488.417 327.093C488.429 327.094 488.441 327.094 488.453 327.093Z" fill="#0C0C0C"/>
<path d="M291.244 150.116C291.124 149.757 290.932 149.427 290.68 149.145C290.428 148.863 290.122 148.635 289.779 148.476C289.436 148.316 289.065 148.228 288.687 148.217C288.309 148.205 287.933 148.271 287.581 148.41C286.91 148.702 286.375 149.239 286.084 149.911C285.793 150.583 285.768 151.34 286.015 152.029L287.206 155.594L278.284 146.071C277.308 144.993 275.427 144.297 274.292 145.469C273.827 145.891 273.518 146.459 273.416 147.079C273.315 147.699 273.426 148.336 273.733 148.885C273.72 148.892 273.707 148.9 273.696 148.91C273.689 148.918 273.683 148.927 273.677 148.936L273.628 148.88C273.352 148.574 273.011 148.334 272.63 148.176C272.249 148.019 271.838 147.947 271.426 147.967C271.015 147.988 270.613 148.099 270.249 148.294C269.886 148.488 269.57 148.761 269.325 149.092C268.945 149.628 268.761 150.279 268.806 150.935C268.851 151.591 269.121 152.211 269.571 152.69L270.061 153.249C270.049 153.277 270.042 153.308 270.04 153.339C269.512 152.989 268.874 152.844 268.246 152.93C267.617 153.017 267.042 153.329 266.628 153.809C266.13 154.346 265.855 155.052 265.858 155.784C265.861 156.516 266.142 157.22 266.645 157.752C266.567 157.736 266.6 157.885 266.535 157.944C266.5 157.978 266.476 158.021 266.466 158.069C265.905 157.873 265.297 157.861 264.729 158.036C264.161 158.21 263.664 158.561 263.31 159.039C262.93 159.575 262.747 160.226 262.792 160.881C262.836 161.537 263.106 162.157 263.556 162.637L276.944 177.434C278.817 179.505 281.265 180.968 283.976 181.638C286.686 182.307 289.534 182.152 292.156 181.192L300.596 178.102L291.244 150.116Z" fill="#E98862"/>
<path opacity="0.2" d="M267.487 167.117C267.982 167.645 268.654 167.974 269.375 168.041C269.467 168.051 269.561 168.055 269.656 168.055C270.114 168.061 270.568 167.959 270.98 167.758C271.392 167.556 271.751 167.261 272.027 166.896C272.304 166.53 272.491 166.105 272.573 165.653C272.656 165.202 272.631 164.738 272.501 164.298C272.92 164.583 273.403 164.758 273.906 164.808C274.002 164.817 274.099 164.821 274.197 164.822C274.674 164.828 275.146 164.72 275.574 164.508C276.002 164.296 276.373 163.985 276.658 163.601C276.942 163.217 277.131 162.772 277.209 162.301C277.288 161.829 277.253 161.346 277.108 160.891C277.507 161.144 277.958 161.3 278.427 161.348C278.523 161.357 278.62 161.362 278.718 161.362C279.137 161.364 279.553 161.281 279.938 161.116C280.324 160.951 280.672 160.709 280.96 160.404C281.495 159.799 281.783 159.014 281.764 158.206C281.746 157.398 281.423 156.627 280.861 156.047L274.926 149.658C274.903 149.632 274.875 149.612 274.844 149.597C274.813 149.582 274.78 149.574 274.746 149.572C274.712 149.571 274.678 149.576 274.646 149.588C274.614 149.6 274.584 149.618 274.559 149.641C274.534 149.664 274.514 149.692 274.5 149.723C274.486 149.755 274.478 149.788 274.477 149.822C274.476 149.856 274.482 149.89 274.495 149.922C274.507 149.954 274.526 149.983 274.55 150.008L280.486 156.399C280.96 156.882 281.234 157.527 281.253 158.204C281.272 158.881 281.034 159.541 280.588 160.05C280.348 160.303 280.058 160.504 279.737 160.642C279.416 160.779 279.07 160.849 278.721 160.849C278.372 160.848 278.026 160.776 277.706 160.638C277.385 160.499 277.096 160.296 276.857 160.043C276.813 159.996 276.477 159.654 276.343 159.512L270.559 153.188C270.514 153.137 270.45 153.106 270.382 153.102C270.314 153.098 270.248 153.121 270.197 153.167C270.146 153.212 270.115 153.276 270.111 153.344C270.107 153.412 270.13 153.478 270.176 153.529L275.965 159.859C276.439 160.342 276.713 160.987 276.732 161.664C276.751 162.341 276.514 163.001 276.068 163.51C275.827 163.763 275.538 163.964 275.217 164.101C274.896 164.239 274.551 164.309 274.202 164.309C273.853 164.308 273.508 164.237 273.187 164.099C272.867 163.96 272.578 163.758 272.338 163.505L266.967 157.808C266.921 157.76 266.858 157.732 266.791 157.73C266.724 157.727 266.659 157.751 266.61 157.796C266.56 157.841 266.53 157.904 266.526 157.97C266.522 158.037 266.544 158.103 266.587 158.153L271.363 163.248C271.82 163.715 272.085 164.337 272.103 164.991C272.121 165.644 271.892 166.28 271.462 166.772C271.23 167.016 270.951 167.21 270.641 167.342C270.332 167.475 269.998 167.543 269.662 167.542C269.325 167.542 268.992 167.473 268.683 167.34C268.374 167.207 268.095 167.012 267.864 166.767L267.487 167.117Z" fill="#0C0C0C"/>
<path d="M278.695 151.95C278.095 151.95 277.518 151.717 277.087 151.299C275.481 149.744 273.59 148.158 273.039 147.906C270.725 146.871 267.218 146.36 266.062 146.25C265.757 146.225 265.46 146.14 265.188 145.999C264.917 145.858 264.675 145.665 264.479 145.431C264.282 145.196 264.134 144.925 264.044 144.633C263.953 144.34 263.921 144.033 263.95 143.728C263.979 143.424 264.068 143.128 264.212 142.858C264.356 142.588 264.552 142.35 264.79 142.156C265.027 141.963 265.3 141.818 265.593 141.731C265.887 141.644 266.194 141.616 266.499 141.649C266.699 141.668 271.451 142.133 274.927 143.688C276.56 144.419 279.455 147.158 280.303 147.98C280.633 148.3 280.861 148.712 280.956 149.162C281.051 149.612 281.009 150.08 280.836 150.507C280.664 150.933 280.368 151.298 279.986 151.555C279.604 151.812 279.155 151.95 278.695 151.95Z" fill="#E98862"/>
<path d="M252.597 151.639L253.32 144.896L304.147 149.676L303.423 156.419L252.597 151.639Z" fill="#C69BBB"/>
<path opacity="0.5" d="M252.597 151.639L253.32 144.896L304.147 149.676L303.423 156.419L252.597 151.639Z" fill="white"/>
<path d="M309.014 157.003L309.737 150.26L304.147 149.676L303.423 156.419L309.014 157.003Z" fill="#262626"/>
<path d="M252.597 151.639C252.597 151.639 250.916 150.453 249.413 149.387C248.222 148.542 247.144 147.771 247.106 147.726C247.954 147.257 248.828 146.839 249.725 146.475C251.42 145.717 253.32 144.896 253.32 144.896L252.597 151.639Z" fill="#C69BBB"/>
<path opacity="0.9" d="M252.597 151.639C252.597 151.639 250.916 150.453 249.413 149.387C248.222 148.542 247.144 147.771 247.106 147.726C247.954 147.257 248.828 146.839 249.725 146.475C251.42 145.717 253.32 144.896 253.32 144.896L252.597 151.639Z" fill="white"/>
<path d="M249.415 149.387C248.224 148.542 247.146 147.771 247.108 147.726C247.955 147.257 248.83 146.839 249.727 146.475L249.415 149.387Z" fill="#262626"/>
<path d="M252.837 149.54L303.652 154.199L303.62 154.506L252.805 149.848L252.837 149.54Z" fill="white"/>
<path d="M253.119 146.902L303.934 151.56L303.902 151.869L253.087 147.21L253.119 146.902Z" fill="white"/>
<path d="M287.595 156.919L286.014 152.029C285.768 151.34 285.793 150.583 286.083 149.911C286.374 149.239 286.909 148.703 287.581 148.41C287.932 148.271 288.308 148.205 288.686 148.217C289.064 148.228 289.436 148.316 289.778 148.476C290.121 148.635 290.428 148.863 290.68 149.145C290.931 149.427 291.123 149.757 291.243 150.116L294.005 158.383" fill="#E98862"/>
<path d="M323.537 261.426C320.066 261.425 316.66 260.487 313.679 258.709C310.698 256.932 308.252 254.382 306.6 251.329L268.293 178.097L300.113 160.799L333.117 219.405L389.634 202.953L398.681 240.861L328.827 260.682C327.107 261.175 325.326 261.425 323.537 261.426Z" fill="#C69BBB"/>
<path d="M376.824 247.23C376.761 247.23 376.7 247.207 376.652 247.165C376.605 247.124 376.575 247.066 376.567 247.003L375.03 233.901C375.026 233.868 375.029 233.834 375.038 233.801C375.047 233.769 375.062 233.738 375.083 233.712C375.104 233.685 375.13 233.663 375.16 233.647C375.189 233.63 375.222 233.62 375.255 233.616C375.323 233.609 375.39 233.628 375.443 233.67C375.497 233.712 375.531 233.774 375.54 233.841L377.077 246.943C377.081 246.976 377.078 247.01 377.069 247.043C377.06 247.075 377.044 247.106 377.024 247.132C377.003 247.159 376.977 247.181 376.947 247.197C376.918 247.214 376.885 247.224 376.852 247.228C376.842 247.229 376.833 247.23 376.824 247.23Z" fill="#0C0C0C"/>
<path d="M139.121 79.0011H96.4505C93.252 79.0011 90.6592 81.594 90.6592 84.7924V259.79C90.6592 262.988 93.252 265.581 96.4505 265.581H139.121C142.319 265.581 144.912 262.988 144.912 259.79V84.7924C144.912 81.594 142.319 79.0011 139.121 79.0011Z" fill="#292A2E"/>
<path d="M89.6893 317.228C89.7755 317.228 89.8601 317.204 89.9334 317.158C90.0067 317.113 90.0659 317.048 90.1042 316.971L102.267 292.026C102.31 291.917 102.311 291.796 102.27 291.687C102.228 291.578 102.146 291.489 102.041 291.437C101.935 291.386 101.815 291.376 101.703 291.411C101.591 291.445 101.496 291.52 101.438 291.622L89.2754 316.567C89.2415 316.637 89.2259 316.715 89.2302 316.793C89.2344 316.871 89.2583 316.946 89.2996 317.012C89.3409 317.078 89.3983 317.133 89.4665 317.171C89.5346 317.209 89.6113 317.229 89.6893 317.23V317.228Z" fill="#5D5B65"/>
<path d="M69.1299 315.781C69.2318 315.781 69.3308 315.747 69.4115 315.685C69.4922 315.623 69.5501 315.536 69.5761 315.437L83.6503 261.707C83.6719 261.592 83.6492 261.473 83.5866 261.374C83.5241 261.275 83.4264 261.204 83.3132 261.174C83.2 261.145 83.0798 261.159 82.9769 261.214C82.8739 261.27 82.7958 261.362 82.7583 261.473L68.6836 315.203C68.666 315.272 68.6642 315.343 68.6784 315.412C68.6926 315.481 68.7223 315.546 68.7654 315.601C68.8084 315.657 68.8636 315.702 68.9268 315.733C68.99 315.765 69.0594 315.781 69.1299 315.781Z" fill="#5D5B65"/>
<path d="M42.2844 318.159C42.3462 318.159 42.4073 318.147 42.4641 318.122C42.5765 318.074 42.6652 317.984 42.711 317.87C42.7568 317.757 42.7559 317.63 42.7085 317.518L28.1604 283.256C28.1071 283.152 28.0165 283.072 27.9068 283.032C27.7972 282.993 27.6765 282.996 27.569 283.041C27.4616 283.087 27.3754 283.171 27.3276 283.278C27.2798 283.384 27.2741 283.505 27.3116 283.615L41.8597 317.878C41.8951 317.961 41.9543 318.032 42.0298 318.082C42.1053 318.132 42.1938 318.159 42.2844 318.159Z" fill="#5D5B65"/>
<path d="M68.6087 326.098C68.6467 326.098 68.6845 326.093 68.7212 326.084C68.8397 326.054 68.9415 325.979 69.0043 325.874C69.0671 325.769 69.0859 325.644 69.0565 325.525L52.1519 257.896C52.1165 257.784 52.0396 257.689 51.9368 257.632C51.8341 257.574 51.7132 257.558 51.599 257.587C51.4848 257.615 51.3858 257.687 51.3222 257.786C51.2586 257.885 51.2353 258.004 51.2569 258.12L68.162 325.749C68.1871 325.848 68.2446 325.937 68.3255 326C68.4064 326.063 68.5061 326.098 68.6087 326.098Z" fill="#5D5B65"/>
<path d="M62.613 271.754C67.1996 262.112 64.2067 251.103 55.9282 247.165C47.6497 243.227 37.2205 247.851 32.6339 257.493C28.0473 267.135 31.0401 278.144 39.3186 282.082C47.5971 286.02 58.0264 281.396 62.613 271.754Z" fill="#8E2C9D"/>
<path opacity="0.4" d="M62.613 271.754C67.1996 262.112 64.2067 251.103 55.9282 247.165C47.6497 243.227 37.2205 247.851 32.6339 257.493C28.0473 267.135 31.0401 278.144 39.3186 282.082C47.5971 286.02 58.0264 281.396 62.613 271.754Z" fill="#3C0577"/>
<path d="M34.1605 294.015C36.5529 288.075 34.457 281.634 29.4792 279.63C24.5015 277.625 18.5268 280.815 16.1345 286.755C13.7421 292.695 15.838 299.136 20.8158 301.14C25.7935 303.145 31.7682 299.955 34.1605 294.015Z" fill="#3C0577"/>
<path d="M92.8177 286.393C100.212 284.15 103.975 274.975 101.222 265.901C98.4696 256.826 90.2442 251.287 82.8501 253.53C75.456 255.773 71.6932 264.947 74.4457 274.022C77.1982 283.097 85.4236 288.635 92.8177 286.393Z" fill="#3C0577"/>
<path d="M105.534 305.705C109.662 305.014 112.219 299.744 111.246 293.934C110.273 288.125 106.138 283.976 102.011 284.667C97.8832 285.358 95.3259 290.628 96.2989 296.438C97.2719 302.247 101.407 306.396 105.534 305.705Z" fill="#3C0577"/>
<path d="M28.7153 326.732H100.524V308.837H28.7153V326.732Z" fill="#5D5B65"/>
<path opacity="0.3" d="M28.7153 326.732H100.524V308.837H28.7153V326.732Z" fill="white"/>
<path d="M62.7494 304.34C65.6679 297.094 63.0884 289.227 56.9878 286.77C50.8873 284.313 43.5759 288.196 40.6574 295.443C37.739 302.689 40.3185 310.555 46.419 313.012C52.5196 315.469 59.8309 311.587 62.7494 304.34Z" fill="#3C0577"/>
<path d="M78.6879 311.217C84.7637 311.217 89.6892 306.291 89.6892 300.215C89.6892 294.139 84.7637 289.214 78.6879 289.214C72.612 289.214 67.6865 294.139 67.6865 300.215C67.6865 306.291 72.612 311.217 78.6879 311.217Z" fill="#3C0577"/>
<path opacity="0.68" d="M34.1605 294.015C36.5529 288.075 34.457 281.634 29.4792 279.63C24.5015 277.625 18.5268 280.815 16.1345 286.755C13.7421 292.695 15.838 299.136 20.8158 301.14C25.7935 303.145 31.7682 299.955 34.1605 294.015Z" fill="#986BD1" fill-opacity="0.99"/>
<path opacity="0.68" d="M92.8177 286.393C100.212 284.15 103.975 274.975 101.222 265.901C98.4696 256.826 90.2442 251.287 82.8501 253.53C75.456 255.773 71.6932 264.947 74.4457 274.022C77.1982 283.097 85.4236 288.635 92.8177 286.393Z" fill="#986BD1" fill-opacity="0.99"/>
<path opacity="0.68" d="M105.534 305.705C109.662 305.014 112.219 299.744 111.246 293.934C110.273 288.125 106.138 283.976 102.011 284.667C97.8832 285.358 95.3259 290.628 96.2989 296.438C97.2719 302.247 101.407 306.396 105.534 305.705Z" fill="#986BD1" fill-opacity="0.99"/>
<path opacity="0.68" d="M62.7494 304.34C65.6679 297.094 63.0884 289.227 56.9878 286.77C50.8873 284.313 43.5759 288.196 40.6574 295.443C37.739 302.689 40.3185 310.555 46.419 313.012C52.5196 315.469 59.8309 311.587 62.7494 304.34Z" fill="#986BD1" fill-opacity="0.99"/>
<path opacity="0.4" d="M78.6879 311.217C84.7637 311.217 89.6892 306.291 89.6892 300.215C89.6892 294.139 84.7637 289.214 78.6879 289.214C72.612 289.214 67.6865 294.139 67.6865 300.215C67.6865 306.291 72.612 311.217 78.6879 311.217Z" fill="#986BD1"/>
<path d="M43.3516 290.954C51.7017 293.286 56.0963 286.463 56.0963 286.463L56.0916 286.453C51.6375 285.125 46.6991 286.993 43.3516 290.954Z" fill="#5D5B65"/>
<path d="M96.0957 293.748C100.207 292.174 103.613 289.172 105.691 285.291C104.565 284.69 103.273 284.471 102.012 284.669C98.5349 285.25 96.1743 289.081 96.0957 293.748Z" fill="#5D5B65"/>
<path d="M76.7256 289.391C79.9278 292.276 83.929 294.123 88.2019 294.688C87.064 292.734 85.3523 291.178 83.2992 290.23C81.246 289.282 78.951 288.989 76.7256 289.391Z" fill="#5D5B65"/>
<path d="M0.513506 327.607H524.108C524.244 327.607 524.374 327.553 524.471 327.456C524.567 327.36 524.621 327.229 524.621 327.093C524.621 326.957 524.567 326.826 524.471 326.73C524.374 326.634 524.244 326.58 524.108 326.58H0.513506C0.377316 326.58 0.246703 326.634 0.150402 326.73C0.0541013 326.826 0 326.957 0 327.093C0 327.229 0.0541013 327.36 0.150402 327.456C0.246703 327.553 0.377316 327.607 0.513506 327.607Z" fill="#292A2E"/>
<path d="M109.948 119.977H100.755C99.4861 119.977 98.457 121.006 98.457 122.275V131.468C98.457 132.737 99.4861 133.766 100.755 133.766H109.948C111.218 133.766 112.247 132.737 112.247 131.468V122.275C112.247 121.006 111.218 119.977 109.948 119.977Z" fill="#2A222B"/>
<path d="M109.948 134.023H100.756C100.079 134.023 99.4295 133.753 98.9505 133.274C98.4715 132.795 98.202 132.146 98.2012 131.469V122.277C98.2019 121.599 98.4713 120.95 98.9503 120.471C99.4294 119.992 100.079 119.722 100.756 119.722H109.948C110.626 119.722 111.275 119.992 111.754 120.471C112.233 120.95 112.503 121.599 112.503 122.277V131.469C112.503 132.146 112.233 132.795 111.754 133.274C111.275 133.753 110.626 134.023 109.948 134.023ZM100.756 120.234C100.215 120.234 99.6961 120.449 99.3133 120.832C98.9305 121.215 98.7152 121.734 98.7147 122.275V131.467C98.7152 132.008 98.9305 132.527 99.3133 132.91C99.6961 133.293 100.215 133.508 100.756 133.508H109.948C110.489 133.508 111.008 133.293 111.391 132.91C111.774 132.527 111.989 132.008 111.99 131.467V122.275C111.989 121.734 111.774 121.215 111.391 120.832C111.008 120.449 110.489 120.234 109.948 120.234H100.756Z" fill="white"/>
<path d="M135.098 126.621C135.098 122.813 132.011 119.726 128.203 119.726C124.396 119.726 121.309 122.813 121.309 126.621C121.309 130.429 124.396 133.516 128.203 133.516C132.011 133.516 135.098 130.429 135.098 126.621Z" fill="#2A222B"/>
<path d="M128.203 133.773C126.789 133.773 125.406 133.353 124.23 132.567C123.054 131.782 122.137 130.665 121.596 129.358C121.055 128.051 120.913 126.613 121.189 125.226C121.465 123.839 122.146 122.564 123.146 121.564C124.147 120.564 125.421 119.883 126.808 119.607C128.195 119.331 129.633 119.473 130.94 120.014C132.247 120.555 133.364 121.472 134.15 122.648C134.936 123.824 135.355 125.207 135.355 126.621C135.353 128.517 134.599 130.335 133.258 131.676C131.917 133.016 130.099 133.77 128.203 133.773ZM128.203 119.983C126.89 119.983 125.607 120.372 124.515 121.102C123.424 121.831 122.573 122.868 122.071 124.081C121.568 125.294 121.437 126.628 121.693 127.916C121.949 129.204 122.581 130.386 123.51 131.315C124.438 132.243 125.621 132.875 126.908 133.132C128.196 133.388 129.531 133.256 130.744 132.754C131.957 132.251 132.993 131.401 133.723 130.309C134.452 129.217 134.841 127.934 134.841 126.621C134.839 124.861 134.139 123.174 132.895 121.929C131.65 120.685 129.963 119.985 128.203 119.983Z" fill="white"/>
<path d="M100.198 88.3263L99.9912 106.842L105.645 101.649L112.921 101.779L100.198 88.3263Z" fill="#2A222B"/>
<path d="M99.9911 107.101C99.9557 107.101 99.9207 107.093 99.8884 107.079C99.8423 107.058 99.8032 107.025 99.7758 106.983C99.7484 106.941 99.734 106.892 99.7344 106.841L99.9398 88.3263C99.9403 88.2752 99.9561 88.2253 99.9851 88.1832C100.014 88.141 100.055 88.1085 100.103 88.0898C100.15 88.0711 100.202 88.0671 100.252 88.0782C100.302 88.0893 100.348 88.1151 100.383 88.1523L113.106 101.606C113.141 101.643 113.164 101.689 113.173 101.739C113.181 101.788 113.175 101.84 113.155 101.886C113.136 101.934 113.103 101.974 113.06 102.002C113.017 102.03 112.966 102.043 112.915 102.04L105.742 101.912L100.164 107.035C100.116 107.078 100.055 107.101 99.9911 107.101ZM100.447 88.9667L100.254 106.254L105.471 101.463C105.521 101.42 105.584 101.396 105.649 101.396L112.314 101.514L100.447 88.9667Z" fill="white"/>
<path d="M123.208 88.3263L123.002 106.842L128.656 101.649L135.932 101.779L123.208 88.3263Z" fill="white"/>
<path d="M123.002 107.101C122.966 107.101 122.931 107.093 122.899 107.079C122.853 107.058 122.814 107.025 122.787 106.983C122.759 106.941 122.745 106.892 122.745 106.841L122.951 88.3263C122.951 88.2752 122.967 88.2253 122.996 88.1832C123.025 88.141 123.066 88.1085 123.113 88.0898C123.161 88.0711 123.213 88.0671 123.263 88.0782C123.313 88.0893 123.358 88.1151 123.394 88.1523L136.117 101.606C136.152 101.643 136.175 101.689 136.184 101.739C136.192 101.789 136.186 101.84 136.166 101.886C136.147 101.934 136.114 101.975 136.071 102.002C136.028 102.03 135.977 102.043 135.926 102.04L128.753 101.912L123.175 107.035C123.127 107.078 123.066 107.101 123.002 107.101ZM123.458 88.9667L123.265 106.254L128.482 101.463C128.532 101.42 128.595 101.396 128.66 101.396L135.325 101.514L123.458 88.9667Z" fill="#2A222B"/>
<path d="M100.48 146.853L99.4424 160.335L102.691 162.167L109.796 159.351L110.144 155.564L100.48 146.853Z" fill="#2A222B"/>
<path d="M102.691 162.424C102.647 162.424 102.603 162.412 102.565 162.39L99.3162 160.559C99.2736 160.535 99.2388 160.499 99.2158 160.456C99.1928 160.413 99.1826 160.364 99.1863 160.316L100.225 146.833C100.228 146.785 100.245 146.74 100.274 146.701C100.302 146.662 100.341 146.632 100.385 146.615C100.43 146.597 100.478 146.592 100.526 146.6C100.573 146.609 100.617 146.63 100.652 146.662L110.316 155.373C110.346 155.4 110.369 155.433 110.383 155.471C110.398 155.508 110.403 155.548 110.4 155.588L110.053 159.375C110.048 159.422 110.031 159.467 110.002 159.505C109.974 159.543 109.935 159.573 109.891 159.59L102.785 162.406C102.755 162.417 102.723 162.424 102.691 162.424ZM99.7126 160.192L102.712 161.883L109.557 159.171L109.878 155.668L100.699 147.393L99.7126 160.192Z" fill="white"/>
<path d="M103.583 154.951C103.531 154.951 103.481 154.935 103.438 154.906C103.396 154.877 103.363 154.836 103.344 154.788L100.242 146.949C100.228 146.918 100.22 146.883 100.22 146.849C100.219 146.814 100.226 146.78 100.239 146.748C100.252 146.716 100.271 146.687 100.296 146.663C100.321 146.638 100.35 146.619 100.382 146.607C100.414 146.594 100.448 146.588 100.483 146.589C100.518 146.59 100.552 146.597 100.583 146.612C100.614 146.626 100.643 146.647 100.666 146.672C100.689 146.698 100.707 146.728 100.719 146.76L103.821 154.601C103.837 154.64 103.842 154.682 103.838 154.724C103.833 154.765 103.818 154.805 103.795 154.84C103.771 154.874 103.74 154.903 103.703 154.922C103.666 154.942 103.624 154.952 103.583 154.952V154.951Z" fill="white"/>
<path d="M104.056 157.605C105.01 157.605 105.783 156.832 105.783 155.879C105.783 154.925 105.01 154.152 104.056 154.152C103.103 154.152 102.33 154.925 102.33 155.879C102.33 156.832 103.103 157.605 104.056 157.605Z" fill="#2A222B"/>
<path d="M104.057 157.862C103.665 157.862 103.281 157.746 102.955 157.528C102.629 157.31 102.375 157 102.224 156.638C102.074 156.275 102.035 155.877 102.111 155.492C102.188 155.107 102.377 154.754 102.654 154.476C102.931 154.199 103.285 154.01 103.669 153.933C104.054 153.857 104.453 153.896 104.815 154.046C105.178 154.196 105.487 154.451 105.705 154.777C105.923 155.103 106.04 155.486 106.04 155.879C106.039 156.404 105.83 156.908 105.458 157.28C105.087 157.652 104.583 157.861 104.057 157.862ZM104.057 154.409C103.766 154.409 103.482 154.495 103.24 154.657C102.998 154.818 102.81 155.048 102.699 155.316C102.587 155.585 102.558 155.88 102.615 156.166C102.672 156.451 102.812 156.713 103.017 156.918C103.223 157.124 103.485 157.264 103.77 157.32C104.055 157.377 104.35 157.348 104.619 157.237C104.888 157.125 105.117 156.937 105.279 156.695C105.44 156.453 105.526 156.169 105.526 155.879C105.526 155.489 105.371 155.116 105.095 154.84C104.82 154.565 104.446 154.41 104.057 154.409Z" fill="white"/>
<path d="M101.01 162.642L111.178 158.613C111.356 158.542 111.554 158.544 111.731 158.618C111.908 158.691 112.049 158.831 112.124 159.007L112.863 160.731C112.902 160.821 112.922 160.919 112.922 161.018C112.923 161.117 112.903 161.215 112.865 161.306C112.826 161.397 112.77 161.479 112.699 161.548C112.628 161.617 112.544 161.671 112.452 161.706L102.25 165.674C102.072 165.743 101.874 165.74 101.698 165.666C101.521 165.591 101.381 165.451 101.307 165.275L100.603 163.612C100.565 163.522 100.545 163.425 100.545 163.327C100.545 163.229 100.564 163.132 100.602 163.041C100.64 162.951 100.696 162.869 100.766 162.8C100.836 162.732 100.919 162.678 101.01 162.642Z" fill="white"/>
<path d="M124.894 148.874L123.915 161.591L126.979 163.318L133.681 160.662L134.009 157.091L124.894 148.874Z" fill="#2A222B"/>
<path d="M126.979 163.575C126.934 163.575 126.891 163.563 126.852 163.542L123.789 161.815C123.746 161.791 123.711 161.755 123.688 161.712C123.665 161.669 123.655 161.62 123.659 161.571L124.638 148.854C124.641 148.806 124.658 148.76 124.687 148.722C124.715 148.683 124.754 148.653 124.799 148.635C124.843 148.617 124.892 148.612 124.939 148.621C124.986 148.629 125.03 148.651 125.066 148.683L134.181 156.899C134.21 156.926 134.233 156.959 134.248 156.997C134.262 157.034 134.268 157.074 134.264 157.113L133.937 160.685C133.932 160.733 133.915 160.778 133.887 160.816C133.858 160.854 133.82 160.883 133.776 160.901L127.073 163.556C127.043 163.568 127.011 163.575 126.979 163.575ZM124.183 161.447L126.998 163.034L133.44 160.482L133.741 157.196L125.11 149.414L124.183 161.447Z" fill="white"/>
<path d="M127.82 156.527C127.768 156.527 127.718 156.511 127.675 156.482C127.633 156.453 127.6 156.412 127.581 156.364L124.654 148.97C124.629 148.906 124.63 148.836 124.657 148.773C124.684 148.711 124.735 148.662 124.798 148.637C124.861 148.611 124.932 148.613 124.995 148.64C125.057 148.667 125.106 148.718 125.131 148.781L128.058 156.175C128.071 156.207 128.077 156.24 128.076 156.274C128.076 156.308 128.069 156.341 128.055 156.372C128.042 156.403 128.022 156.431 127.998 156.454C127.974 156.478 127.945 156.496 127.914 156.509C127.884 156.521 127.852 156.527 127.82 156.527Z" fill="white"/>
<path d="M128.267 159.016C129.166 159.016 129.895 158.286 129.895 157.387C129.895 156.488 129.166 155.759 128.267 155.759C127.368 155.759 126.639 156.488 126.639 157.387C126.639 158.286 127.368 159.016 128.267 159.016Z" fill="#2A222B"/>
<path d="M128.267 159.273C127.894 159.273 127.53 159.163 127.22 158.956C126.91 158.748 126.668 158.454 126.525 158.11C126.383 157.765 126.345 157.386 126.418 157.02C126.491 156.655 126.67 156.319 126.934 156.055C127.198 155.792 127.533 155.612 127.899 155.539C128.265 155.467 128.644 155.504 128.988 155.647C129.333 155.789 129.627 156.031 129.834 156.341C130.041 156.651 130.152 157.015 130.152 157.388C130.151 157.888 129.953 158.367 129.599 158.721C129.246 159.074 128.767 159.273 128.267 159.273ZM128.267 156.017C127.996 156.017 127.73 156.097 127.505 156.248C127.279 156.399 127.104 156.613 127 156.863C126.896 157.114 126.869 157.39 126.922 157.656C126.975 157.922 127.105 158.166 127.297 158.358C127.489 158.55 127.733 158.681 127.999 158.733C128.265 158.786 128.541 158.759 128.792 158.655C129.042 158.552 129.257 158.376 129.407 158.15C129.558 157.925 129.638 157.659 129.638 157.388C129.638 157.024 129.494 156.676 129.237 156.418C128.98 156.161 128.631 156.016 128.267 156.016V156.017Z" fill="white"/>
<path d="M125.393 163.766L134.982 159.967C135.15 159.9 135.338 159.902 135.504 159.971C135.671 160.041 135.804 160.172 135.875 160.338L136.572 161.965C136.609 162.05 136.628 162.142 136.628 162.235C136.628 162.328 136.61 162.42 136.574 162.506C136.538 162.592 136.485 162.669 136.418 162.734C136.352 162.799 136.273 162.85 136.186 162.883L126.563 166.626C126.395 166.691 126.208 166.688 126.042 166.618C125.876 166.548 125.744 166.416 125.673 166.25L125.01 164.682C124.974 164.596 124.955 164.505 124.955 164.413C124.955 164.32 124.973 164.229 125.009 164.143C125.045 164.058 125.097 163.981 125.163 163.916C125.229 163.851 125.307 163.801 125.393 163.766Z" fill="white"/>
<path d="M131.521 150.111C131.453 150.111 131.388 150.084 131.34 150.036C131.292 149.988 131.265 149.923 131.265 149.855V144.9C131.265 144.832 131.292 144.767 131.34 144.719C131.388 144.671 131.453 144.644 131.521 144.644C131.589 144.644 131.655 144.671 131.703 144.719C131.751 144.767 131.778 144.832 131.778 144.9V149.855C131.778 149.923 131.751 149.988 131.703 150.036C131.655 150.084 131.589 150.111 131.521 150.111Z" fill="white"/>
<path d="M133.999 147.634H129.044C128.976 147.634 128.91 147.607 128.862 147.559C128.814 147.511 128.787 147.446 128.787 147.377C128.787 147.309 128.814 147.244 128.862 147.196C128.91 147.148 128.976 147.121 129.044 147.121H133.998C134.066 147.121 134.132 147.148 134.18 147.196C134.228 147.244 134.255 147.309 134.255 147.377C134.255 147.446 134.228 147.511 134.18 147.559C134.132 147.607 134.066 147.634 133.998 147.634H133.999Z" fill="white"/>
<path d="M100.667 193.439C100.329 193.44 99.9971 193.351 99.7044 193.183C99.259 192.926 98.9338 192.504 98.8001 192.007C98.6664 191.511 98.7353 190.982 98.9916 190.537L104.191 181.505C104.225 181.446 104.281 181.403 104.346 181.385C104.412 181.367 104.482 181.376 104.541 181.41L107.454 183.087C107.513 183.12 107.555 183.176 107.574 183.241C107.591 183.306 107.582 183.376 107.548 183.435L102.35 192.467C102.18 192.763 101.935 193.009 101.639 193.179C101.344 193.35 101.008 193.44 100.667 193.439ZM99.9606 192.736C100.288 192.924 100.676 192.975 101.041 192.876C101.405 192.778 101.716 192.54 101.904 192.213L106.975 183.404L104.507 181.984L99.4368 190.792C99.2485 191.12 99.1979 191.508 99.2961 191.873C99.3944 192.238 99.6334 192.548 99.9606 192.736Z" fill="white"/>
<path d="M109.012 181.801L104.871 179.417C104.252 179.061 103.461 179.274 103.105 179.892L103.105 179.893C102.749 180.512 102.961 181.302 103.58 181.659L107.722 184.042C108.341 184.399 109.131 184.186 109.488 183.567L109.488 183.566C109.844 182.947 109.631 182.157 109.012 181.801Z" fill="white"/>
<path d="M108.648 177.645C108.976 177.834 109.215 178.145 109.313 178.509C109.411 178.874 109.361 179.263 109.172 179.59L107.533 182.439L105.063 181.017L106.703 178.169C106.796 178.007 106.92 177.865 107.069 177.751C107.217 177.636 107.386 177.553 107.567 177.504C107.747 177.455 107.936 177.443 108.122 177.467C108.307 177.491 108.486 177.552 108.648 177.645Z" fill="white"/>
<path d="M128.887 192.474C127.913 192.477 126.948 192.286 126.048 191.915C125.148 191.543 124.33 190.996 123.642 190.307C123.595 190.259 123.569 190.194 123.57 190.127C123.57 190.059 123.597 189.995 123.645 189.947C123.692 189.899 123.757 189.872 123.824 189.872C123.891 189.871 123.956 189.897 124.005 189.943C124.974 190.909 126.208 191.566 127.551 191.831C128.893 192.095 130.284 191.955 131.547 191.429C132.811 190.903 133.889 190.015 134.648 188.876C135.406 187.736 135.809 186.398 135.806 185.029C135.804 183.661 135.395 182.324 134.633 181.188C133.871 180.052 132.788 179.167 131.523 178.646C130.258 178.124 128.867 177.99 127.525 178.26C126.183 178.529 124.952 179.191 123.986 180.16C123.938 180.207 123.873 180.233 123.806 180.232C123.738 180.232 123.674 180.205 123.626 180.158C123.579 180.11 123.551 180.046 123.551 179.978C123.55 179.911 123.576 179.846 123.623 179.798C124.485 178.932 125.548 178.292 126.717 177.935C127.886 177.578 129.124 177.515 130.323 177.751C131.522 177.987 132.645 178.516 133.591 179.289C134.537 180.063 135.278 181.058 135.748 182.186C136.217 183.314 136.402 184.541 136.284 185.757C136.167 186.973 135.751 188.142 135.074 189.16C134.397 190.177 133.48 191.012 132.403 191.59C131.326 192.168 130.124 192.472 128.901 192.474H128.887Z" fill="white"/>
<path d="M126.621 180.892C126.605 180.892 126.59 180.89 126.575 180.888L123.481 180.333C123.448 180.327 123.415 180.314 123.387 180.295C123.358 180.276 123.334 180.252 123.314 180.224C123.295 180.195 123.282 180.163 123.275 180.13C123.269 180.096 123.269 180.062 123.276 180.028L123.873 177.12C123.88 177.087 123.893 177.055 123.912 177.027C123.931 176.999 123.955 176.975 123.983 176.957C124.011 176.938 124.043 176.925 124.076 176.919C124.109 176.913 124.143 176.913 124.176 176.919C124.209 176.926 124.24 176.939 124.268 176.958C124.296 176.977 124.32 177.001 124.339 177.029C124.357 177.058 124.37 177.089 124.377 177.122C124.383 177.155 124.383 177.189 124.376 177.222L123.832 179.873L126.666 180.382C126.73 180.393 126.786 180.428 126.825 180.479C126.864 180.53 126.882 180.594 126.877 180.657C126.871 180.721 126.842 180.781 126.794 180.824C126.747 180.867 126.685 180.891 126.621 180.891L126.621 180.892Z" fill="white"/>
<path d="M133.611 217.99H121.248C121.18 217.99 121.115 217.963 121.066 217.915C121.018 217.867 120.991 217.801 120.991 217.733V205.371C120.991 205.303 121.018 205.238 121.066 205.19C121.115 205.142 121.18 205.114 121.248 205.114H133.611C133.679 205.114 133.744 205.142 133.792 205.19C133.84 205.238 133.867 205.303 133.867 205.371V217.733C133.867 217.801 133.84 217.867 133.792 217.915C133.744 217.963 133.679 217.99 133.611 217.99ZM121.505 217.477H133.354V205.628H121.505V217.477Z" fill="white"/>
<path d="M134.447 209.818H127.789C126.238 209.818 124.98 211.076 124.98 212.627V219.285C124.98 220.836 126.238 222.093 127.789 222.093H134.447C135.998 222.093 137.255 220.836 137.255 219.285V212.627C137.255 211.076 135.998 209.818 134.447 209.818Z" fill="#2A222B"/>
<path d="M134.447 222.349H127.789C126.976 222.348 126.197 222.025 125.622 221.451C125.048 220.876 124.725 220.097 124.724 219.285V212.627C124.725 211.814 125.048 211.035 125.622 210.46C126.197 209.886 126.976 209.562 127.789 209.561H134.447C135.26 209.562 136.039 209.886 136.614 210.46C137.188 211.035 137.511 211.814 137.512 212.627V219.285C137.511 220.097 137.188 220.876 136.613 221.451C136.039 222.025 135.26 222.348 134.447 222.349ZM127.789 210.076C127.112 210.077 126.464 210.346 125.985 210.825C125.507 211.303 125.238 211.952 125.237 212.628V219.286C125.238 219.963 125.507 220.611 125.985 221.089C126.464 221.568 127.112 221.837 127.789 221.837H134.447C135.124 221.837 135.772 221.568 136.251 221.089C136.729 220.611 136.998 219.963 136.998 219.286V212.627C136.998 211.95 136.729 211.301 136.251 210.823C135.772 210.345 135.124 210.076 134.447 210.075L127.789 210.076Z" fill="white"/>
<path d="M108.526 212.122C108.526 209.209 106.165 206.849 103.253 206.849C100.34 206.849 97.9795 209.209 97.9795 212.122C97.9795 215.034 100.34 217.395 103.253 217.395C106.165 217.395 108.526 215.034 108.526 212.122Z" fill="#2A222B"/>
<path d="M103.253 217.652C102.159 217.652 101.09 217.327 100.18 216.72C99.2709 216.112 98.5622 215.248 98.1436 214.238C97.7251 213.228 97.6155 212.116 97.8289 211.043C98.0423 209.97 98.569 208.985 99.3423 208.212C100.116 207.438 101.101 206.911 102.174 206.698C103.246 206.485 104.358 206.594 105.369 207.013C106.379 207.431 107.243 208.14 107.851 209.05C108.458 209.959 108.783 211.028 108.783 212.122C108.781 213.588 108.198 214.993 107.161 216.03C106.124 217.067 104.719 217.65 103.253 217.652ZM103.253 207.105C102.26 207.105 101.291 207.4 100.466 207.951C99.6407 208.502 98.9977 209.285 98.618 210.202C98.2383 211.119 98.139 212.127 98.3326 213.1C98.5261 214.074 99.0039 214.967 99.7054 215.669C100.407 216.37 101.301 216.848 102.274 217.042C103.247 217.235 104.256 217.136 105.172 216.756C106.089 216.377 106.872 215.734 107.424 214.909C107.975 214.084 108.269 213.114 108.269 212.122C108.268 210.792 107.739 209.517 106.798 208.576C105.858 207.636 104.583 207.107 103.253 207.105Z" fill="white"/>
<path d="M106.003 216.619L105.561 216.879L109.086 222.879L109.529 222.619L106.003 216.619Z" fill="white"/>
<path d="M136.822 251.667H123.045V237.891H136.822V251.667ZM123.558 251.153H136.308V238.405H123.558V251.153Z" fill="white"/>
<path d="M123.302 238.405C123.234 238.405 123.168 238.377 123.12 238.329C123.072 238.281 123.045 238.216 123.045 238.148V234.129C123.045 234.061 123.072 233.996 123.12 233.948C123.168 233.899 123.234 233.872 123.302 233.872C123.37 233.872 123.435 233.899 123.483 233.948C123.531 233.996 123.558 234.061 123.558 234.129V238.148C123.558 238.216 123.531 238.281 123.483 238.329C123.435 238.377 123.37 238.405 123.302 238.405Z" fill="white"/>
<path d="M123.258 238.405H119.239C119.171 238.405 119.106 238.377 119.058 238.329C119.009 238.281 118.982 238.216 118.982 238.148C118.982 238.08 119.009 238.014 119.058 237.966C119.106 237.918 119.171 237.891 119.239 237.891H123.258C123.326 237.891 123.391 237.918 123.439 237.966C123.488 238.014 123.515 238.08 123.515 238.148C123.515 238.216 123.488 238.281 123.439 238.329C123.391 238.377 123.326 238.405 123.258 238.405Z" fill="white"/>
<path d="M102.891 252.581H103.977L107.439 236.311H112.497L112.665 235.465H101.48L101.295 236.311H106.327L102.891 252.581Z" fill="white"/>
<path d="M344.885 318.836L323.669 253.621C323.296 252.475 322.57 251.476 321.595 250.768C320.62 250.06 319.446 249.678 318.241 249.679H231.807C230.906 249.679 230.018 249.892 229.215 250.301C228.412 250.71 227.718 251.303 227.188 252.032C226.659 252.761 226.309 253.605 226.169 254.495C226.028 255.385 226.1 256.296 226.379 257.153L247.595 322.368C247.967 323.514 248.693 324.513 249.668 325.221C250.644 325.929 251.818 326.31 253.023 326.31H339.457C340.358 326.31 341.246 326.097 342.049 325.688C342.851 325.278 343.546 324.685 344.075 323.956C344.605 323.227 344.954 322.383 345.095 321.493C345.235 320.603 345.164 319.693 344.885 318.836Z" fill="#292A2E"/>
<path d="M385.437 321.022H327.578C326.137 321.022 324.968 322.191 324.968 323.633V323.699C324.968 325.141 326.137 326.31 327.578 326.31H385.437C386.879 326.31 388.047 325.141 388.047 323.699V323.633C388.047 322.191 386.879 321.022 385.437 321.022Z" fill="#292A2E"/>
<path d="M285.632 300.241C290.639 300.241 294.697 296.182 294.697 291.175C294.697 286.169 290.639 282.11 285.632 282.11C280.625 282.11 276.566 286.169 276.566 291.175C276.566 296.182 280.625 300.241 285.632 300.241Z" fill="white"/>
</svg>
