<svg width="21" height="20" viewBox="0 0 21 20" fill="none" xmlns="http://www.w3.org/2000/svg">
<g clip-path="url(#clip0_12_487)">
<path d="M11.0583 0.160044C10.9376 0.0567576 10.7839 0 10.625 0C10.4661 0 10.3124 0.0567576 10.1917 0.160044L0.625 8.36004V18C0.625 18.5305 0.835714 19.0392 1.21079 19.4143C1.58586 19.7893 2.09457 20 2.625 20H7.95833C8.13514 20 8.30471 19.9298 8.42974 19.8048C8.55476 19.6798 8.625 19.5102 8.625 19.3334V15.3334C8.625 14.8029 8.83571 14.2942 9.21079 13.9192C9.58586 13.5441 10.0946 13.3334 10.625 13.3334C11.1554 13.3334 11.6641 13.5441 12.0392 13.9192C12.4143 14.2942 12.625 14.8029 12.625 15.3334V19.3334C12.625 19.5102 12.6952 19.6798 12.8203 19.8048C12.9453 19.9298 13.1149 20 13.2917 20H18.625C19.1554 20 19.6641 19.7893 20.0392 19.4143C20.4143 19.0392 20.625 18.5305 20.625 18V8.36004L11.0583 0.160044Z" fill="black"/>
</g>
<defs>
<clipPath id="clip0_12_487">
<rect width="20" height="20" fill="white" transform="translate(0.625)"/>
</clipPath>
</defs>
</svg>
