<svg width="11" height="12" viewBox="0 0 11 12" fill="none" xmlns="http://www.w3.org/2000/svg">
<g clip-path="url(#clip0_17_5551)">
<path d="M6.63991 5.99967L10.3508 2.28874C10.527 2.11293 10.626 1.87435 10.6263 1.6255C10.6265 1.37665 10.5278 1.1379 10.352 0.961783C10.1762 0.785662 9.93763 0.686595 9.68878 0.686376C9.43993 0.686156 9.20118 0.784801 9.02506 0.960611L5.31413 4.67155L1.60319 0.960611C1.42707 0.78449 1.1882 0.685547 0.939126 0.685547C0.690055 0.685547 0.451184 0.78449 0.275064 0.960611C0.0989435 1.13673 0 1.3756 0 1.62467C0 1.87374 0.0989435 2.11262 0.275064 2.28874L3.986 5.99967L0.275064 9.71061C0.0989435 9.88673 0 10.1256 0 10.3747C0 10.6237 0.0989435 10.8626 0.275064 11.0387C0.451184 11.2149 0.690055 11.3138 0.939126 11.3138C1.1882 11.3138 1.42707 11.2149 1.60319 11.0387L5.31413 7.3278L9.02506 11.0387C9.20118 11.2149 9.44005 11.3138 9.68913 11.3138C9.9382 11.3138 10.1771 11.2149 10.3532 11.0387C10.5293 10.8626 10.6283 10.6237 10.6283 10.3747C10.6283 10.1256 10.5293 9.88673 10.3532 9.71061L6.63991 5.99967Z" fill="black"/>
</g>
<defs>
<clipPath id="clip0_17_5551">
<rect width="10.6283" height="10.6283" fill="white" transform="translate(0 0.685547)"/>
</clipPath>
</defs>
</svg>
