<svg width="20" height="16" viewBox="0 0 20 16" fill="none" xmlns="http://www.w3.org/2000/svg">
<path d="M9.17586 15.068C9.2676 15.2013 9.39036 15.3102 9.53355 15.3855C9.67675 15.4607 9.83609 15.5001 9.99786 15.5001C10.1596 15.5001 10.319 15.4607 10.4622 15.3855C10.6054 15.3102 10.7281 15.2013 10.8199 15.068L19.8199 2.06802C19.924 1.91808 19.9851 1.74246 19.9965 1.56023C20.0079 1.378 19.9691 1.19615 19.8843 1.03442C19.7996 0.872688 19.6722 0.737272 19.5159 0.642882C19.3596 0.548491 19.1804 0.498737 18.9979 0.499025H0.997861C0.815705 0.499777 0.6372 0.550171 0.481542 0.644788C0.325885 0.739404 0.198964 0.874663 0.11443 1.03602C0.0298962 1.19737 -0.00905316 1.37872 0.0017708 1.56056C0.0125948 1.74239 0.0727825 1.91784 0.175861 2.06802L9.17586 15.068Z" fill="black"/>
</svg>
