<svg width="28" height="20" viewBox="0 0 28 20" fill="none" xmlns="http://www.w3.org/2000/svg">
<g clip-path="url(#clip0_12_485)">
<path fill-rule="evenodd" clip-rule="evenodd" d="M4.07849 0C3.16257 0 2.28416 0.373847 1.6365 1.0393C0.988849 1.70475 0.625 2.6073 0.625 3.54839V16.4516C0.625 17.3927 0.988849 18.2952 1.6365 18.9607C2.28416 19.6262 3.16257 20 4.07849 20H24.1715C25.0874 20 25.9658 19.6262 26.6135 18.9607C27.2612 18.2952 27.625 17.3927 27.625 16.4516V3.54839C27.625 2.6073 27.2612 1.70475 26.6135 1.0393C25.9658 0.373847 25.0874 0 24.1715 0H4.07849ZM8.38593 5.33677C8.18121 5.19951 7.93257 5.14941 7.69255 5.19705C7.45254 5.24469 7.23995 5.38635 7.09973 5.59209C6.9595 5.79782 6.90261 6.05152 6.94109 6.29955C6.97957 6.54759 7.1104 6.77054 7.30593 6.92129L13.585 11.4374C13.7433 11.5512 13.9318 11.6123 14.125 11.6123C14.3182 11.6123 14.5067 11.5512 14.665 11.4374L20.9441 6.92129C21.0498 6.85038 21.1406 6.75834 21.2111 6.65065C21.2815 6.54295 21.3302 6.42181 21.3541 6.29441C21.3781 6.16701 21.3768 6.03596 21.3505 5.90906C21.3242 5.78215 21.2733 5.66199 21.2008 5.5557C21.1284 5.44942 21.0359 5.35919 20.9288 5.29038C20.8218 5.22157 20.7023 5.17559 20.5776 5.15516C20.4529 5.13474 20.3255 5.14029 20.2029 5.17149C20.0803 5.20269 19.9651 5.2589 19.8641 5.33677L14.125 9.46452L8.38593 5.33677Z" fill="black"/>
</g>
<defs>
<clipPath id="clip0_12_485">
<rect width="27" height="20" fill="white" transform="translate(0.625)"/>
</clipPath>
</defs>
</svg>
