<svg width="21" height="20" viewBox="0 0 21 20" fill="none" xmlns="http://www.w3.org/2000/svg">
<g clip-path="url(#clip0_17_5550)">
<path d="M10.625 0C5.1 0 0.625 4.475 0.625 10C0.625 14.425 3.4875 18.1625 7.4625 19.4875C7.9625 19.575 8.15 19.275 8.15 19.0125C8.15 18.775 8.1375 17.9875 8.1375 17.15C5.625 17.6125 4.975 16.5375 4.775 15.975C4.6625 15.6875 4.175 14.8 3.75 14.5625C3.4 14.375 2.9 13.9125 3.7375 13.9C4.525 13.8875 5.0875 14.625 5.275 14.925C6.175 16.4375 7.6125 16.0125 8.1875 15.75C8.275 15.1 8.5375 14.6625 8.825 14.4125C6.6 14.1625 4.275 13.3 4.275 9.475C4.275 8.3875 4.6625 7.4875 5.3 6.7875C5.2 6.5375 4.85 5.5125 5.4 4.1375C5.4 4.1375 6.2375 3.875 8.15 5.1625C8.95 4.9375 9.8 4.825 10.65 4.825C11.5 4.825 12.35 4.9375 13.15 5.1625C15.0625 3.8625 15.9 4.1375 15.9 4.1375C16.45 5.5125 16.1 6.5375 16 6.7875C16.6375 7.4875 17.025 8.375 17.025 9.475C17.025 13.3125 14.6875 14.1625 12.4625 14.4125C12.825 14.725 13.1375 15.325 13.1375 16.2625C13.1375 17.6 13.125 18.675 13.125 19.0125C13.125 19.275 13.3125 19.5875 13.8125 19.4875C15.798 18.8178 17.5233 17.5421 18.7455 15.84C19.9677 14.138 20.625 12.0954 20.625 10C20.625 4.475 16.15 0 10.625 0Z" fill="black"/>
</g>
<defs>
<clipPath id="clip0_17_5550">
<rect width="20" height="20" fill="white" transform="translate(0.625)"/>
</clipPath>
</defs>
</svg>
