<svg width="15" height="20" viewBox="0 0 15 20" fill="none" xmlns="http://www.w3.org/2000/svg">
<path d="M0.430999 9.17684C0.297758 9.26858 0.188815 9.39133 0.113553 9.53453C0.038291 9.67772 -0.00103283 9.83707 -0.00103283 9.99884C-0.00103283 10.1606 0.038291 10.32 0.113553 10.4631C0.188815 10.6063 0.297758 10.7291 0.430999 10.8208L13.431 19.8208C13.5809 19.925 13.7566 19.9861 13.9388 19.9975C14.121 20.0088 14.3029 19.9701 14.4646 19.8853C14.6263 19.8006 14.7618 19.6732 14.8561 19.5169C14.9505 19.3606 15.0003 19.1814 15 18.9988L15 0.998838C14.9992 0.816682 14.9489 0.638176 14.8542 0.482519C14.7596 0.326861 14.6244 0.199941 14.463 0.115407C14.3017 0.0308727 14.1203 -0.0080766 13.9385 0.00274736C13.7566 0.0135713 13.5812 0.0737591 13.431 0.176838L0.430999 9.17684Z" fill="black"/>
</svg>
