<svg width="20" height="20" viewBox="0 0 20 20" fill="none" xmlns="http://www.w3.org/2000/svg">
<g clip-path="url(#clip0_12_480)">
<path d="M0 2.1875C0 0.98 0.98 0 2.1875 0H17.8125C19.02 0 20 0.98 20 2.1875V17.8125C20 18.3927 19.7695 18.9491 19.3593 19.3593C18.9491 19.7695 18.3927 20 17.8125 20H7.1875C6.93886 20 6.7004 19.9012 6.52459 19.7254C6.34877 19.5496 6.25 19.3111 6.25 19.0625C6.25 18.8139 6.34877 18.5754 6.52459 18.3996C6.7004 18.2238 6.93886 18.125 7.1875 18.125H17.8125C17.8954 18.125 17.9749 18.0921 18.0335 18.0335C18.0921 17.9749 18.125 17.8954 18.125 17.8125V8.125H1.875V10.3125C1.875 10.5611 1.77623 10.7996 1.60041 10.9754C1.4246 11.1512 1.18614 11.25 0.9375 11.25C0.68886 11.25 0.450403 11.1512 0.274587 10.9754C0.098772 10.7996 0 10.5611 0 10.3125L0 2.1875ZM8.125 6.25H18.125V2.1875C18.125 2.10462 18.0921 2.02513 18.0335 1.96653C17.9749 1.90792 17.8954 1.875 17.8125 1.875H8.125V6.25ZM1.875 6.25H6.25V1.875H2.1875C2.10462 1.875 2.02513 1.90792 1.96653 1.96653C1.90792 2.02513 1.875 2.10462 1.875 2.1875V6.25Z" fill="black"/>
<path d="M1.875 17.1714C1.87499 16.8008 1.94824 16.4339 2.09051 16.0916C2.23279 15.7494 2.4413 15.4387 2.70406 15.1774C2.96681 14.916 3.27863 14.7091 3.6216 14.5687C3.96456 14.4282 4.3319 14.3569 4.7025 14.3589L5 14.3627V16.7852C5 17.0577 5.325 17.1989 5.525 17.0139L9.12875 13.6677C9.16017 13.6384 9.18523 13.603 9.20236 13.5637C9.2195 13.5243 9.22834 13.4818 9.22834 13.4389C9.22834 13.396 9.2195 13.3535 9.20236 13.3142C9.18523 13.2748 9.16017 13.2394 9.12875 13.2102L5.525 9.86267C5.48044 9.82134 5.4248 9.79391 5.36488 9.78372C5.30497 9.77353 5.24339 9.78103 5.18767 9.80531C5.13196 9.82959 5.08453 9.86958 5.0512 9.9204C5.01787 9.97121 5.00007 10.0306 5 10.0914V12.4877L4.7125 12.4864C4.09493 12.4831 3.4828 12.6019 2.91128 12.8359C2.33976 13.0699 1.82012 13.4146 1.38221 13.85C0.944297 14.2855 0.596755 14.8032 0.359551 15.3734C0.122347 15.9436 0.000155903 16.5551 0 17.1727L0 18.4377C0 18.6863 0.098772 18.9248 0.274587 19.1006C0.450403 19.2764 0.68886 19.3752 0.9375 19.3752C1.18614 19.3752 1.4246 19.2764 1.60041 19.1006C1.77623 18.9248 1.875 18.6863 1.875 18.4377V17.1714Z" fill="black"/>
</g>
<defs>
<clipPath id="clip0_12_480">
<rect width="20" height="20" fill="white"/>
</clipPath>
</defs>
</svg>
