<svg width="20" height="16" viewBox="0 0 20 16" fill="none" xmlns="http://www.w3.org/2000/svg">
<path d="M10.8241 0.930999C10.7324 0.797758 10.6096 0.688815 10.4664 0.613553C10.3233 0.538291 10.1639 0.498967 10.0021 0.498967C9.84037 0.498967 9.68102 0.538291 9.53783 0.613553C9.39463 0.688815 9.27188 0.797758 9.18014 0.930999L0.180138 13.931C0.0759621 14.0809 0.0148735 14.2566 0.0035038 14.4388C-0.00786591 14.621 0.0309219 14.8029 0.115652 14.9646C0.200382 15.1263 0.327814 15.2618 0.484102 15.3561C0.64039 15.4505 0.819557 15.5003 1.00214 15.5H19.0021C19.1843 15.4992 19.3628 15.4489 19.5185 15.3542C19.6741 15.2596 19.801 15.1244 19.8856 14.963C19.9701 14.8017 20.0091 14.6203 19.9982 14.4385C19.9874 14.2566 19.9272 14.0812 19.8241 13.931L10.8241 0.930999Z" fill="black"/>
</svg>
