<svg width="25" height="24" viewBox="0 0 25 24" fill="none" xmlns="http://www.w3.org/2000/svg">
<g clip-path="url(#clip0_16_4569)">
<path d="M22.7303 19.7647C23.2169 19.765 23.6847 19.9745 24.0369 20.3498C24.389 20.725 24.5985 21.2374 24.6219 21.7806C24.6453 22.3238 24.4808 22.8562 24.1625 23.2676C23.8442 23.6789 23.3965 23.9376 22.9122 23.9901L22.7303 24H2.51974C2.03315 23.9997 1.5653 23.7902 1.21314 23.415C0.860985 23.0397 0.651511 22.5273 0.628127 21.9841C0.604743 21.4409 0.769242 20.9085 1.08754 20.4971C1.40583 20.0858 1.85352 19.8271 2.33784 19.7746L2.51974 19.7647H22.7303ZM22.7303 9.88235C23.2328 9.88235 23.7147 10.1055 24.07 10.5026C24.4254 10.8997 24.625 11.4384 24.625 12C24.625 12.5616 24.4254 13.1003 24.07 13.4974C23.7147 13.8945 23.2328 14.1176 22.7303 14.1176H2.51974C2.01722 14.1176 1.53529 13.8945 1.17996 13.4974C0.824624 13.1003 0.625 12.5616 0.625 12C0.625 11.4384 0.824624 10.8997 1.17996 10.5026C1.53529 10.1055 2.01722 9.88235 2.51974 9.88235H22.7303ZM22.7303 0C23.2328 0 23.7147 0.223109 24.07 0.620245C24.4254 1.01738 24.625 1.55601 24.625 2.11765C24.625 2.67928 24.4254 3.21791 24.07 3.61505C23.7147 4.01219 23.2328 4.23529 22.7303 4.23529H2.51974C2.01722 4.23529 1.53529 4.01219 1.17996 3.61505C0.824624 3.21791 0.625 2.67928 0.625 2.11765C0.625 1.55601 0.824624 1.01738 1.17996 0.620245C1.53529 0.223109 2.01722 0 2.51974 0H22.7303Z" fill="black"/>
</g>
<defs>
<clipPath id="clip0_16_4569">
<rect width="24" height="24" fill="white" transform="translate(0.625)"/>
</clipPath>
</defs>
</svg>
