<svg width="15" height="20" viewBox="0 0 15 20" fill="none" xmlns="http://www.w3.org/2000/svg">
<path d="M14.569 10.8232C14.7022 10.7314 14.8112 10.6087 14.8864 10.4655C14.9617 10.3223 15.001 10.1629 15.001 10.0012C15.001 9.83939 14.9617 9.68005 14.8864 9.53685C14.8112 9.39366 14.7022 9.2709 14.569 9.17916L1.569 0.179161C1.41906 0.0749855 1.24343 0.0138969 1.06121 0.00252724C0.87898 -0.00884247 0.697123 0.0299454 0.535394 0.114676C0.373665 0.199406 0.238248 0.326838 0.143858 0.483126C0.049468 0.639414 -0.000286344 0.818581 1.23965e-06 1.00116L1.23965e-06 19.0012C0.000753649 19.1833 0.0511479 19.3618 0.145764 19.5175C0.24038 19.6731 0.375639 19.8001 0.536994 19.8846C0.698349 19.9691 0.879696 20.0081 1.06153 19.9973C1.24337 19.9864 1.41881 19.9262 1.569 19.8232L14.569 10.8232Z" fill="black"/>
</svg>
