<svg width="27" height="20" viewBox="0 0 27 20" fill="none" xmlns="http://www.w3.org/2000/svg">
<g clip-path="url(#clip0_12_486)">
<path d="M23.375 5.55556V4.44444L20.125 6.66667L16.875 4.44444V5.55556L19.8217 7.57778C19.9101 7.63752 20.0137 7.66935 20.1196 7.66935C20.2255 7.66935 20.3291 7.63752 20.4175 7.57778L23.375 5.55556ZM24.4583 0H2.79167C1.6 0 0.625 1 0.625 2.22222V17.7778C0.625 19 1.6 20 2.79167 20H24.4583C25.65 20 26.6142 19 26.6142 17.7778L26.625 2.22222C26.625 1 25.65 0 24.4583 0ZM9.29167 3.33333C11.09 3.33333 12.5417 4.82222 12.5417 6.66667C12.5417 8.51111 11.09 10 9.29167 10C7.49333 10 6.04167 8.51111 6.04167 6.66667C6.04167 4.82222 7.49333 3.33333 9.29167 3.33333ZM15.7917 16.6667H2.79167V15.5556C2.79167 13.3333 7.125 12.1111 9.29167 12.1111C11.4583 12.1111 15.7917 13.3333 15.7917 15.5556V16.6667ZM23.9167 10H16.3333C16.03 10 15.7917 9.75556 15.7917 9.44444V3.88889C15.7917 3.57778 16.03 3.33333 16.3333 3.33333H23.9167C24.22 3.33333 24.4583 3.57778 24.4583 3.88889V9.44444C24.4583 9.75556 24.22 10 23.9167 10Z" fill="black"/>
</g>
<defs>
<clipPath id="clip0_12_486">
<rect width="26" height="20" fill="white" transform="translate(0.625)"/>
</clipPath>
</defs>
</svg>
