<svg width="21" height="20" viewBox="0 0 21 20" fill="none" xmlns="http://www.w3.org/2000/svg">
<g clip-path="url(#clip0_17_5549)">
<path d="M0.625 1.4325C0.625 0.64125 1.2825 0 2.09375 0H19.1562C19.9675 0 20.625 0.64125 20.625 1.4325V18.5675C20.625 19.3587 19.9675 20 19.1562 20H2.09375C1.2825 20 0.625 19.3587 0.625 18.5675V1.4325ZM6.80375 16.7425V7.71125H3.8025V16.7425H6.80375ZM5.30375 6.4775C6.35 6.4775 7.00125 5.785 7.00125 4.9175C6.9825 4.03125 6.35125 3.3575 5.32375 3.3575C4.29625 3.3575 3.625 4.0325 3.625 4.9175C3.625 5.785 4.27625 6.4775 5.28375 6.4775H5.30375ZM11.4388 16.7425V11.6988C11.4388 11.4288 11.4587 11.1587 11.5387 10.9662C11.755 10.4275 12.2488 9.86875 13.0788 9.86875C14.165 9.86875 14.5988 10.6962 14.5988 11.9113V16.7425H17.6V11.5625C17.6 8.7875 16.12 7.4975 14.145 7.4975C12.5525 7.4975 11.8387 8.3725 11.4388 8.98875V9.02H11.4188L11.4388 8.98875V7.71125H8.43875C8.47625 8.55875 8.43875 16.7425 8.43875 16.7425H11.4388Z" fill="black"/>
</g>
<defs>
<clipPath id="clip0_17_5549">
<rect width="20" height="20" fill="white" transform="translate(0.625)"/>
</clipPath>
</defs>
</svg>
