<svg width="21" height="20" viewBox="0 0 21 20" fill="none" xmlns="http://www.w3.org/2000/svg">
<g clip-path="url(#clip0_17_5548)">
<path d="M20.625 10C20.625 4.47719 16.1478 0 10.625 0C5.10219 0 0.625 4.47719 0.625 10C0.625 14.9912 4.28187 19.1284 9.0625 19.8785V12.8906H6.52344V10H9.0625V7.79687C9.0625 5.29062 10.5555 3.90625 12.8397 3.90625C13.9338 3.90625 15.0781 4.10156 15.0781 4.10156V6.5625H13.8172C12.5749 6.5625 12.1875 7.33336 12.1875 8.12422V10H14.9609L14.5176 12.8906H12.1875V19.8785C16.9681 19.1284 20.625 14.9913 20.625 10Z" fill="#1877F2"/>
<path d="M14.5176 12.8906L14.9609 10H12.1875V8.12422C12.1875 7.33328 12.5749 6.5625 13.8172 6.5625H15.0781V4.10156C15.0781 4.10156 13.9338 3.90625 12.8396 3.90625C10.5555 3.90625 9.0625 5.29063 9.0625 7.79688V10H6.52344V12.8906H9.0625V19.8785C9.57939 19.9595 10.1018 20.0001 10.625 20C11.1482 20.0001 11.6706 19.9595 12.1875 19.8785V12.8906H14.5176Z" fill="white"/>
</g>
<defs>
<clipPath id="clip0_17_5548">
<rect width="20" height="20" fill="white" transform="translate(0.625)"/>
</clipPath>
</defs>
</svg>
