<svg width="20" height="20" viewBox="0 0 20 20" fill="none" xmlns="http://www.w3.org/2000/svg">
<g clip-path="url(#clip0_12_481)">
<path d="M20 10.7692H12.5926V15.7446C12.5943 16.4727 12.7941 17.1854 13.1691 17.8006C13.5441 18.4158 14.0789 18.9084 14.7119 19.2215L16.2963 20L17.8807 19.2208C18.5137 18.9076 19.0485 18.4151 19.4235 17.7999C19.7985 17.1847 19.9983 16.4719 20 15.7438V10.7692ZM16.2963 18.2969L15.3459 17.83C14.9661 17.6424 14.6451 17.347 14.4201 16.978C14.195 16.609 14.0751 16.1814 14.0741 15.7446V12.3077H18.5185V15.7446C18.5174 16.1813 18.3974 16.6087 18.1723 16.9776C17.9473 17.3464 17.6264 17.6417 17.2467 17.8292L16.2963 18.2969ZM10.3704 10.7692H1.48148C1.08857 10.7692 0.711747 10.9313 0.433916 11.2198C0.156084 11.5084 0 11.8997 0 12.3077V16.1538C0 16.5619 0.156084 16.9532 0.433916 17.2417C0.711747 17.5302 1.08857 17.6923 1.48148 17.6923H10.3704V16.1538H1.48148V12.3077H10.3704V10.7692ZM17.7778 0H14.0741C13.6812 0 13.3043 0.162087 13.0265 0.450605C12.7487 0.739122 12.5926 1.13044 12.5926 1.53846V8.46154H14.0741V1.53846H17.7778V8.46154H19.2593V1.53846C19.2593 1.13044 19.1032 0.739122 18.8253 0.450605C18.5475 0.162087 18.1707 0 17.7778 0ZM8.88889 0H1.48148C1.08857 0 0.711747 0.162087 0.433916 0.450605C0.156084 0.739122 0 1.13044 0 1.53846V6.92308C0 7.3311 0.156084 7.72242 0.433916 8.01093C0.711747 8.29945 1.08857 8.46154 1.48148 8.46154H8.88889C9.2818 8.46154 9.65862 8.29945 9.93645 8.01093C10.2143 7.72242 10.3704 7.3311 10.3704 6.92308V1.53846C10.3704 1.13044 10.2143 0.739122 9.93645 0.450605C9.65862 0.162087 9.2818 0 8.88889 0ZM1.48148 6.92308V1.53846H8.88889V6.92308H1.48148Z" fill="black"/>
</g>
<defs>
<clipPath id="clip0_12_481">
<rect width="20" height="20" fill="white"/>
</clipPath>
</defs>
</svg>
