<svg width="604" height="537" viewBox="0 0 604 537" fill="none" xmlns="http://www.w3.org/2000/svg">
<g clip-path="url(#clip0_15_1408)">
<path d="M577.922 538.241H-34.821C-28.107 518.427 -15.708 501.619 1.77095 496.632C27.339 489.347 54.398 509.379 79.91 501.846C94.404 497.572 105.81 485.115 117.81 474.771C163.045 435.742 225.032 424.206 278.565 444.863C306.544 455.656 332.039 474.53 360.7 482.554C397.763 492.934 436.522 484.326 474.636 482.908C511.748 481.526 564.933 499.032 577.922 538.241Z" fill="#808080"/>
<path d="M76.6818 382.737L35.9803 537.474L41.783 539L82.4844 384.263L76.6818 382.737Z" fill="#883273"/>
<path d="M148.811 383.032L142.883 383.962L167.145 538.701L173.073 537.772L148.811 383.032Z" fill="#883273"/>
<path d="M71.2349 235.067C71.2349 235.067 21.6699 231.936 21.6699 275.241C21.6699 318.546 28.9699 379.067 65.4959 385.849C102.022 392.631 155.977 390.587 168.504 388.464C183.895 385.855 190.604 350.153 170.104 347.764C111.93 340.981 140.104 239.763 71.2349 235.067Z" fill="#883273"/>
<path d="M176.455 509.095L174.569 533.554" stroke="#E98862" stroke-width="21" stroke-miterlimit="10"/>
<path d="M211.644 538.054C212.183 538.052 212.717 537.943 213.214 537.734C213.712 537.526 214.163 537.221 214.543 536.838C214.922 536.455 215.223 536.001 215.427 535.502C215.631 535.003 215.735 534.468 215.733 533.929C215.733 533.829 215.733 533.729 215.72 533.629C215.659 532.849 215.376 532.102 214.906 531.477C214.435 530.852 213.795 530.374 213.062 530.1L188.619 521.913C188.145 521.756 187.644 521.704 187.148 521.759C186.652 521.814 186.174 521.976 185.747 522.233C182.387 524.565 178.367 525.757 174.279 525.633C171.095 525.407 168.039 524.29 165.459 522.41C165.232 522.224 164.957 522.107 164.666 522.072C164.375 522.036 164.08 522.084 163.815 522.21C163.55 522.336 163.327 522.534 163.17 522.782C163.014 523.03 162.931 523.317 162.931 523.61V535.562C162.931 536.272 163.213 536.953 163.715 537.456C164.217 537.958 164.899 538.24 165.609 538.24H165.62L211.644 538.054Z" fill="#883273"/>
<path d="M259.759 509.095L263.873 533.554" stroke="#E98862" stroke-width="21" stroke-miterlimit="10"/>
<path d="M280.813 512.713L234.705 335.325C233.674 331.361 231.358 327.852 228.119 325.346C224.879 322.841 220.9 321.481 216.805 321.48H115.757V321.545H59.1479V338.893C59.1478 343.895 60.1328 348.847 62.0468 353.468C63.9607 358.089 66.7661 362.288 70.3027 365.825C73.8393 369.362 78.0379 372.167 82.6588 374.081C87.2796 375.996 92.2323 376.981 97.2339 376.981H124.844V377.09H173.044L159.772 518.204L196.61 521.668L209.443 385.213L245.003 522.018L280.813 512.713Z" fill="#262626"/>
<path d="M203.823 236.765C203.823 236.765 203.973 224.754 212.558 225.379C217.974 225.773 243.709 224.579 244.092 226.923C245.04 232.723 221.5 234.141 219.364 239.545L203.823 236.765Z" fill="#E98862"/>
<path d="M209.518 225.764C209.518 225.764 221.467 221.864 224.404 222.564C227.004 223.182 221.584 227.414 221.584 227.414L209.518 225.764Z" fill="#E98862"/>
<path d="M179.142 289.468L221.779 239.834L203.405 229.502L169.263 267.913L142.563 220.122C140.037 212.569 134.283 207.509 122.543 207.003C121.913 206.983 120.903 206.953 119.603 206.933C119.343 212.433 85.2729 212.413 84.5529 206.803C74.9329 206.813 67.0329 209.773 62.4729 214.333C46.7229 230.083 66.0529 256.923 66.0529 277.923C66.0529 298.923 56.5529 308.343 57.2529 319.123C58.3529 336.063 140.683 332.063 144.873 322.433C147.683 315.981 144.96 311.133 142.817 299.596H179.141L179.142 289.468ZM140.814 273.919C140.855 270.386 141.128 266.689 141.503 262.927L149.803 277.787H140.817C140.804 276.536 140.799 275.258 140.817 273.919H140.814Z" fill="#700455"/>
<path d="M119.604 206.929C119.344 212.429 116.344 220.519 107.124 221.119C94.814 221.939 85.274 212.409 84.554 206.799H84.594C96.694 206.799 112.534 206.819 119.604 206.929Z" fill="#E98862"/>
<path d="M297.948 538.054C298.487 538.052 299.021 537.943 299.519 537.734C300.016 537.525 300.468 537.221 300.847 536.837C301.227 536.454 301.527 536 301.732 535.5C301.936 535.001 302.039 534.466 302.037 533.927C302.037 533.827 302.037 533.727 302.024 533.627C301.963 532.847 301.68 532.1 301.209 531.475C300.738 530.85 300.098 530.372 299.365 530.098L274.923 521.913C274.449 521.756 273.947 521.704 273.452 521.759C272.956 521.814 272.478 521.976 272.05 522.233C268.69 524.565 264.671 525.757 260.583 525.633C257.399 525.407 254.342 524.29 251.762 522.41C251.535 522.224 251.26 522.107 250.969 522.071C250.678 522.036 250.383 522.084 250.118 522.21C249.854 522.335 249.63 522.534 249.474 522.782C249.317 523.03 249.234 523.317 249.235 523.61V535.562C249.235 536.272 249.517 536.953 250.019 537.456C250.522 537.958 251.203 538.24 251.913 538.24H251.924L297.948 538.054Z" fill="#883273"/>
<path d="M11.2479 309.284H1.85693V538.241H11.2479V309.284Z" fill="#A48EBC"/>
<path d="M464.222 309.284H454.831V538.241H464.222V309.284Z" fill="#883273"/>
<path d="M464.222 306.415H379.527V522.586H464.222V306.415Z" fill="#883273"/>
<path d="M372.009 506.93H362.618V538.241H372.009V506.93Z" fill="#883273"/>
<path d="M477.206 299.828H-11.1261V312.741H477.206V299.828Z" fill="#A48EBC"/>
<path d="M384.222 309.284H374.831V538.241H384.222V309.284Z" fill="#A48EBC"/>
<path d="M292.009 309.284H282.618V538.241H292.009V309.284Z" fill="#A48EBC"/>
<path d="M379.527 312.759H287.314V522.586H379.527V312.759Z" fill="#A48EBC"/>
<path d="M209.265 290.918C203.535 290.581 193.374 289.64 189.135 287.125C191.284 286.469 194.166 285.398 193.895 284.436C193.184 281.905 183.221 283.478 180.241 283.478L179.156 283.523V296.328C179.156 296.328 198.79 303.69 210.346 294.264C210.64 294.024 210.855 293.7 210.962 293.336C211.069 292.972 211.064 292.583 210.947 292.222C210.831 291.861 210.608 291.543 210.307 291.31C210.007 291.078 209.644 290.941 209.265 290.918Z" fill="#E98862"/>
<path d="M265.337 242.033L253.195 293.005C252.864 294.397 253.1 295.864 253.85 297.083C254.6 298.301 255.803 299.173 257.195 299.505C257.604 299.602 258.022 299.651 258.442 299.652H330.026C331.209 299.652 332.358 299.263 333.299 298.546C334.239 297.829 334.919 296.823 335.232 295.683L349.227 244.713C349.447 243.912 349.479 243.071 349.32 242.255C349.162 241.44 348.817 240.672 348.313 240.011C347.81 239.35 347.16 238.815 346.416 238.446C345.671 238.077 344.852 237.885 344.021 237.885H270.589C269.375 237.885 268.196 238.295 267.243 239.047C266.29 239.8 265.618 240.852 265.337 242.033Z" fill="#986BD1"/>
<path d="M227.711 299.654H314.23C314.646 299.654 315.059 299.572 315.444 299.413C315.829 299.253 316.178 299.019 316.473 298.725C316.767 298.43 317.001 298.081 317.16 297.696C317.32 297.311 317.402 296.899 317.402 296.482C317.402 296.065 317.32 295.653 317.16 295.268C317.001 294.883 316.767 294.534 316.473 294.239C316.178 293.944 315.829 293.711 315.444 293.551C315.059 293.392 314.646 293.31 314.23 293.31H227.711C226.87 293.31 226.063 293.644 225.468 294.239C224.873 294.834 224.539 295.641 224.539 296.482C224.539 296.899 224.621 297.311 224.78 297.696C224.94 298.081 225.173 298.43 225.468 298.725C225.763 299.019 226.112 299.253 226.497 299.413C226.882 299.572 227.294 299.654 227.711 299.654Z" fill="#986BD1"/>
<path d="M304.142 276.733C308.818 276.733 312.608 272.943 312.608 268.267C312.608 263.591 308.818 259.801 304.142 259.801C299.466 259.801 295.676 263.591 295.676 268.267C295.676 272.943 299.466 276.733 304.142 276.733Z" fill="#DAD1E5"/>
<path d="M121.065 188.079C126.358 188.079 130.649 183.788 130.649 178.495C130.649 173.202 126.358 168.911 121.065 168.911C115.772 168.911 111.481 173.202 111.481 178.495C111.481 183.788 115.772 188.079 121.065 188.079Z" fill="#A48EBC"/>
<path d="M122.734 179.613C123.092 179.543 123.423 179.377 123.694 179.133C123.964 178.888 124.162 178.575 124.267 178.226C124.517 177.396 127.159 157.865 119.512 146.097C118.292 144.072 116.607 142.366 114.597 141.12C112.588 139.875 110.311 139.125 107.954 138.933C107.692 138.905 107.428 138.929 107.176 139.004C106.923 139.079 106.688 139.202 106.484 139.368C106.28 139.534 106.11 139.738 105.985 139.969C105.86 140.201 105.781 140.454 105.754 140.716C105.64 141.816 106.439 141.799 107.538 141.916C112.869 142.468 113.677 144.562 116.18 148.316C122.927 158.446 120.489 176.888 120.434 177.073C120.334 177.403 120.322 177.754 120.397 178.09C120.473 178.427 120.634 178.738 120.866 178.994C121.097 179.249 121.391 179.441 121.718 179.55C122.046 179.658 122.396 179.679 122.734 179.613Z" fill="#883273"/>
<path d="M118.59 187.853C123.883 187.853 128.174 183.562 128.174 178.269C128.174 172.976 123.883 168.685 118.59 168.685C113.297 168.685 109.006 172.976 109.006 178.269C109.006 183.562 113.297 187.853 118.59 187.853Z" fill="#883273"/>
<path d="M115.39 208.75L114.61 208.84H89.96C91.96 205.52 94.12 199.01 93.12 186.84L109.1 183.88C109.1 183.88 107.3 202.76 115.39 208.75Z" fill="#E98862"/>
<path opacity="0.15" d="M112.114 204.807L98.8409 194.653L109.266 194.545C109.568 198.113 110.534 201.594 112.114 204.807Z" fill="#0D040E"/>
<path d="M84.059 178.679C85.165 185.067 88.651 191.117 94.286 193.179C100.429 195.617 107.075 196.516 113.644 195.795C131.133 194.361 127.674 154.595 119.37 146.868C111.066 139.141 86.697 144.036 83.733 156.956C82.2 163.639 83.006 172.598 84.059 178.679Z" fill="#E98862"/>
<path d="M125.139 148.242C124.617 147.414 123.886 146.738 123.019 146.283C115.253 142.059 100.859 140.598 93.946 142.666C85.926 145.066 75.87 151.789 78.446 168.092C78.555 168.778 78.672 169.44 78.793 170.092C76.26 169.659 73.6568 169.932 71.2685 170.88C68.8802 171.828 66.7989 173.415 65.2527 175.468C63.7064 177.52 62.7548 179.958 62.5022 182.515C62.2495 185.073 62.7055 187.65 63.8203 189.965C64.935 192.281 66.6654 194.244 68.822 195.642C70.9786 197.039 73.4781 197.815 76.0468 197.887C78.6154 197.958 81.1541 197.321 83.3847 196.045C85.6153 194.769 87.4518 192.904 88.693 190.654C89.8829 191.682 91.1684 192.594 92.532 193.377C93.489 193.946 93.72 193.483 94.052 192.42C95.212 188.709 96.352 174.032 95.442 163.375L114.288 162.723L117.572 153.381L120.264 162.723H126.682C127.543 157.658 128.431 151.92 125.139 148.242Z" fill="#231B24"/>
<path d="M109.077 173.758C109.877 173.758 110.526 173.109 110.526 172.309C110.526 171.509 109.877 170.86 109.077 170.86C108.277 170.86 107.628 171.509 107.628 172.309C107.628 173.109 108.277 173.758 109.077 173.758Z" fill="#231B24"/>
<path d="M120.509 172.82C121.309 172.82 121.958 172.171 121.958 171.371C121.958 170.571 121.309 169.922 120.509 169.922C119.709 169.922 119.06 170.571 119.06 171.371C119.06 172.171 119.709 172.82 120.509 172.82Z" fill="#231B24"/>
<path d="M123.02 168.284H123.011L119.172 168.235C118.996 168.227 118.83 168.152 118.708 168.024C118.587 167.896 118.52 167.726 118.521 167.55C118.522 167.374 118.592 167.205 118.715 167.079C118.838 166.953 119.005 166.88 119.181 166.874H119.19L123.028 166.922C123.209 166.923 123.381 166.996 123.508 167.124C123.635 167.253 123.706 167.426 123.705 167.607C123.704 167.788 123.631 167.96 123.503 168.087C123.374 168.214 123.201 168.285 123.02 168.284Z" fill="#231B24"/>
<path d="M105.949 169.683C105.782 169.683 105.622 169.621 105.497 169.51C105.373 169.4 105.294 169.247 105.274 169.082C105.255 168.916 105.297 168.749 105.392 168.613C105.487 168.476 105.629 168.379 105.791 168.34L109.575 167.43C109.662 167.408 109.753 167.403 109.842 167.416C109.932 167.43 110.017 167.46 110.095 167.507C110.172 167.553 110.239 167.615 110.292 167.688C110.346 167.76 110.384 167.843 110.405 167.931C110.426 168.018 110.43 168.109 110.415 168.198C110.401 168.287 110.369 168.373 110.322 168.449C110.274 168.526 110.212 168.592 110.138 168.645C110.065 168.697 109.982 168.734 109.894 168.754L106.11 169.664C106.057 169.677 106.003 169.683 105.949 169.683Z" fill="#231B24"/>
<path d="M101.54 175.854C101.611 176.661 101.522 177.474 101.277 178.246C101.033 179.018 100.638 179.734 100.116 180.353C99.5935 180.972 98.954 181.482 98.234 181.853C97.514 182.224 96.7278 182.449 95.9206 182.515C95.1134 182.58 94.3011 182.486 93.5305 182.237C92.7598 181.988 92.0461 181.589 91.4303 181.063C90.8145 180.536 90.3089 179.894 89.9424 179.172C89.5759 178.449 89.3559 177.662 89.295 176.854C89.2152 176.047 89.2985 175.233 89.54 174.459C89.7814 173.686 90.1761 172.968 90.7004 172.35C91.2248 171.732 91.8681 171.226 92.5922 170.862C93.3162 170.498 94.1062 170.283 94.915 170.23C99.293 170.091 101.262 172.473 101.54 175.854Z" fill="#E98862"/>
<g opacity="0.15">
<path d="M115.509 180.346C115.389 180.346 115.273 180.303 115.183 180.225C115.092 180.147 115.032 180.039 115.014 179.92C114.996 179.802 115.022 179.681 115.086 179.58C115.149 179.478 115.247 179.403 115.362 179.368L118.31 178.463L116.248 173.872C116.219 173.812 116.202 173.746 116.198 173.679C116.195 173.613 116.205 173.546 116.228 173.483C116.25 173.42 116.286 173.362 116.331 173.313C116.377 173.264 116.432 173.225 116.493 173.197C116.554 173.17 116.62 173.155 116.687 173.153C116.754 173.152 116.821 173.164 116.883 173.189C116.945 173.214 117.002 173.251 117.049 173.298C117.097 173.345 117.135 173.401 117.16 173.463L119.454 178.57C119.483 178.635 119.498 178.705 119.498 178.776C119.498 178.847 119.483 178.917 119.454 178.981C119.424 179.046 119.382 179.103 119.328 179.15C119.275 179.197 119.213 179.232 119.145 179.253L115.656 180.324C115.608 180.339 115.559 180.346 115.509 180.346Z" fill="#0D040E"/>
</g>
<path d="M109.748 183.72C109.748 183.72 115.096 184.285 118.848 182.974C118.848 182.974 118.819 186.497 114.586 186.844C110.353 187.191 109.748 183.72 109.748 183.72Z" fill="#F8FCFF"/>
<path d="M86.212 178.465L86.299 178.446C86.8145 178.322 87.2596 177.998 87.5364 177.546C87.8132 177.093 87.899 176.55 87.775 176.034C87.736 175.869 83.908 159.468 91.329 149.545C94.829 144.864 100.383 142.3 107.849 141.92C108.938 141.868 109.802 141.926 109.749 140.82C109.699 140.298 109.456 139.814 109.067 139.463C108.679 139.111 108.173 138.918 107.649 138.92C100.775 138.405 92.364 141.472 88.118 147.159C79.576 158.601 83.709 176.223 83.89 176.968C84.0102 177.468 84.3185 177.903 84.751 178.182C85.1834 178.461 85.7067 178.562 86.212 178.465Z" fill="#883273"/>
<path d="M89.058 188.43C94.3511 188.43 98.642 184.139 98.642 178.846C98.642 173.553 94.3511 169.262 89.058 169.262C83.7649 169.262 79.474 173.553 79.474 178.846C79.474 184.139 83.7649 188.43 89.058 188.43Z" fill="#883273"/>
<path d="M86.1139 188.718C91.407 188.718 95.6979 184.427 95.6979 179.134C95.6979 173.841 91.407 169.55 86.1139 169.55C80.8208 169.55 76.5299 173.841 76.5299 179.134C76.5299 184.427 80.8208 188.718 86.1139 188.718Z" fill="#A48EBC"/>
<path d="M87.272 184.192C87.7334 186.291 88.33 188.359 89.058 190.381C90.215 192.296 106.598 191.432 106.598 191.432" stroke="#A48EBC" stroke-width="3" stroke-linecap="round" stroke-linejoin="round"/>
<path d="M106.248 193.81H108.279C109.574 193.81 110.624 192.76 110.624 191.465C110.624 190.17 109.574 189.12 108.279 189.12H106.248C104.953 189.12 103.903 190.17 103.903 191.465C103.903 192.76 104.953 193.81 106.248 193.81Z" fill="#883273"/>
<path d="M232.33 210.761L244.825 201.291H361.024V124.692H232.33V210.761Z" fill="#A48EBC"/>
<path d="M490.886 122.717C524.549 122.717 551.838 95.4278 551.838 61.765C551.838 28.1021 524.549 0.812988 490.886 0.812988C457.223 0.812988 429.934 28.1021 429.934 61.765C429.934 95.4278 457.223 122.717 490.886 122.717Z" fill="#A48EBC"/>
<path d="M456.479 79.457C456.479 79.457 451.646 71.78 451.844 69.701C452.042 67.622 458.082 65.519 458.082 65.519C458.082 65.519 457.208 63.681 456.429 61.663C455.529 59.334 454.758 56.763 455.601 56.512C456.414 56.265 457.647 58.378 458.777 60.834C460.229 63.988 461.51 67.706 461.51 67.706C461.51 67.706 461.643 64.034 463.001 64.268C463.559 64.368 463.795 65.027 463.801 67.66C463.801 70.66 464.27 75.336 464.27 75.336L456.479 79.457Z" fill="#E98862"/>
<path d="M471.823 113.872C470.423 113.871 469.056 113.453 467.895 112.671C466.734 111.889 465.833 110.779 465.306 109.482L452.657 78.33L465.696 73.03L469.526 82.462L472.533 67.437L486.333 70.199L478.726 108.213C478.429 109.697 477.661 111.045 476.537 112.058C475.414 113.071 473.993 113.695 472.487 113.838C472.265 113.861 472.043 113.872 471.823 113.872Z" fill="#700455"/>
<path d="M448.986 88.613L456.81 87.364C457.118 87.315 457.412 87.2015 457.673 87.031C457.933 86.8604 458.155 86.6366 458.323 86.3743C458.492 86.112 458.603 85.817 458.649 85.5089C458.695 85.2007 458.676 84.8862 458.592 84.586L453.67 66.919C453.524 66.3955 453.191 65.9439 452.733 65.6505C452.276 65.3571 451.727 65.2423 451.19 65.328L443.367 66.577C443.059 66.626 442.765 66.7395 442.504 66.9101C442.244 67.0806 442.022 67.3044 441.853 67.5667C441.685 67.829 441.574 68.1239 441.528 68.4321C441.481 68.7403 441.5 69.0548 441.584 69.355L446.507 87.022C446.653 87.5452 446.986 87.9965 447.443 88.2899C447.901 88.5833 448.45 88.6983 448.986 88.613Z" fill="#883273"/>
<path d="M461.586 83.985L456.972 90.246C456.972 90.246 444.572 87.76 443.406 78.205C443.272 77.105 443.388 74.062 444.75 74.47C448.299 75.534 452.718 80.981 455.816 81.705C455.109 80.439 454.246 78.652 454.803 78.325C456.265 77.466 460.199 82.653 461.586 83.985Z" fill="#E98862"/>
<path d="M521.651 105.365C521.645 108.223 521.935 111.074 522.516 113.872C515.017 118.418 506.626 121.294 497.916 122.307C489.205 123.319 480.379 122.443 472.037 119.739C473.072 114.151 473.529 108.471 473.399 102.79C473.392 102.409 473.386 102.022 473.373 101.628L453.836 93.013L459.509 80.136L471.792 85.552C470.32 72.262 470.275 60.238 485.197 59.592C485.604 59.573 486.256 59.56 487.097 59.547C487.265 63.097 509.248 63.084 509.713 59.463C515.922 59.47 521.013 61.374 523.964 64.323C534.127 74.488 521.651 91.813 521.651 105.365Z" fill="#700455"/>
<path d="M487.095 59.546C487.263 63.096 489.195 68.318 495.15 68.711C503.089 69.234 509.25 63.083 509.711 59.462H509.692C501.879 59.462 491.652 59.475 487.095 59.546Z" fill="#E98862"/>
<path d="M503.679 51.239C503.672 51.122 503.672 51.006 503.672 50.889C503.672 49.712 503.717 48.43 503.834 47.033L502.371 46.761L493.503 45.113C493.678 47.4115 493.641 49.7213 493.393 52.013C493.367 52.272 493.335 52.538 493.293 52.803C493.291 52.8271 493.287 52.851 493.28 52.874C493.229 53.223 493.17 53.574 493.106 53.922C493.067 54.149 493.021 54.375 492.97 54.602C492.918 54.893 492.847 55.178 492.77 55.463C492.693 55.748 492.615 56.026 492.524 56.304C492.433 56.582 492.349 56.854 492.246 57.119C492.057 57.643 491.828 58.1515 491.56 58.64V58.646C491.07 59.604 490.382 60.4467 489.541 61.118H505.799C504.779 59.367 503.734 56.332 503.679 51.239Z" fill="#E98862"/>
<path opacity="0.15" d="M491.551 58.658L500.14 52.087L493.394 52.017C493.199 54.3262 492.574 56.5786 491.551 58.658Z" fill="#0D040E"/>
<path d="M509.706 41.75C508.99 45.884 506.734 49.799 503.088 51.134C498.759 52.719 495.552 52.826 490.561 52.826C483.75 52.826 483.975 45.726 483.784 38.565C483.592 31.378 484.163 23.665 486.855 21.165C492.229 16.165 507.999 19.332 509.917 27.693C510.909 32.013 510.387 37.813 509.706 41.75Z" fill="#E98862"/>
<path d="M480.133 25.32C479.766 25.2487 479.418 25.1006 479.112 24.8854C478.806 24.6702 478.549 24.3927 478.358 24.0712C478.166 23.7497 478.045 23.3914 478.002 23.0198C477.959 22.6482 477.995 22.2717 478.108 21.915C478.614 20.071 480.977 20.48 480.977 20.48C480.977 20.48 478.739 20.071 478.739 18.117C478.739 16.886 479.685 14.801 482.539 15.993C485.765 17.1557 489.248 17.4086 492.608 16.724C494.251 16.3656 495.918 16.1316 497.596 16.024H497.605C499.533 15.9916 501.454 16.2488 503.305 16.787C508.494 18.34 516.349 22.994 514.679 33.543C512.818 45.313 507.294 49.813 504.863 51.259C504.719 51.3457 504.558 51.3987 504.39 51.4137C504.223 51.4288 504.055 51.4057 503.898 51.346C503.741 51.2864 503.6 51.1918 503.485 51.0695C503.37 50.9472 503.284 50.8003 503.234 50.64C502.544 48.433 501.355 42.881 501.689 31.432C485.736 30.65 481.146 30.412 481.146 30.412C481.146 30.412 477.39 30.553 477.39 27.812C477.376 27.4591 477.44 27.1075 477.577 26.7818C477.713 26.4562 477.92 26.1644 478.181 25.9269C478.442 25.6894 478.752 25.5121 479.09 25.4072C479.427 25.3024 479.783 25.2726 480.133 25.32Z" fill="#231B24"/>
<path d="M493.516 38.5649C494.034 38.5649 494.453 38.1454 494.453 37.6279C494.453 37.1104 494.034 36.6909 493.516 36.6909C492.999 36.6909 492.579 37.1104 492.579 37.6279C492.579 38.1454 492.999 38.5649 493.516 38.5649Z" fill="#231B24"/>
<path d="M486.118 37.958C486.636 37.958 487.055 37.5385 487.055 37.021C487.055 36.5035 486.636 36.084 486.118 36.084C485.601 36.084 485.181 36.5035 485.181 37.021C485.181 37.5385 485.601 37.958 486.118 37.958Z" fill="#231B24"/>
<path d="M484.494 35.023L486.978 34.992C487.091 34.9866 487.198 34.9378 487.276 34.8558C487.354 34.7738 487.398 34.6648 487.398 34.5515C487.398 34.4381 487.354 34.3292 487.276 34.2471C487.198 34.1651 487.091 34.1164 486.978 34.111H486.972L484.488 34.142C484.375 34.1481 484.268 34.1975 484.191 34.2801C484.113 34.3627 484.07 34.472 484.071 34.5853C484.072 34.6987 484.116 34.8074 484.195 34.8889C484.274 34.9704 484.381 35.0184 484.494 35.023Z" fill="#231B24"/>
<path d="M495.54 35.928C495.648 35.9275 495.751 35.8876 495.832 35.8158C495.912 35.744 495.963 35.6453 495.975 35.5384C495.987 35.4314 495.96 35.3237 495.898 35.2356C495.837 35.1474 495.745 35.085 495.64 35.06L493.191 34.47C493.134 34.4541 493.074 34.4498 493.015 34.4574C492.957 34.4651 492.9 34.4845 492.849 34.5145C492.798 34.5445 492.753 34.5846 492.718 34.6322C492.683 34.6798 492.657 34.734 492.644 34.7917C492.63 34.8493 492.628 34.9091 492.637 34.9676C492.647 35.026 492.669 35.0819 492.701 35.1319C492.732 35.1819 492.774 35.2249 492.823 35.2584C492.872 35.2919 492.927 35.3153 492.985 35.327L495.433 35.916C495.468 35.9246 495.504 35.9287 495.54 35.928Z" fill="#231B24"/>
<path d="M498.394 39.922C498.346 40.4451 498.402 40.9725 498.559 41.4738C498.716 41.9751 498.971 42.4403 499.309 42.8425C499.647 43.2447 500.061 43.576 500.527 43.8171C500.994 44.0583 501.504 44.2046 502.027 44.2476C502.551 44.2905 503.078 44.2293 503.577 44.0674C504.077 43.9055 504.54 43.6462 504.939 43.3044C505.338 42.9626 505.665 42.5452 505.901 42.0762C506.138 41.6072 506.279 41.096 506.317 40.572C506.369 40.05 506.315 39.5229 506.159 39.0221C506.003 38.5213 505.747 38.057 505.408 37.657C505.069 37.257 504.652 36.9293 504.184 36.6936C503.715 36.4579 503.204 36.319 502.68 36.285C499.847 36.193 498.573 37.734 498.394 39.922Z" fill="#E98862"/>
<g opacity="0.15">
<path d="M489.354 42.828C489.432 42.8295 489.508 42.8027 489.568 42.7527C489.627 42.7026 489.667 42.6326 489.679 42.5556C489.691 42.4786 489.675 42.3997 489.634 42.3337C489.593 42.2676 489.529 42.2187 489.454 42.196L487.547 41.61L488.881 38.64C488.916 38.5617 488.919 38.4725 488.888 38.3921C488.858 38.3118 488.797 38.2468 488.719 38.2115C488.64 38.1763 488.551 38.1736 488.471 38.204C488.39 38.2345 488.325 38.2957 488.29 38.374L486.806 41.679C486.787 41.7209 486.778 41.7662 486.778 41.812C486.778 41.8579 486.788 41.9031 486.807 41.9448C486.826 41.9866 486.853 42.0239 486.888 42.0542C486.922 42.0846 486.962 42.1074 487.006 42.121L489.259 42.813C489.29 42.8229 489.322 42.828 489.354 42.828Z" fill="#0D040E"/>
</g>
<path d="M493.079 45.013C491.104 45.2111 489.109 45.0477 487.192 44.531C487.311 45.194 487.647 45.799 488.145 46.2519C488.644 46.7047 489.279 46.9801 489.95 47.035C490.622 47.09 491.292 46.9216 491.858 46.5559C492.424 46.1902 492.853 45.6478 493.079 45.013Z" fill="#F8FCFF"/>
<path d="M533.479 492.836C526.916 490.952 521.979 485.08 520.012 478.536C518.045 471.992 518.741 464.899 520.658 458.345C522.223 452.997 524.594 447.827 525.178 442.285C527.124 423.831 509.225 404.977 517.648 388.443C520.372 383.097 525.648 378.918 526.583 372.992C527.361 368.092 524.947 363.328 523.746 358.513C522.095 351.887 522.932 344.367 527.231 339.061C531.53 333.755 539.654 331.436 545.578 334.834C553.327 339.279 553.998 350.252 552.007 358.959C550.016 367.666 546.325 376.625 548.758 385.219C551.077 393.411 558.624 399.58 559.977 407.985C561.102 414.973 557.691 421.785 556.192 428.703C553.837 439.575 556.234 450.844 556.337 461.967C556.44 473.09 553.299 485.568 533.479 492.836Z" fill="#C5A5BD"/>
<path d="M523.349 493.893C519.443 492.652 515.938 490.393 513.194 487.349C510.45 484.305 508.565 480.586 507.733 476.573C506.448 469.954 508.025 462.52 504.403 456.833C499.494 449.133 494.46 448.257 488.349 441.466C478.949 431.023 478.623 426.398 479.242 407.058C479.505 398.879 468.211 389.648 472.188 381.79C475.688 374.867 486.344 374.831 492.388 379.703C498.432 384.575 501.081 392.384 503.714 399.685C506.347 406.986 509.664 414.708 516.336 418.671C520.336 421.047 525.575 422.145 527.786 426.241C529.562 429.532 528.667 433.548 527.953 437.219C526.159 446.446 526.608 457.701 534.353 463.03C537.846 465.43 542.421 466.262 545.293 469.382C548.133 472.468 548.593 477.039 548.398 481.227C548.021 489.28 545.802 497.139 541.912 504.201" fill="#A48EBC"/>
<path d="M532.687 500.318C529.272 496.25 527.214 491.216 526.8 485.92C526.386 480.625 527.638 475.332 530.379 470.783C535.119 463.273 543.953 458.1 545.808 449.414C547.46 441.678 542.878 433.684 544.25 425.894C545.742 417.422 553.568 411.863 559.784 405.918C561.402 404.473 562.794 402.793 563.912 400.934C566.647 396.013 565.884 389.976 566.812 384.423C568.59 373.79 577.351 364.358 587.988 362.6C597.317 361.059 603.999 366.418 603.999 376.287C603.999 387.979 595.241 392.987 590.772 398.287C584.355 405.95 580.949 415.689 581.191 425.682C581.506 436.844 586.258 448.728 581.181 458.673C577.455 465.973 569.496 469.863 563.242 475.159C558.517 479.208 554.67 484.181 551.939 489.772C549.208 495.364 547.65 501.455 547.361 507.671" fill="#808080"/>
<path d="M562.774 481.986H506.519V538.241H562.774V481.986Z" fill="#5F338E"/>
<g opacity="0.42">
<path d="M562.774 492.955H506.519V503.936H562.774V492.955Z" fill="#DAD1E5"/>
</g>
<path d="M408.925 107.235L393.269 95.721C393.269 95.721 324.686 95.721 290.394 95.721V21.933H408.925V107.235Z" fill="#883273"/>
<path d="M397.522 36.736H301.797V43.323H397.522V36.736Z" fill="#DAD1E5"/>
<path d="M397.522 55.179H301.797V61.766H397.522V55.179Z" fill="#DAD1E5"/>
<path d="M397.522 73.621H301.797V80.208H397.522V73.621Z" fill="#DAD1E5"/>
<path d="M349.297 140.435H243.997V146.305H349.297V140.435Z" fill="#DAD1E5"/>
<path d="M349.297 159.69H243.997V165.56H349.297V159.69Z" fill="#DAD1E5"/>
<path d="M349.297 178.946H243.997V184.816H349.297V178.946Z" fill="#DAD1E5"/>
</g>
<defs>
<clipPath id="clip0_15_1408">
<rect width="638.821" height="538.187" fill="white" transform="translate(-34.821 0.812988)"/>
</clipPath>
</defs>
</svg>
