<svg width="60" height="71" viewBox="0 0 60 71" fill="none" xmlns="http://www.w3.org/2000/svg">
<path d="M55.3946 20.2517L38.7808 20.2517C38.4651 20.2517 38.1622 20.1207 37.9389 19.8876C37.7156 19.6545 37.5902 19.3384 37.5902 19.0088V6.38353C37.5902 6.05405 37.7156 5.73806 37.9388 5.50508C38.1619 5.2721 38.4647 5.14121 38.7803 5.14121L55.3951 5.14121C55.7107 5.14121 56.0134 5.2721 56.2366 5.50508C56.4598 5.73806 56.5852 6.05405 56.5852 6.38353V19.0088C56.5852 19.3384 56.4598 19.6545 56.2365 19.8876C56.0132 20.1207 55.7103 20.2517 55.3946 20.2517Z" fill="white"/>
<path d="M37.5405 19.0087V6.38344C37.5405 6.04019 37.6712 5.71099 37.9037 5.46827C38.1362 5.22555 38.4515 5.0892 38.7804 5.0892H55.3952C55.724 5.0892 56.0394 5.22555 56.2719 5.46827C56.5044 5.71099 56.635 6.04019 56.635 6.38344V19.0087C56.635 19.1787 56.6029 19.3471 56.5406 19.5042C56.4783 19.6613 56.3869 19.804 56.2717 19.9243C56.1565 20.0445 56.0198 20.1399 55.8693 20.2049C55.7188 20.27 55.5575 20.3035 55.3946 20.3035H38.7809C38.618 20.3035 38.4567 20.27 38.3062 20.2049C38.1558 20.1399 38.019 20.0445 37.9038 19.9243C37.7887 19.804 37.6973 19.6613 37.6349 19.5042C37.5726 19.3471 37.5405 19.1787 37.5405 19.0087ZM38.7804 5.19305C38.478 5.19314 38.188 5.3186 37.9742 5.54183C37.7604 5.76506 37.6403 6.06779 37.6403 6.38344V19.0087C37.6403 19.3245 37.7605 19.6275 37.9745 19.8508C38.1885 20.0742 38.4787 20.1996 38.7812 20.1996H55.3946C55.6972 20.1996 55.9874 20.0742 56.2014 19.8508C56.4153 19.6275 56.5355 19.3245 56.5355 19.0087V6.38344C56.5355 6.06773 56.4154 5.76495 56.2015 5.54171C55.9877 5.31847 55.6976 5.19305 55.3952 5.19305H38.7804Z" fill="#292A2E"/>
<path d="M37.5903 6.38328V7.43524H56.5851V6.38328C56.5851 6.05379 56.4597 5.73781 56.2365 5.50483C56.0133 5.27185 55.7106 5.14096 55.395 5.14096H38.7803C38.6241 5.14096 38.4693 5.17309 38.3249 5.23553C38.1805 5.29796 38.0494 5.38947 37.9389 5.50483C37.8283 5.62019 37.7407 5.75715 37.6809 5.90787C37.6211 6.05859 37.5903 6.22014 37.5903 6.38328Z" fill="#292A2E"/>
<path d="M44.0772 9.13571H43.1809C43.1704 9.13571 43.1602 9.13133 43.1528 9.12354C43.1453 9.11575 43.1411 9.10518 43.1411 9.09416C43.1411 9.08315 43.1453 9.07258 43.1528 9.06479C43.1602 9.057 43.1704 9.05262 43.1809 9.05262H44.0772C44.0878 9.05262 44.0979 9.057 44.1054 9.06479C44.1128 9.07258 44.117 9.08315 44.117 9.09416C44.117 9.10518 44.1128 9.11575 44.1054 9.12354C44.0979 9.13133 44.0878 9.13571 44.0772 9.13571Z" fill="#292A2E"/>
<path d="M42.5347 9.13571H42.1956C42.185 9.13571 42.1749 9.13133 42.1674 9.12354C42.16 9.11575 42.1558 9.10518 42.1558 9.09416C42.1558 9.08315 42.16 9.07258 42.1674 9.06479C42.1749 9.057 42.185 9.05262 42.1956 9.05262H42.5347C42.5453 9.05262 42.5554 9.057 42.5629 9.06479C42.5703 9.07258 42.5745 9.08315 42.5745 9.09416C42.5745 9.10518 42.5703 9.11575 42.5629 9.12354C42.5554 9.13133 42.5453 9.13571 42.5347 9.13571Z" fill="#367CFF"/>
<path d="M42.5347 9.88515H42.1956C42.185 9.88515 42.1749 9.88077 42.1674 9.87298C42.16 9.86519 42.1558 9.85462 42.1558 9.84361C42.1558 9.83259 42.16 9.82202 42.1674 9.81423C42.1749 9.80644 42.185 9.80206 42.1956 9.80206H42.5347C42.5453 9.80206 42.5554 9.80644 42.5629 9.81423C42.5703 9.82202 42.5745 9.83259 42.5745 9.84361C42.5745 9.85462 42.5703 9.86519 42.5629 9.87298C42.5554 9.88077 42.5453 9.88515 42.5347 9.88515Z" fill="#367CFF"/>
<path d="M42.5347 10.6346H42.1956C42.185 10.6346 42.1749 10.6302 42.1674 10.6224C42.16 10.6146 42.1558 10.6041 42.1558 10.593C42.1558 10.582 42.16 10.5715 42.1674 10.5637C42.1749 10.5559 42.185 10.5515 42.1956 10.5515H42.5347C42.5453 10.5515 42.5554 10.5559 42.5629 10.5637C42.5703 10.5715 42.5745 10.582 42.5745 10.593C42.5745 10.6041 42.5703 10.6146 42.5629 10.6224C42.5554 10.6302 42.5453 10.6346 42.5347 10.6346Z" fill="#367CFF"/>
<path d="M42.5347 11.384H42.1956C42.185 11.384 42.1749 11.3797 42.1674 11.3719C42.16 11.3641 42.1558 11.3535 42.1558 11.3425C42.1558 11.3315 42.16 11.3209 42.1674 11.3131C42.1749 11.3053 42.185 11.3009 42.1956 11.3009H42.5347C42.5453 11.3009 42.5554 11.3053 42.5629 11.3131C42.5703 11.3209 42.5745 11.3315 42.5745 11.3425C42.5745 11.3535 42.5703 11.3641 42.5629 11.3719C42.5554 11.3797 42.5453 11.384 42.5347 11.384Z" fill="#367CFF"/>
<path d="M42.5347 12.1335H42.1956C42.185 12.1335 42.1749 12.1291 42.1674 12.1213C42.16 12.1135 42.1558 12.103 42.1558 12.0919C42.1558 12.0809 42.16 12.0704 42.1674 12.0626C42.1749 12.0548 42.185 12.0504 42.1956 12.0504H42.5347C42.5453 12.0504 42.5554 12.0548 42.5629 12.0626C42.5703 12.0704 42.5745 12.0809 42.5745 12.0919C42.5745 12.103 42.5703 12.1135 42.5629 12.1213C42.5554 12.1291 42.5453 12.1335 42.5347 12.1335Z" fill="#367CFF"/>
<path d="M42.5347 12.8829H42.1956C42.185 12.8829 42.1749 12.8785 42.1674 12.8708C42.16 12.863 42.1558 12.8524 42.1558 12.8414C42.1558 12.8304 42.16 12.8198 42.1674 12.812C42.1749 12.8042 42.185 12.7998 42.1956 12.7998H42.5347C42.5453 12.7998 42.5554 12.8042 42.5629 12.812C42.5703 12.8198 42.5745 12.8304 42.5745 12.8414C42.5745 12.8524 42.5703 12.863 42.5629 12.8708C42.5554 12.8785 42.5453 12.8829 42.5347 12.8829Z" fill="#367CFF"/>
<path d="M42.5347 13.6324H42.1956C42.185 13.6324 42.1749 13.628 42.1674 13.6202C42.16 13.6124 42.1558 13.6018 42.1558 13.5908C42.1558 13.5798 42.16 13.5692 42.1674 13.5614C42.1749 13.5537 42.185 13.5493 42.1956 13.5493H42.5347C42.5453 13.5493 42.5554 13.5537 42.5629 13.5614C42.5703 13.5692 42.5745 13.5798 42.5745 13.5908C42.5745 13.6018 42.5703 13.6124 42.5629 13.6202C42.5554 13.628 42.5453 13.6324 42.5347 13.6324Z" fill="#367CFF"/>
<path d="M42.5347 14.3818H42.1956C42.185 14.3818 42.1749 14.3774 42.1674 14.3696C42.16 14.3618 42.1558 14.3513 42.1558 14.3403C42.1558 14.3292 42.16 14.3187 42.1674 14.3109C42.1749 14.3031 42.185 14.2987 42.1956 14.2987H42.5347C42.5453 14.2987 42.5554 14.3031 42.5629 14.3109C42.5703 14.3187 42.5745 14.3292 42.5745 14.3403C42.5745 14.3513 42.5703 14.3618 42.5629 14.3696C42.5554 14.3774 42.5453 14.3818 42.5347 14.3818Z" fill="#367CFF"/>
<path d="M42.5347 15.1313H42.1956C42.185 15.1313 42.1749 15.1269 42.1674 15.1191C42.16 15.1113 42.1558 15.1007 42.1558 15.0897C42.1558 15.0787 42.16 15.0681 42.1674 15.0603C42.1749 15.0525 42.185 15.0482 42.1956 15.0482H42.5347C42.5453 15.0482 42.5554 15.0525 42.5629 15.0603C42.5703 15.0681 42.5745 15.0787 42.5745 15.0897C42.5745 15.1007 42.5703 15.1113 42.5629 15.1191C42.5554 15.1269 42.5453 15.1313 42.5347 15.1313Z" fill="#367CFF"/>
<path d="M42.5347 15.8807H42.1956C42.185 15.8807 42.1749 15.8763 42.1674 15.8685C42.16 15.8608 42.1558 15.8502 42.1558 15.8392C42.1558 15.8281 42.16 15.8176 42.1674 15.8098C42.1749 15.802 42.185 15.7976 42.1956 15.7976H42.5347C42.5453 15.7976 42.5554 15.802 42.5629 15.8098C42.5703 15.8176 42.5745 15.8281 42.5745 15.8392C42.5745 15.8502 42.5703 15.8608 42.5629 15.8685C42.5554 15.8763 42.5453 15.8807 42.5347 15.8807Z" fill="#367CFF"/>
<path d="M42.5347 16.6302H42.1956C42.185 16.6302 42.1749 16.6258 42.1674 16.618C42.16 16.6102 42.1558 16.5996 42.1558 16.5886C42.1558 16.5776 42.16 16.567 42.1674 16.5592C42.1749 16.5514 42.185 16.5471 42.1956 16.5471H42.5347C42.5453 16.5471 42.5554 16.5514 42.5629 16.5592C42.5703 16.567 42.5745 16.5776 42.5745 16.5886C42.5745 16.5996 42.5703 16.6102 42.5629 16.618C42.5554 16.6258 42.5453 16.6302 42.5347 16.6302Z" fill="#367CFF"/>
<path d="M42.5347 17.3796H42.1956C42.185 17.3796 42.1749 17.3752 42.1674 17.3674C42.16 17.3596 42.1558 17.3491 42.1558 17.3381C42.1558 17.327 42.16 17.3165 42.1674 17.3087C42.1749 17.3009 42.185 17.2965 42.1956 17.2965H42.5347C42.5453 17.2965 42.5554 17.3009 42.5629 17.3087C42.5703 17.3165 42.5745 17.327 42.5745 17.3381C42.5745 17.3491 42.5703 17.3596 42.5629 17.3674C42.5554 17.3752 42.5453 17.3796 42.5347 17.3796Z" fill="#367CFF"/>
<path d="M42.5347 18.129H42.1956C42.185 18.129 42.1749 18.1247 42.1674 18.1169C42.16 18.1091 42.1558 18.0985 42.1558 18.0875C42.1558 18.0765 42.16 18.0659 42.1674 18.0581C42.1749 18.0503 42.185 18.046 42.1956 18.046H42.5347C42.5453 18.046 42.5554 18.0503 42.5629 18.0581C42.5703 18.0659 42.5745 18.0765 42.5745 18.0875C42.5745 18.0985 42.5703 18.1091 42.5629 18.1169C42.5554 18.1247 42.5453 18.129 42.5347 18.129Z" fill="#367CFF"/>
<path d="M42.5347 18.8786H42.1956C42.185 18.8786 42.1749 18.8742 42.1674 18.8664C42.16 18.8586 42.1558 18.848 42.1558 18.837C42.1558 18.826 42.16 18.8154 42.1674 18.8077C42.1749 18.7999 42.185 18.7955 42.1956 18.7955H42.5347C42.5453 18.7955 42.5554 18.7999 42.5629 18.8077C42.5703 18.8154 42.5745 18.826 42.5745 18.837C42.5745 18.848 42.5703 18.8586 42.5629 18.8664C42.5554 18.8742 42.5453 18.8786 42.5347 18.8786Z" fill="#367CFF"/>
<path d="M44.7935 9.88515H43.9768C43.9663 9.88515 43.9561 9.88077 43.9487 9.87298C43.9412 9.86519 43.937 9.85462 43.937 9.84361C43.937 9.83259 43.9412 9.82202 43.9487 9.81423C43.9561 9.80644 43.9663 9.80206 43.9768 9.80206H44.7935C44.8041 9.80206 44.8142 9.80644 44.8217 9.81423C44.8291 9.82202 44.8333 9.83259 44.8333 9.84361C44.8333 9.85462 44.8291 9.86519 44.8217 9.87298C44.8142 9.88077 44.8041 9.88515 44.7935 9.88515Z" fill="#292A2E"/>
<path d="M44.0772 14.3818H43.1809C43.1704 14.3818 43.1602 14.3774 43.1528 14.3696C43.1453 14.3619 43.1411 14.3513 43.1411 14.3403C43.1411 14.3293 43.1453 14.3187 43.1528 14.3109C43.1602 14.3031 43.1704 14.2987 43.1809 14.2987H44.0772C44.0878 14.2987 44.0979 14.3031 44.1054 14.3109C44.1128 14.3187 44.117 14.3293 44.117 14.3403C44.117 14.3513 44.1128 14.3619 44.1054 14.3696C44.0979 14.3774 44.0878 14.3818 44.0772 14.3818Z" fill="#292A2E"/>
<path d="M44.7935 15.1313H43.9768C43.9663 15.1313 43.9561 15.1269 43.9487 15.1191C43.9412 15.1113 43.937 15.1007 43.937 15.0897C43.937 15.0787 43.9412 15.0681 43.9487 15.0603C43.9561 15.0525 43.9663 15.0482 43.9768 15.0482H44.7935C44.8041 15.0482 44.8142 15.0525 44.8217 15.0603C44.8291 15.0681 44.8333 15.0787 44.8333 15.0897C44.8333 15.1007 44.8291 15.1113 44.8217 15.1191C44.8142 15.1269 44.8041 15.1313 44.7935 15.1313Z" fill="#292A2E"/>
<path d="M49.41 10.6346H44.5339C44.5234 10.6346 44.5133 10.6302 44.5058 10.6224C44.4983 10.6146 44.4941 10.6041 44.4941 10.593C44.4941 10.582 44.4983 10.5715 44.5058 10.5637C44.5133 10.5559 44.5234 10.5515 44.5339 10.5515H49.41C49.4205 10.5515 49.4306 10.5559 49.4381 10.5637C49.4456 10.5715 49.4498 10.582 49.4498 10.593C49.4498 10.6041 49.4456 10.6146 49.4381 10.6224C49.4306 10.6302 49.4205 10.6346 49.41 10.6346Z" fill="#292A2E"/>
<path d="M53.715 10.6346H50.2717C50.2612 10.6346 50.2511 10.6302 50.2436 10.6224C50.2361 10.6146 50.2319 10.6041 50.2319 10.593C50.2319 10.582 50.2361 10.5715 50.2436 10.5637C50.2511 10.5559 50.2612 10.5515 50.2717 10.5515H53.715C53.7255 10.5515 53.7357 10.5559 53.7431 10.5637C53.7506 10.5715 53.7548 10.582 53.7548 10.593C53.7548 10.6041 53.7506 10.6146 53.7431 10.6224C53.7357 10.6302 53.7255 10.6346 53.715 10.6346Z" fill="#0CBC8B"/>
<path d="M55.563 10.6346H54.5076C54.497 10.6346 54.4869 10.6302 54.4794 10.6224C54.472 10.6146 54.4678 10.6041 54.4678 10.593C54.4678 10.582 54.472 10.5715 54.4794 10.5637C54.4869 10.5559 54.497 10.5515 54.5076 10.5515H55.563C55.5735 10.5515 55.5837 10.5559 55.5911 10.5637C55.5986 10.5715 55.6028 10.582 55.6028 10.593C55.6028 10.6041 55.5986 10.6146 55.5911 10.6224C55.5837 10.6302 55.5735 10.6346 55.563 10.6346Z" fill="#292A2E"/>
<path d="M51.7978 12.1335H44.5339C44.5234 12.1335 44.5133 12.1291 44.5058 12.1213C44.4983 12.1135 44.4941 12.103 44.4941 12.0919C44.4941 12.0809 44.4983 12.0704 44.5058 12.0626C44.5133 12.0548 44.5234 12.0504 44.5339 12.0504H51.7978C51.8083 12.0504 51.8185 12.0548 51.8259 12.0626C51.8334 12.0704 51.8376 12.0809 51.8376 12.0919C51.8376 12.103 51.8334 12.1135 51.8259 12.1213C51.8185 12.1291 51.8083 12.1335 51.7978 12.1335Z" fill="#292A2E"/>
<path d="M53.7151 12.1335H52.6597C52.6491 12.1335 52.639 12.1291 52.6315 12.1213C52.6241 12.1135 52.6199 12.103 52.6199 12.0919C52.6199 12.0809 52.6241 12.0704 52.6315 12.0626C52.639 12.0548 52.6491 12.0504 52.6597 12.0504H53.7151C53.7256 12.0504 53.7358 12.0548 53.7432 12.0626C53.7507 12.0704 53.7549 12.0809 53.7549 12.0919C53.7549 12.103 53.7507 12.1135 53.7432 12.1213C53.7358 12.1291 53.7256 12.1335 53.7151 12.1335Z" fill="#367CFF"/>
<path d="M45.4302 11.384H44.5339C44.5234 11.384 44.5133 11.3797 44.5058 11.3719C44.4983 11.3641 44.4941 11.3535 44.4941 11.3425C44.4941 11.3315 44.4983 11.3209 44.5058 11.3131C44.5133 11.3053 44.5234 11.3009 44.5339 11.3009H45.4302C45.4408 11.3009 45.4509 11.3053 45.4584 11.3131C45.4658 11.3209 45.47 11.3315 45.47 11.3425C45.47 11.3535 45.4658 11.3641 45.4584 11.3719C45.4509 11.3797 45.4408 11.384 45.4302 11.384Z" fill="#0CBC8B"/>
<path d="M51.3274 11.384H46.2922C46.2817 11.384 46.2716 11.3797 46.2641 11.3719C46.2566 11.3641 46.2524 11.3535 46.2524 11.3425C46.2524 11.3315 46.2566 11.3209 46.2641 11.3131C46.2716 11.3053 46.2817 11.3009 46.2922 11.3009H51.3274C51.3379 11.3009 51.3481 11.3053 51.3555 11.3131C51.363 11.3209 51.3672 11.3315 51.3672 11.3425C51.3672 11.3535 51.363 11.3641 51.3555 11.3719C51.3481 11.3797 51.3379 11.384 51.3274 11.384Z" fill="#367CFF"/>
<path d="M55.5699 11.384H52.2856C52.2751 11.384 52.265 11.3797 52.2575 11.3719C52.25 11.3641 52.2458 11.3535 52.2458 11.3425C52.2458 11.3315 52.25 11.3209 52.2575 11.3131C52.265 11.3053 52.2751 11.3009 52.2856 11.3009H55.5698C55.5803 11.3009 55.5905 11.3053 55.5979 11.3131C55.6054 11.3209 55.6096 11.3315 55.6096 11.3425C55.6096 11.3535 55.6054 11.3641 55.5979 11.3719C55.5905 11.3797 55.5803 11.384 55.5698 11.384H55.5699Z" fill="#292A2E"/>
<path d="M49.41 12.8829H44.5339C44.5234 12.8829 44.5133 12.8785 44.5058 12.8708C44.4983 12.863 44.4941 12.8524 44.4941 12.8414C44.4941 12.8304 44.4983 12.8198 44.5058 12.812C44.5133 12.8042 44.5234 12.7998 44.5339 12.7998H49.41C49.4205 12.7998 49.4306 12.8042 49.4381 12.812C49.4456 12.8198 49.4498 12.8304 49.4498 12.8414C49.4498 12.8524 49.4456 12.863 49.4381 12.8708C49.4306 12.8785 49.4205 12.8829 49.41 12.8829Z" fill="#292A2E"/>
<path d="M52.1231 12.8829H50.2717C50.2612 12.8829 50.2511 12.8785 50.2436 12.8708C50.2361 12.863 50.2319 12.8524 50.2319 12.8414C50.2319 12.8304 50.2361 12.8198 50.2436 12.812C50.2511 12.8042 50.2612 12.7998 50.2717 12.7998H52.1231C52.1336 12.7998 52.1438 12.8042 52.1512 12.812C52.1587 12.8198 52.1629 12.8304 52.1629 12.8414C52.1629 12.8524 52.1587 12.863 52.1512 12.8708C52.1438 12.8785 52.1336 12.8829 52.1231 12.8829Z" fill="#0CBC8B"/>
<path d="M55.5628 12.8829H52.9155C52.905 12.8829 52.8949 12.8785 52.8874 12.8708C52.8799 12.863 52.8757 12.8524 52.8757 12.8414C52.8757 12.8304 52.8799 12.8198 52.8874 12.812C52.8949 12.8042 52.905 12.7998 52.9155 12.7998H55.5628C55.5734 12.7998 55.5835 12.8042 55.591 12.812C55.5984 12.8198 55.6026 12.8304 55.6026 12.8414C55.6026 12.8524 55.5984 12.863 55.591 12.8708C55.5835 12.8785 55.5734 12.8829 55.5628 12.8829Z" fill="#292A2E"/>
<path d="M45.4302 13.6324H44.5339C44.5234 13.6324 44.5133 13.628 44.5058 13.6202C44.4983 13.6124 44.4941 13.6018 44.4941 13.5908C44.4941 13.5798 44.4983 13.5692 44.5058 13.5614C44.5133 13.5537 44.5234 13.5493 44.5339 13.5493H45.4302C45.4408 13.5493 45.4509 13.5537 45.4584 13.5614C45.4658 13.5692 45.47 13.5798 45.47 13.5908C45.47 13.6018 45.4658 13.6124 45.4584 13.6202C45.4509 13.628 45.4408 13.6324 45.4302 13.6324Z" fill="#367CFF"/>
<path d="M51.3274 13.6324H46.2922C46.2817 13.6324 46.2716 13.628 46.2641 13.6202C46.2566 13.6124 46.2524 13.6018 46.2524 13.5908C46.2524 13.5798 46.2566 13.5692 46.2641 13.5614C46.2716 13.5537 46.2817 13.5493 46.2922 13.5493H51.3274C51.3379 13.5493 51.3481 13.5537 51.3555 13.5614C51.363 13.5692 51.3672 13.5798 51.3672 13.5908C51.3672 13.6018 51.363 13.6124 51.3555 13.6202C51.3481 13.628 51.3379 13.6324 51.3274 13.6324Z" fill="#0CBC8B"/>
<path d="M49.2508 16.6302H44.3748C44.3642 16.6302 44.3541 16.6258 44.3466 16.618C44.3392 16.6102 44.335 16.5996 44.335 16.5886C44.335 16.5776 44.3392 16.567 44.3466 16.5592C44.3541 16.5514 44.3642 16.5471 44.3748 16.5471H49.2508C49.2613 16.5471 49.2715 16.5514 49.2789 16.5592C49.2864 16.567 49.2906 16.5776 49.2906 16.5886C49.2906 16.5996 49.2864 16.6102 49.2789 16.618C49.2715 16.6258 49.2613 16.6302 49.2508 16.6302Z" fill="#292A2E"/>
<path d="M53.5558 16.6302H50.1126C50.102 16.6302 50.0919 16.6258 50.0844 16.618C50.0769 16.6102 50.0728 16.5996 50.0728 16.5886C50.0728 16.5776 50.0769 16.567 50.0844 16.5592C50.0919 16.5514 50.102 16.5471 50.1126 16.5471H53.5558C53.5664 16.5471 53.5765 16.5514 53.5839 16.5592C53.5914 16.567 53.5956 16.5776 53.5956 16.5886C53.5956 16.5996 53.5914 16.6102 53.5839 16.618C53.5765 16.6258 53.5664 16.6302 53.5558 16.6302Z" fill="#367CFF"/>
<path d="M46.863 15.8807H44.3748C44.3642 15.8807 44.3541 15.8763 44.3466 15.8685C44.3392 15.8607 44.335 15.8502 44.335 15.8392C44.335 15.8281 44.3392 15.8176 44.3466 15.8098C44.3541 15.802 44.3642 15.7976 44.3748 15.7976H46.863C46.8735 15.7976 46.8836 15.802 46.8911 15.8098C46.8986 15.8176 46.9028 15.8281 46.9028 15.8392C46.9028 15.8502 46.8986 15.8607 46.8911 15.8685C46.8836 15.8763 46.8735 15.8807 46.863 15.8807Z" fill="#0CBC8B"/>
<path d="M51.1681 15.8807H47.7249C47.7143 15.8807 47.7042 15.8763 47.6967 15.8685C47.6893 15.8607 47.6851 15.8502 47.6851 15.8392C47.6851 15.8281 47.6893 15.8176 47.6967 15.8098C47.7042 15.802 47.7143 15.7976 47.7249 15.7976H51.1681C51.1787 15.7976 51.1888 15.802 51.1962 15.8098C51.2037 15.8176 51.2079 15.8281 51.2079 15.8392C51.2079 15.8502 51.2037 15.8607 51.1962 15.8685C51.1888 15.8763 51.1787 15.8807 51.1681 15.8807Z" fill="#367CFF"/>
<path d="M55.4108 15.8807H52.1265C52.1159 15.8807 52.1058 15.8763 52.0983 15.8685C52.0909 15.8607 52.0867 15.8502 52.0867 15.8392C52.0867 15.8281 52.0909 15.8176 52.0983 15.8098C52.1058 15.802 52.1159 15.7976 52.1265 15.7976H55.4106C55.4212 15.7976 55.4313 15.802 55.4387 15.8098C55.4462 15.8176 55.4504 15.8281 55.4504 15.8392C55.4504 15.8502 55.4462 15.8607 55.4387 15.8685C55.4313 15.8763 55.4212 15.8807 55.4106 15.8807H55.4108Z" fill="#292A2E"/>
<path d="M51.6386 18.1291H44.3748C44.3642 18.1291 44.3541 18.1247 44.3466 18.117C44.3392 18.1092 44.335 18.0986 44.335 18.0876C44.335 18.0766 44.3392 18.066 44.3466 18.0582C44.3541 18.0504 44.3642 18.046 44.3748 18.046H51.6386C51.6492 18.046 51.6593 18.0504 51.6667 18.0582C51.6742 18.066 51.6784 18.0766 51.6784 18.0876C51.6784 18.0986 51.6742 18.1092 51.6667 18.117C51.6593 18.1247 51.6492 18.1291 51.6386 18.1291Z" fill="#367CFF"/>
<path d="M53.5559 18.1291H52.5005C52.4899 18.1291 52.4798 18.1247 52.4724 18.117C52.4649 18.1092 52.4607 18.0986 52.4607 18.0876C52.4607 18.0766 52.4649 18.066 52.4724 18.0582C52.4798 18.0504 52.4899 18.046 52.5005 18.046H53.5559C53.5665 18.046 53.5766 18.0504 53.5841 18.0582C53.5915 18.066 53.5957 18.0766 53.5957 18.0876C53.5957 18.0986 53.5915 18.1092 53.5841 18.117C53.5766 18.1247 53.5665 18.1291 53.5559 18.1291Z" fill="#292A2E"/>
<path d="M45.2711 17.3797H44.3748C44.3642 17.3797 44.3541 17.3753 44.3466 17.3675C44.3392 17.3597 44.335 17.3492 44.335 17.3381C44.335 17.3271 44.3392 17.3166 44.3466 17.3088C44.3541 17.301 44.3642 17.2966 44.3748 17.2966H45.2711C45.2816 17.2966 45.2917 17.301 45.2992 17.3088C45.3067 17.3166 45.3109 17.3271 45.3109 17.3381C45.3109 17.3492 45.3067 17.3597 45.2992 17.3675C45.2917 17.3753 45.2816 17.3797 45.2711 17.3797Z" fill="#367CFF"/>
<path d="M51.1679 17.3797H46.1328C46.1223 17.3797 46.1121 17.3753 46.1047 17.3675C46.0972 17.3597 46.093 17.3492 46.093 17.3381C46.093 17.3271 46.0972 17.3166 46.1047 17.3088C46.1121 17.301 46.1223 17.2966 46.1328 17.2966H51.1679C51.1785 17.2966 51.1886 17.301 51.1961 17.3088C51.2036 17.3166 51.2077 17.3271 51.2077 17.3381C51.2077 17.3492 51.2036 17.3597 51.1961 17.3675C51.1886 17.3753 51.1785 17.3797 51.1679 17.3797Z" fill="#292A2E"/>
<path d="M55.4108 17.3797H52.1265C52.1159 17.3797 52.1058 17.3753 52.0983 17.3675C52.0909 17.3597 52.0867 17.3492 52.0867 17.3381C52.0867 17.3271 52.0909 17.3166 52.0983 17.3088C52.1058 17.301 52.1159 17.2966 52.1265 17.2966H55.4106C55.4212 17.2966 55.4313 17.301 55.4387 17.3088C55.4462 17.3166 55.4504 17.3271 55.4504 17.3381C55.4504 17.3492 55.4462 17.3597 55.4387 17.3675C55.4313 17.3753 55.4212 17.3797 55.4106 17.3797H55.4108Z" fill="#0CBC8B"/>
<path d="M49.2508 18.8786H44.3748C44.3642 18.8786 44.3541 18.8742 44.3466 18.8664C44.3392 18.8586 44.335 18.848 44.335 18.837C44.335 18.826 44.3392 18.8154 44.3466 18.8076C44.3541 18.7998 44.3642 18.7955 44.3748 18.7955H49.2508C49.2613 18.7955 49.2715 18.7998 49.2789 18.8076C49.2864 18.8154 49.2906 18.826 49.2906 18.837C49.2906 18.848 49.2864 18.8586 49.2789 18.8664C49.2715 18.8742 49.2613 18.8786 49.2508 18.8786Z" fill="#0CBC8B"/>
<path d="M51.9639 18.8786H50.1126C50.102 18.8786 50.0919 18.8742 50.0844 18.8664C50.0769 18.8586 50.0728 18.848 50.0728 18.837C50.0728 18.826 50.0769 18.8154 50.0844 18.8076C50.0919 18.7998 50.102 18.7955 50.1126 18.7955H51.9639C51.9745 18.7955 51.9846 18.7998 51.9921 18.8076C51.9995 18.8154 52.0037 18.826 52.0037 18.837C52.0037 18.848 51.9995 18.8586 51.9921 18.8664C51.9846 18.8742 51.9745 18.8786 51.9639 18.8786Z" fill="#292A2E"/>
<path d="M55.4037 18.8786H52.7563C52.7458 18.8786 52.7357 18.8742 52.7282 18.8664C52.7207 18.8586 52.7166 18.848 52.7166 18.837C52.7166 18.826 52.7207 18.8154 52.7282 18.8076C52.7357 18.7998 52.7458 18.7955 52.7563 18.7955H55.4037C55.4142 18.7955 55.4243 18.7998 55.4318 18.8076C55.4393 18.8154 55.4435 18.826 55.4435 18.837C55.4435 18.848 55.4393 18.8586 55.4318 18.8664C55.4243 18.8742 55.4142 18.8786 55.4037 18.8786Z" fill="#367CFF"/>
<path d="M41.8174 19.6805C41.8068 19.6805 41.7967 19.6761 41.7892 19.6684C41.7818 19.6606 41.7776 19.65 41.7776 19.639V7.82741C41.7776 7.81639 41.7818 7.80582 41.7892 7.79803C41.7967 7.79024 41.8068 7.78587 41.8174 7.78587C41.8279 7.78587 41.8381 7.79024 41.8455 7.79803C41.853 7.80582 41.8572 7.81639 41.8572 7.82741V19.639C41.8572 19.65 41.853 19.6606 41.8455 19.6684C41.8381 19.6761 41.8279 19.6805 41.8174 19.6805Z" fill="#292A2E"/>
<path d="M55.1461 7.03783C55.4987 7.03783 55.7846 6.73942 55.7846 6.3713C55.7846 6.00319 55.4987 5.70478 55.1461 5.70478C54.7934 5.70478 54.5076 6.00319 54.5076 6.3713C54.5076 6.73942 54.7934 7.03783 55.1461 7.03783Z" fill="white"/>
<path d="M39.9971 8.34638H38.2737C38.2631 8.34638 38.253 8.342 38.2455 8.33421C38.2381 8.32642 38.2339 8.31585 38.2339 8.30483C38.2339 8.29382 38.2381 8.28325 38.2455 8.27546C38.253 8.26767 38.2631 8.26329 38.2737 8.26329H39.9971C40.0076 8.26329 40.0177 8.26767 40.0252 8.27546C40.0327 8.28325 40.0369 8.29382 40.0369 8.30483C40.0369 8.31585 40.0327 8.32642 40.0252 8.33421C40.0177 8.342 40.0076 8.34638 39.9971 8.34638Z" fill="#292A2E"/>
<path d="M39.4779 9.16578H38.2737C38.2631 9.16578 38.253 9.16141 38.2455 9.15361C38.2381 9.14582 38.2339 9.13526 38.2339 9.12424C38.2339 9.11322 38.2381 9.10265 38.2455 9.09486C38.253 9.08707 38.2631 9.0827 38.2737 9.0827H39.4779C39.4884 9.0827 39.4985 9.08707 39.506 9.09486C39.5135 9.10265 39.5177 9.11322 39.5177 9.12424C39.5177 9.13526 39.5135 9.14582 39.506 9.15361C39.4985 9.16141 39.4884 9.16578 39.4779 9.16578Z" fill="#292A2E"/>
<path d="M40.5369 9.98518H38.2737C38.2631 9.98518 38.253 9.9808 38.2455 9.97301C38.2381 9.96522 38.2339 9.95465 38.2339 9.94364C38.2339 9.93262 38.2381 9.92205 38.2455 9.91426C38.253 9.90647 38.2631 9.90209 38.2737 9.90209H40.5369C40.5474 9.90209 40.5575 9.90647 40.565 9.91426C40.5725 9.92205 40.5767 9.93262 40.5767 9.94364C40.5767 9.95465 40.5725 9.96522 40.565 9.97301C40.5575 9.9808 40.5474 9.98518 40.5369 9.98518Z" fill="#292A2E"/>
<path d="M40.9594 10.8046H39.0698C39.0593 10.8046 39.0491 10.8002 39.0417 10.7924C39.0342 10.7846 39.03 10.7741 39.03 10.763C39.03 10.752 39.0342 10.7415 39.0417 10.7337C39.0491 10.7259 39.0593 10.7215 39.0698 10.7215H40.9594C40.9699 10.7215 40.9801 10.7259 40.9875 10.7337C40.995 10.7415 40.9992 10.752 40.9992 10.763C40.9992 10.7741 40.995 10.7846 40.9875 10.7924C40.9801 10.8002 40.9699 10.8046 40.9594 10.8046Z" fill="#292A2E"/>
<path d="M40.0457 11.6241H39.0698C39.0593 11.6241 39.0491 11.6197 39.0417 11.6119C39.0342 11.6041 39.03 11.5935 39.03 11.5825C39.03 11.5715 39.0342 11.5609 39.0417 11.5532C39.0491 11.5454 39.0593 11.541 39.0698 11.541H40.0457C40.0562 11.541 40.0663 11.5454 40.0738 11.5532C40.0813 11.5609 40.0855 11.5715 40.0855 11.5825C40.0855 11.5935 40.0813 11.6041 40.0738 11.6119C40.0663 11.6197 40.0562 11.6241 40.0457 11.6241Z" fill="#292A2E"/>
<path d="M40.7932 12.4435H39.0698C39.0593 12.4435 39.0491 12.4391 39.0417 12.4313C39.0342 12.4235 39.03 12.413 39.03 12.4019C39.03 12.3909 39.0342 12.3803 39.0417 12.3726C39.0491 12.3648 39.0593 12.3604 39.0698 12.3604H40.7932C40.8038 12.3604 40.8139 12.3648 40.8213 12.3726C40.8288 12.3803 40.833 12.3909 40.833 12.4019C40.833 12.413 40.8288 12.4235 40.8213 12.4313C40.8139 12.4391 40.8038 12.4435 40.7932 12.4435Z" fill="#292A2E"/>
<path d="M39.6025 13.2629H38.2737C38.2631 13.2629 38.253 13.2585 38.2455 13.2507C38.2381 13.2429 38.2339 13.2323 38.2339 13.2213C38.2339 13.2103 38.2381 13.1997 38.2455 13.192C38.253 13.1842 38.2631 13.1798 38.2737 13.1798H39.6025C39.6131 13.1798 39.6232 13.1842 39.6307 13.192C39.6381 13.1997 39.6423 13.2103 39.6423 13.2213C39.6423 13.2323 39.6381 13.2429 39.6307 13.2507C39.6232 13.2585 39.6131 13.2629 39.6025 13.2629Z" fill="#292A2E"/>
<path d="M39.1457 14.0822H38.2737C38.2631 14.0822 38.253 14.0778 38.2455 14.07C38.2381 14.0622 38.2339 14.0517 38.2339 14.0407C38.2339 14.0296 38.2381 14.0191 38.2455 14.0113C38.253 14.0035 38.2631 13.9991 38.2737 13.9991H39.1457C39.1563 13.9991 39.1664 14.0035 39.1739 14.0113C39.1813 14.0191 39.1855 14.0296 39.1855 14.0407C39.1855 14.0517 39.1813 14.0622 39.1739 14.07C39.1664 14.0778 39.1563 14.0822 39.1457 14.0822Z" fill="#292A2E"/>
<path d="M42.4804 8.17056V8.18551L42.9779 8.37827C42.985 8.3813 42.991 8.38648 42.9953 8.39314C42.9996 8.39981 43.0018 8.40765 43.0017 8.41566V8.42979C43.0019 8.43603 43.0005 8.4422 42.9977 8.44772C42.9949 8.45325 42.9908 8.45794 42.9858 8.46136C42.9808 8.46507 42.9749 8.4674 42.9688 8.46813C42.9627 8.46885 42.9564 8.46795 42.9507 8.46552L42.3889 8.2362C42.3819 8.23327 42.3758 8.22823 42.3716 8.22172C42.3673 8.21521 42.365 8.20752 42.365 8.19964V8.15726C42.3649 8.14936 42.3672 8.14162 42.3715 8.13508C42.3757 8.12855 42.3818 8.12353 42.3889 8.1207L42.9507 7.89055C42.9553 7.88892 42.9602 7.88808 42.9651 7.88806C42.9724 7.88822 42.9796 7.89052 42.9858 7.89471C42.9908 7.89831 42.9949 7.90315 42.9977 7.90881C43.0005 7.91447 43.0019 7.92076 43.0017 7.92711V7.94124C43.0019 7.94917 42.9997 7.95696 42.9954 7.96351C42.9911 7.97007 42.985 7.97506 42.9779 7.9778L42.4804 8.17056Z" fill="#367CFF"/>
<path d="M43.4664 7.72106L43.1687 8.67241C43.1663 8.68035 43.1615 8.68728 43.1551 8.6922C43.1486 8.69713 43.1409 8.6998 43.1329 8.69983C43.1271 8.69992 43.1214 8.69853 43.1163 8.69578C43.1111 8.69302 43.1067 8.68899 43.1034 8.68404C43.0999 8.67913 43.0975 8.67342 43.0964 8.66737C43.0953 8.66131 43.0955 8.65507 43.0972 8.64914L43.3948 7.69863C43.3973 7.69054 43.4022 7.68347 43.4087 7.67841C43.4153 7.67335 43.4232 7.67054 43.4314 7.67038C43.4371 7.67036 43.4428 7.67178 43.4479 7.67453C43.4531 7.67727 43.4575 7.68127 43.4608 7.68617C43.4644 7.69108 43.4668 7.69682 43.4677 7.7029C43.4687 7.70898 43.4682 7.71521 43.4664 7.72106Z" fill="#367CFF"/>
<path d="M44.1976 8.15727V8.19964C44.1977 8.20745 44.1955 8.21511 44.1914 8.22163C44.1873 8.22815 44.1814 8.23323 44.1745 8.2362L43.6117 8.46552C43.6062 8.46793 43.6001 8.46882 43.5941 8.46809C43.5881 8.46736 43.5824 8.46505 43.5775 8.46136C43.5724 8.45798 43.5682 8.45332 43.5653 8.4478C43.5624 8.44229 43.5608 8.43609 43.5608 8.42979V8.41567C43.5607 8.40754 43.5631 8.3996 43.5675 8.39291C43.5719 8.38622 43.5782 8.38111 43.5855 8.37828L44.0829 8.18552V8.17056L43.5855 7.9778C43.5782 7.97526 43.5718 7.97034 43.5674 7.96376C43.5629 7.95718 43.5606 7.94929 43.5608 7.94124V7.92711C43.5608 7.9207 43.5624 7.91438 43.5653 7.90873C43.5682 7.90308 43.5724 7.89827 43.5775 7.89471C43.5837 7.89054 43.5909 7.88824 43.5982 7.88806C43.6028 7.88801 43.6074 7.88886 43.6117 7.89056L44.1745 8.12071C44.1815 8.12359 44.1874 8.12864 44.1915 8.13518C44.1957 8.14173 44.1978 8.14944 44.1976 8.15727Z" fill="#367CFF"/>
<path d="M32.944 0.5224H4.90894V29.7877H32.944V0.5224Z" fill="#F4F4F4"/>
<path d="M4.90897 0.5224H4.58765V29.7877H4.90897V0.5224Z" fill="#F4F4F4"/>
<path opacity="0.05" d="M4.90897 0.5224H4.58765V29.7877H4.90897V0.5224Z" fill="#292A2E"/>
<path opacity="0.05" d="M11.7008 20.6886V13.0318H17.7092V17.4803H27.0162V25.3567H30.9718V29.7877H27.0162H26.2541H6.25781V20.6886H11.7008Z" fill="#292A2E"/>
<path opacity="0.34" d="M16.9379 13.8632H12.5625V14.6946H16.9379V13.8632Z" fill="#FFFFFA"/>
<path opacity="0.34" d="M16.9379 15.5859H12.5625V16.4173H16.9379V15.5859Z" fill="#FFFFFA"/>
<path opacity="0.34" d="M16.9379 17.3086H12.5625V18.14H16.9379V17.3086Z" fill="#FFFFFA"/>
<path opacity="0.34" d="M7.8399 21.4956H7.03345V22.3269H7.8399V21.4956Z" fill="#FFFFFA"/>
<path opacity="0.34" d="M7.8399 23.2183H7.03345V24.0496H7.8399V23.2183Z" fill="#FFFFFA"/>
<path opacity="0.34" d="M7.8399 24.9411H7.03345V25.7725H7.8399V24.9411Z" fill="#FFFFFA"/>
<path opacity="0.34" d="M9.33184 21.4956H8.52539V22.3269H9.33184V21.4956Z" fill="#FFFFFA"/>
<path opacity="0.34" d="M9.33184 23.2183H8.52539V24.0496H9.33184V23.2183Z" fill="#FFFFFA"/>
<path opacity="0.34" d="M9.33184 24.9411H8.52539V25.7725H9.33184V24.9411Z" fill="#FFFFFA"/>
<path opacity="0.34" d="M10.7835 21.4956H9.97705V22.3269H10.7835V21.4956Z" fill="#FFFFFA"/>
<path opacity="0.34" d="M10.7835 23.2183H9.97705V24.0496H10.7835V23.2183Z" fill="#FFFFFA"/>
<path opacity="0.34" d="M10.7835 24.9411H9.97705V25.7725H10.7835V24.9411Z" fill="#FFFFFA"/>
<path d="M4.90894 14.9909H10.5501V0.5224H11.0166V14.9909H26.2539V0.5224H26.7204V14.9909H32.944V15.4779H26.7204V29.7877H26.2539V15.4779H11.0166V29.7877H10.5501V15.4779H4.90894V14.9909Z" fill="white"/>
<path d="M34.0612 29.7524H3.79248V30.7257H34.0612V29.7524Z" fill="#F4F4F4"/>
<path opacity="0.1" d="M34.0612 29.7524H3.79248V30.7257H34.0612V29.7524Z" fill="#292A2E"/>
<path opacity="0.1" d="M3.79228 29.7524H3.35522V30.7257H3.79228V29.7524Z" fill="#292A2E"/>
<path opacity="0.1" d="M3.79228 29.7524H3.35522V30.7257H3.79228V29.7524Z" fill="#292A2E"/>
<path d="M4.58768 1.76837L32.9441 1.76837V1.04477L4.58768 1.04477V1.76837Z" fill="white"/>
<path d="M4.58768 3.12004L32.9441 3.12004V2.39644L4.58768 2.39644V3.12004Z" fill="white"/>
<path d="M4.58768 4.47162L32.9441 4.47162V3.74801L4.58768 3.74801V4.47162Z" fill="white"/>
<path d="M4.58768 5.82319L32.9441 5.82319V5.09958L4.58768 5.09958V5.82319Z" fill="white"/>
<path d="M4.58768 7.17467L32.9441 7.17467V6.45107L4.58768 6.45107V7.17467Z" fill="white"/>
<path d="M7.5997 7.99084H8.02466V0.522396H7.5997L7.5997 7.99084Z" fill="white"/>
<path d="M7.77596 9.06341C8.0984 9.06341 8.35979 8.79055 8.35979 8.45396C8.35979 8.11738 8.0984 7.84452 7.77596 7.84452C7.45353 7.84452 7.19214 8.11738 7.19214 8.45396C7.19214 8.79055 7.45353 9.06341 7.77596 9.06341Z" fill="white"/>
<path d="M4.83503 70.4664L4.67871 70.435L7.12194 45.0909L7.27826 45.1223L4.83503 70.4664Z" fill="#494949"/>
<path d="M13.9327 70.4664L13.7764 70.435L16.2195 45.0909L16.3758 45.1223L13.9327 70.4664Z" fill="#494949"/>
<path d="M34.0419 70.4664L34.1982 70.435L31.755 45.0909L31.5986 45.1223L34.0419 70.4664Z" fill="#494949"/>
<path d="M24.9446 70.4664L25.1009 70.435L22.6578 45.0909L22.5015 45.1223L24.9446 70.4664Z" fill="#494949"/>
<path d="M21.7044 33.9368L21.5466 33.9588L22.9739 45.1178L23.1317 45.0958L21.7044 33.9368Z" fill="#494949"/>
<path d="M5.32185 33.9367L5.16406 33.9587L6.59134 45.1176L6.74913 45.0956L5.32185 33.9367Z" fill="#494949"/>
<path d="M23.118 44.2894H7.09409C6.66176 44.2894 6.31128 44.6552 6.31128 45.1066V45.1066C6.31128 45.5579 6.66176 45.9238 7.09409 45.9238H23.118C23.5503 45.9238 23.9008 45.5579 23.9008 45.1066V45.1066C23.9008 44.6552 23.5503 44.2894 23.118 44.2894Z" fill="#292A2E"/>
<path opacity="0.8" d="M23.118 44.2894H7.09409C6.66176 44.2894 6.31128 44.6552 6.31128 45.1066V45.1066C6.31128 45.5579 6.66176 45.9238 7.09409 45.9238H23.118C23.5503 45.9238 23.9008 45.5579 23.9008 45.1066V45.1066C23.9008 44.6552 23.5503 44.2894 23.118 44.2894Z" fill="white"/>
<path d="M23.1179 46.0068H7.09409C6.98084 46.0068 6.8687 45.9835 6.76407 45.9383C6.65943 45.893 6.56436 45.8267 6.48428 45.7431C6.4042 45.6595 6.34068 45.5603 6.29734 45.4511C6.254 45.3418 6.23169 45.2248 6.23169 45.1066C6.23169 44.9883 6.254 44.8713 6.29734 44.762C6.34068 44.6528 6.4042 44.5536 6.48428 44.47C6.56436 44.3864 6.65943 44.3201 6.76407 44.2748C6.8687 44.2296 6.98084 44.2063 7.09409 44.2063H23.1179C23.2312 44.2063 23.3433 44.2296 23.448 44.2748C23.5526 44.3201 23.6477 44.3864 23.7277 44.47C23.8078 44.5536 23.8713 44.6528 23.9147 44.762C23.958 44.8713 23.9803 44.9883 23.9803 45.1066C23.9803 45.2248 23.958 45.3418 23.9147 45.4511C23.8713 45.5603 23.8078 45.6595 23.7277 45.7431C23.6477 45.8267 23.5526 45.893 23.448 45.9383C23.3433 45.9835 23.2312 46.0068 23.1179 46.0068ZM7.09409 44.3725C7.00175 44.3725 6.9103 44.3915 6.82498 44.4284C6.73967 44.4653 6.66214 44.5193 6.59685 44.5875C6.53155 44.6557 6.47975 44.7366 6.44441 44.8256C6.40907 44.9147 6.39088 45.0102 6.39088 45.1066C6.39088 45.203 6.40907 45.2984 6.44441 45.3875C6.47975 45.4765 6.53155 45.5575 6.59685 45.6256C6.66214 45.6938 6.73967 45.7479 6.82498 45.7848C6.9103 45.8216 7.00175 45.8406 7.09409 45.8406H23.1179C23.2103 45.8406 23.3017 45.8216 23.387 45.7848C23.4724 45.7479 23.5499 45.6938 23.6152 45.6256C23.6805 45.5575 23.7323 45.4765 23.7676 45.3875C23.803 45.2984 23.8211 45.203 23.8211 45.1066C23.8211 45.0102 23.803 44.9147 23.7676 44.8256C23.7323 44.7366 23.6805 44.6557 23.6152 44.5875C23.5499 44.5193 23.4724 44.4653 23.387 44.4284C23.3017 44.3915 23.2103 44.3725 23.1179 44.3725H7.09409Z" fill="#292A2E"/>
<path d="M31.9127 44.2894H15.8888C15.4564 44.2894 15.106 44.6552 15.106 45.1066V45.1066C15.106 45.5579 15.4564 45.9238 15.8888 45.9238H31.9127C32.345 45.9238 32.6955 45.5579 32.6955 45.1066V45.1066C32.6955 44.6552 32.345 44.2894 31.9127 44.2894Z" fill="white"/>
<path d="M31.9127 46.0068H15.8888C15.7755 46.0068 15.6634 45.9835 15.5587 45.9383C15.4541 45.893 15.359 45.8267 15.279 45.7431C15.1989 45.6595 15.1354 45.5603 15.092 45.4511C15.0487 45.3418 15.0264 45.2248 15.0264 45.1066C15.0264 44.9883 15.0487 44.8713 15.092 44.762C15.1354 44.6528 15.1989 44.5536 15.279 44.47C15.359 44.3864 15.4541 44.3201 15.5587 44.2748C15.6634 44.2296 15.7755 44.2063 15.8888 44.2063H31.9127C32.0259 44.2063 32.1381 44.2296 32.2427 44.2748C32.3473 44.3201 32.4424 44.3864 32.5225 44.47C32.6026 44.5536 32.6661 44.6528 32.7094 44.762C32.7528 44.8713 32.7751 44.9883 32.7751 45.1066C32.7751 45.2248 32.7528 45.3418 32.7094 45.4511C32.6661 45.5603 32.6026 45.6595 32.5225 45.7431C32.4424 45.8267 32.3473 45.893 32.2427 45.9383C32.1381 45.9835 32.0259 46.0068 31.9127 46.0068ZM15.8888 44.3725C15.7964 44.3725 15.705 44.3915 15.6197 44.4284C15.5343 44.4653 15.4568 44.5193 15.3915 44.5875C15.3262 44.6557 15.2744 44.7366 15.2391 44.8256C15.2037 44.9147 15.1856 45.0102 15.1856 45.1066C15.1856 45.203 15.2037 45.2984 15.2391 45.3875C15.2744 45.4765 15.3262 45.5575 15.3915 45.6256C15.4568 45.6938 15.5343 45.7479 15.6197 45.7848C15.705 45.8216 15.7964 45.8406 15.8888 45.8406H31.9127C32.005 45.8406 32.0965 45.8216 32.1818 45.7848C32.2671 45.7479 32.3446 45.6938 32.4099 45.6256C32.4752 45.5575 32.527 45.4765 32.5624 45.3875C32.5977 45.2984 32.6159 45.203 32.6159 45.1066C32.6159 45.0102 32.5977 44.9147 32.5624 44.8256C32.527 44.7366 32.4752 44.6557 32.4099 44.5875C32.3446 44.5193 32.2671 44.4653 32.1818 44.4284C32.0965 44.3915 32.005 44.3725 31.9127 44.3725H15.8888Z" fill="#292A2E"/>
<path d="M20.8264 33.9476H5.2859C5.03181 33.9476 4.78641 33.8511 4.5955 33.6761C4.40458 33.501 4.2812 33.2595 4.24839 32.9965L3.22043 24.756C3.20121 24.6019 3.2137 24.4454 3.25706 24.2968C3.30042 24.1482 3.37365 24.0109 3.47186 23.8942C3.57007 23.7775 3.69101 23.684 3.82659 23.6199C3.96217 23.5559 4.10928 23.5228 4.2581 23.5228H19.7985C20.0526 23.5228 20.298 23.6193 20.4889 23.7943C20.6798 23.9693 20.8032 24.2109 20.836 24.4739L21.8639 32.7145C21.8831 32.8685 21.8706 33.025 21.8273 33.1736C21.7839 33.3222 21.7107 33.4595 21.6125 33.5762C21.5144 33.6929 21.3934 33.7864 21.2579 33.8505C21.1223 33.9145 20.9752 33.9476 20.8264 33.9476Z" fill="#292A2E"/>
<path opacity="0.8" d="M20.8264 33.9476H5.2859C5.03181 33.9476 4.78641 33.8511 4.5955 33.6761C4.40458 33.501 4.2812 33.2595 4.24839 32.9965L3.22043 24.756C3.20121 24.6019 3.2137 24.4454 3.25706 24.2968C3.30042 24.1482 3.37365 24.0109 3.47186 23.8942C3.57007 23.7775 3.69101 23.684 3.82659 23.6199C3.96217 23.5559 4.10928 23.5228 4.2581 23.5228H19.7985C20.0526 23.5228 20.298 23.6193 20.4889 23.7943C20.6798 23.9693 20.8032 24.2109 20.836 24.4739L21.8639 32.7145C21.8831 32.8685 21.8706 33.025 21.8273 33.1736C21.7839 33.3222 21.7107 33.4595 21.6125 33.5762C21.5144 33.6929 21.3934 33.7864 21.2579 33.8505C21.1223 33.9145 20.9752 33.9476 20.8264 33.9476Z" fill="white"/>
<path d="M20.8267 34.0307H5.28612C5.01286 34.0301 4.74911 33.926 4.54379 33.7378C4.33848 33.5495 4.20554 33.2899 4.16965 33.0072L3.14177 24.7667C3.12107 24.6009 3.13449 24.4324 3.18113 24.2725C3.22778 24.1126 3.30657 23.9649 3.41225 23.8393C3.51793 23.7137 3.64806 23.6131 3.79396 23.5441C3.93986 23.4752 4.09817 23.4396 4.25831 23.4396H19.7987C20.0719 23.4403 20.3357 23.5443 20.541 23.7326C20.7463 23.9208 20.8792 24.1804 20.9151 24.4632L21.943 32.7037C21.9637 32.8695 21.9503 33.0379 21.9037 33.1978C21.857 33.3577 21.7782 33.5054 21.6726 33.631C21.5669 33.7566 21.4368 33.8572 21.2909 33.9261C21.1451 33.9951 20.9868 34.0307 20.8267 34.0307ZM4.25831 23.6058C4.12083 23.6058 3.98493 23.6364 3.85969 23.6956C3.73444 23.7548 3.62273 23.8412 3.53201 23.949C3.44129 24.0568 3.37364 24.1836 3.33359 24.3209C3.29355 24.4582 3.28201 24.6029 3.29976 24.7452L4.32772 32.9857C4.35851 33.2285 4.47264 33.4514 4.64892 33.613C4.8252 33.7746 5.05166 33.864 5.28627 33.8645H20.8267C20.9641 33.8645 21.1 33.8339 21.2252 33.7747C21.3504 33.7155 21.4621 33.6291 21.5528 33.5212C21.6435 33.4134 21.7111 33.2866 21.7512 33.1493C21.7912 33.0121 21.8027 32.8675 21.785 32.7252L20.7572 24.4847C20.7264 24.2419 20.6123 24.019 20.436 23.8574C20.2598 23.6958 20.0333 23.6064 19.7987 23.6059L4.25831 23.6058Z" fill="#292A2E"/>
<path d="M21.7053 33.9476H6.1648C5.91072 33.9476 5.66533 33.8511 5.47443 33.6761C5.28353 33.501 5.16017 33.2595 5.12737 32.9965L4.09909 24.756C4.07988 24.6019 4.09236 24.4454 4.13571 24.2968C4.17906 24.1482 4.25228 24.011 4.35047 23.8943C4.44866 23.7775 4.56958 23.684 4.70514 23.62C4.8407 23.5559 4.9878 23.5228 5.1366 23.5228H20.6775C20.9315 23.5228 21.1769 23.6193 21.3678 23.7943C21.5587 23.9693 21.6821 24.2109 21.7149 24.4739L22.7428 32.7145C22.7621 32.8685 22.7496 33.025 22.7062 33.1736C22.6629 33.3222 22.5897 33.4595 22.4915 33.5762C22.3933 33.6929 22.2724 33.7864 22.1368 33.8504C22.0012 33.9145 21.8541 33.9476 21.7053 33.9476Z" fill="white"/>
<path d="M21.7053 34.0307H6.16476C5.89151 34.0301 5.62777 33.926 5.42247 33.7377C5.21717 33.5495 5.08424 33.2899 5.04837 33.0072L4.02041 24.7667C3.99974 24.6009 4.01317 24.4325 4.05982 24.2726C4.10647 24.1127 4.18526 23.965 4.29092 23.8394C4.39659 23.7138 4.5267 23.6132 4.67258 23.5442C4.81846 23.4753 4.97675 23.4396 5.13688 23.4396H20.6773C20.9506 23.4403 21.2143 23.5444 21.4197 23.7326C21.625 23.9208 21.7579 24.1804 21.7938 24.4632L22.8218 32.7037C22.8424 32.8695 22.829 33.0379 22.7823 33.1978C22.7357 33.3577 22.6569 33.5054 22.5512 33.631C22.4456 33.7566 22.3154 33.8572 22.1696 33.9261C22.0237 33.9951 21.8654 34.0307 21.7053 34.0307ZM5.13688 23.6058C4.99942 23.6059 4.86355 23.6365 4.73834 23.6957C4.61313 23.755 4.50146 23.8414 4.41078 23.9492C4.32009 24.057 4.25248 24.1838 4.21245 24.3211C4.17242 24.4584 4.16089 24.603 4.17864 24.7453L5.2062 32.9857C5.23703 33.2285 5.35116 33.4514 5.52744 33.613C5.70371 33.7746 5.93015 33.864 6.16476 33.8645H21.7053C21.8428 33.8645 21.9787 33.8339 22.1039 33.7747C22.2292 33.7156 22.3409 33.6292 22.4316 33.5213C22.5223 33.4135 22.59 33.2867 22.63 33.1494C22.6701 33.0121 22.6816 32.8675 22.6639 32.7252L21.6359 24.4847C21.6051 24.2419 21.491 24.019 21.3147 23.8574C21.1384 23.6958 20.912 23.6064 20.6773 23.6059L5.13688 23.6058Z" fill="#292A2E"/>
<path d="M33.7853 35.8291L33.627 35.8458L36.9824 70.5221L37.1408 70.5054L33.7853 35.8291Z" fill="#494949"/>
<path d="M20.0304 10.872C20.0304 10.872 21.0631 10.0583 21.319 8.18535C21.5171 6.73523 20.2356 7.6747 20.2356 7.6747C20.2356 7.6747 20.3686 6.62905 19.6387 6.73282C18.9088 6.8366 18.5005 7.93501 18.5005 7.93501" fill="#0C0C0C"/>
<path d="M15.8668 6.8552C15.8668 6.8552 12.2457 7.26075 13.5548 12.3826L13.8752 12.405L14.5257 12.4505" fill="#0C0C0C"/>
<path d="M19.4238 17.7319C19.4079 17.7297 19.2312 20.7895 15.8257 20.523C13.4681 20.3386 12.6275 17.7276 12.5735 17.7276C12.8277 17.6712 13.1418 17.5856 13.2667 17.5562C13.5387 17.4903 13.7851 17.3395 13.9731 17.1238C14.161 16.9081 14.2816 16.6378 14.3187 16.3488C14.3878 15.9151 14.271 13.696 14.3067 13.2571L17.9256 14.1003C17.8751 15.0272 17.5211 17.1759 18.7614 17.5562C18.9681 17.6191 19.1904 17.677 19.4238 17.7319Z" fill="#E98862"/>
<path opacity="0.52" d="M17.9763 16.6781C17.9196 16.4874 17.8831 16.2908 17.8674 16.0917C17.8277 15.6376 17.8357 15.1803 17.8913 14.728C17.1558 14.6244 16.4628 14.3075 15.8912 13.8133C15.824 14.0724 15.4545 15.2044 15.5569 15.4506C15.7499 15.916 16.6586 16.6781 17.9763 16.6781Z" fill="#0C0C0C"/>
<path d="M17.2298 16.0725C15.802 15.9388 14.0932 14.9972 14.0686 12.9741L14.0463 11.1486C14.0217 9.12564 15.0196 7.47213 16.8444 7.44787C18.6691 7.42369 20.053 9.04555 20.0776 11.0686L20.0875 11.8767C20.0862 12.1543 20.0668 12.4314 20.0294 12.7062C19.9358 13.4332 19.7907 14.5385 19.3181 15.2862C18.8717 15.9921 18.1419 16.1578 17.2298 16.0725Z" fill="#E98862"/>
<path d="M17.892 14.2234C18.1866 14.2374 18.4803 14.1788 18.7492 14.0525C18.7548 14.0501 18.7598 14.0465 18.7641 14.042C18.7683 14.0374 18.7716 14.0321 18.7739 14.0263C18.7761 14.0204 18.7773 14.0141 18.7772 14.0078C18.7771 14.0015 18.7759 13.9953 18.7735 13.9895C18.7711 13.9837 18.7677 13.9784 18.7634 13.974C18.7591 13.9696 18.7539 13.9661 18.7483 13.9637C18.7427 13.9614 18.7367 13.9602 18.7307 13.9603C18.7246 13.9603 18.7187 13.9617 18.7131 13.9641C18.1337 14.2221 17.6075 14.1843 17.1915 13.8549C17.1831 13.8479 17.1744 13.8415 17.1653 13.8355C17.1549 13.8305 17.143 13.8297 17.132 13.8333C17.121 13.837 17.1117 13.8448 17.106 13.8552C17.1002 13.8656 17.0985 13.8779 17.101 13.8896C17.1035 13.9014 17.1101 13.9117 17.1195 13.9186C17.1229 13.9208 17.1282 13.9252 17.1355 13.9312C17.3542 14.1051 17.6176 14.2068 17.892 14.2234Z" fill="#0C0C0C"/>
<path d="M17.8784 14.679C17.9316 14.6824 17.9851 14.6811 18.0381 14.675C18.0502 14.6737 18.0613 14.6674 18.069 14.6575C18.0767 14.6475 18.0803 14.6349 18.079 14.6222C18.0777 14.6095 18.0716 14.5979 18.0622 14.5899C18.0527 14.5819 18.0405 14.5781 18.0284 14.5795C17.7094 14.6149 17.5572 14.4623 17.5508 14.4558C17.5422 14.4467 17.5305 14.4417 17.5183 14.4416C17.5061 14.4416 17.4943 14.4467 17.4857 14.4557C17.477 14.4647 17.4722 14.4769 17.4722 14.4896C17.4722 14.5024 17.477 14.5146 17.4856 14.5236C17.5954 14.6212 17.7342 14.6761 17.8784 14.679Z" fill="#0C0C0C"/>
<path d="M19.475 12.2658C19.5992 12.2658 19.6998 12.1607 19.6998 12.0311C19.6998 11.9015 19.5992 11.7965 19.475 11.7965C19.3509 11.7965 19.2502 11.9015 19.2502 12.0311C19.2502 12.1607 19.3509 12.2658 19.475 12.2658Z" fill="#0C0C0C"/>
<path d="M17.279 12.1219C17.4031 12.1219 17.5037 12.0169 17.5037 11.8873C17.5037 11.7577 17.4031 11.6526 17.279 11.6526C17.1548 11.6526 17.0542 11.7577 17.0542 11.8873C17.0542 12.0169 17.1548 12.1219 17.279 12.1219Z" fill="#0C0C0C"/>
<path d="M14.1893 13.5889C13.6348 13.5963 13.1777 12.983 13.1705 12.4041C13.1633 11.8252 13.6091 11.5 14.1636 11.4927L14.454 11.8767L14.6659 13.5826L14.1893 13.5889Z" fill="#E98862"/>
<path d="M14.7406 12.6587C14.7406 12.6587 14.9279 9.79615 15.7594 9.61934C16.3133 9.50161 17.6563 10.3217 18.9002 10.074C19.4444 9.96598 19.9611 10.1062 20.0136 10.3746C20.0344 10.4809 20.3734 8.95381 19.5212 7.79525C18.8427 6.87257 16.6222 6.61209 15.612 6.91453C12.8148 7.75221 14.0491 11.6187 14.0491 11.6187L14.1738 12.6056L14.7406 12.6587Z" fill="#0C0C0C"/>
<path d="M18.2269 13.5477H18.2305C18.4092 13.5458 18.7087 13.5219 18.7075 13.3823C18.7063 13.2666 18.3911 12.0217 18.3551 11.8801C18.3516 11.8684 18.3439 11.8585 18.3336 11.8525C18.3233 11.8465 18.3112 11.845 18.2999 11.8481C18.2885 11.8513 18.2787 11.8589 18.2726 11.8694C18.2665 11.8799 18.2645 11.8925 18.2671 11.9045C18.4071 12.4559 18.6156 13.3047 18.6165 13.3834C18.5993 13.4167 18.4147 13.4509 18.2296 13.4529C18.2179 13.4532 18.2068 13.4581 18.1985 13.4667C18.1902 13.4752 18.1854 13.4868 18.1851 13.499C18.1847 13.5112 18.1889 13.523 18.1967 13.5321C18.2044 13.5412 18.2153 13.5468 18.2269 13.5478V13.5477Z" fill="#0C0C0C"/>
<path d="M18.8367 10.7587C19.0245 10.7048 19.2228 10.7048 19.4106 10.7587C19.5029 10.7846 19.5909 10.8248 19.6717 10.878C19.7516 10.9301 19.8248 10.9925 19.8897 11.0638C19.9021 11.0764 19.9094 11.0935 19.9098 11.1116C19.9103 11.1297 19.904 11.1472 19.8922 11.1605C19.8804 11.1737 19.8641 11.1816 19.8469 11.1825C19.8296 11.1834 19.8126 11.1772 19.7997 11.1652L19.7956 11.1615C19.7355 11.1035 19.6687 11.0535 19.5966 11.0129C19.526 10.9725 19.4498 10.9435 19.3708 10.9268C19.2153 10.8928 19.0539 10.9022 18.903 10.9541L18.8967 10.9565C18.8718 10.9657 18.8444 10.9641 18.8206 10.9523C18.7967 10.9404 18.7784 10.9191 18.7696 10.8931C18.7608 10.8671 18.7623 10.8385 18.7736 10.8137C18.785 10.7888 18.8054 10.7697 18.8303 10.7605L18.8367 10.7587Z" fill="#0C0C0C"/>
<path d="M17.5068 10.8766C17.3639 10.8041 17.2052 10.7723 17.0468 10.7845C16.9664 10.7899 16.8872 10.8081 16.812 10.8383C16.7355 10.8686 16.663 10.9088 16.5961 10.958L16.5918 10.961C16.5775 10.9706 16.5601 10.974 16.5434 10.9706C16.5266 10.9672 16.5118 10.9572 16.5019 10.9427C16.4921 10.9282 16.488 10.9102 16.4905 10.8926C16.4929 10.875 16.5018 10.8591 16.5153 10.8481C16.5887 10.7865 16.6693 10.7348 16.7551 10.6942C16.842 10.6528 16.9343 10.6252 17.029 10.6123C17.2221 10.5848 17.4186 10.6123 17.5979 10.6919C17.6222 10.7029 17.6413 10.7236 17.651 10.7493C17.6607 10.775 17.6602 10.8037 17.6496 10.829C17.6391 10.8544 17.6193 10.8743 17.5947 10.8844C17.5701 10.8945 17.5426 10.894 17.5183 10.883L17.5128 10.8803L17.5068 10.8766Z" fill="#0C0C0C"/>
<path d="M18.5697 8.78823C18.9801 8.69871 19.2106 8.1149 19.0843 7.48425C18.9581 6.85361 18.523 6.41494 18.1126 6.50446C17.7021 6.59398 17.4717 7.17779 17.5979 7.80843C17.7242 8.43908 18.1592 8.87775 18.5697 8.78823Z" fill="#0C0C0C"/>
<path d="M41.4623 66.1394C41.4623 66.1394 41.8891 68.4487 43.9603 68.5774C46.0315 68.7061 45.5824 70.4286 45.5824 70.4286H37.6672V66.3005L41.4623 66.1394Z" fill="#367CFF"/>
<path d="M26.4038 64.6814C26.4038 64.6814 25.8103 66.9502 27.6144 68.02C29.4186 69.0899 28.2872 70.4286 28.2872 70.4286L21.1848 66.781L22.9304 63.0769L26.4038 64.6814Z" fill="#367CFF"/>
<path d="M22.0049 64.0406L27.9943 44.3166H17.1376C14.9567 44.3166 14.0476 42.386 14.0476 40.1096C14.0476 37.8332 16.1916 35.8376 18.3723 35.8376H33.0248C34.3549 35.8376 35.8463 36.6868 36.5764 37.8475C37.3064 39.0082 37.109 40.8068 36.5801 42.0809L26.989 66.3976" fill="#262626"/>
<path opacity="0.8" d="M22.0049 64.0406L27.9943 44.3166H17.1376C14.9567 44.3166 14.0476 42.386 14.0476 40.1096C14.0476 37.8332 16.1916 35.8376 18.3723 35.8376H33.0248C34.3549 35.8376 35.8463 36.6868 36.5764 37.8475C37.3064 39.0082 37.109 40.8068 36.5801 42.0809L26.989 66.3976" fill="#0A0A0A"/>
<path d="M37.2117 68.284L27.197 44.3166L14.0473 44.3156C10.9661 44.0635 9.55502 42.3008 9.59991 40.0249C9.64417 37.7778 10.7341 35.5583 12.877 35.5583H30.6005C32.186 35.5923 33.4334 37.4213 34.0216 38.9586L42.3471 66.8167" fill="#262626"/>
<path d="M8.70323 35.5858C8.70323 35.5858 8.11924 39.5612 9.04492 41.7714C10.2006 44.5307 14.5327 44.3157 14.5327 44.3157L14.2886 35.5583L8.70323 35.5858Z" fill="#262626"/>
<path d="M34.3986 35.5076L25.1099 33.4984C24.7229 33.4147 24.3623 33.2304 24.0616 32.9626C23.7609 32.6948 23.5297 32.3522 23.3894 31.9664L19.7361 21.9168C19.6248 21.6152 19.5718 21.2936 19.5799 20.9705C19.5881 20.6475 19.6573 20.3292 19.7836 20.0342C19.91 19.7391 20.0909 19.473 20.316 19.2512C20.5412 19.0293 20.8061 18.8561 21.0955 18.7414C21.385 18.6267 21.6933 18.5729 22.0027 18.583C22.3122 18.593 22.6167 18.6668 22.8987 18.8001C23.1808 18.9334 23.4348 19.1236 23.6463 19.3596C23.8577 19.5957 24.0224 19.8731 24.1309 20.1758L27.3267 28.9664L35.3526 30.7024C35.3526 30.7024 34.5597 35.5424 34.3986 35.5076Z" fill="#367CFF"/>
<path d="M23.6553 24.4688C23.5481 25.7843 22.7878 33.9914 22.6843 35.6118H8.70944C8.62913 34.1504 8.36846 27.9457 8.06393 25.0879C7.77333 22.3608 7.66787 20.8046 8.00264 19.9572C8.59307 18.4625 10.0706 17.9246 11.3433 17.7448C12.1204 17.635 13.2892 17.5562 13.2892 17.5562C13.2892 17.5562 13.3882 19.6461 15.748 19.7624C18.9604 19.9203 18.7459 17.5562 18.7618 17.5562C19.2822 17.5562 22.1149 17.9513 22.8233 18.4332C23.8238 19.1139 24.1194 20.0415 24.1311 20.8938C24.1445 21.8751 23.777 22.9769 23.6553 24.4688Z" fill="#367CFF"/>
<path d="M23.106 31.1749H23.1027C23.0975 31.1745 23.0924 31.173 23.0877 31.1705C23.0831 31.168 23.079 31.1645 23.0756 31.1604C23.0722 31.1562 23.0696 31.1514 23.0681 31.1462C23.0665 31.141 23.0659 31.1355 23.0663 31.1301L23.4291 26.5807C23.4294 26.5752 23.4307 26.5699 23.4331 26.565C23.4354 26.56 23.4387 26.5557 23.4427 26.5521C23.4467 26.5486 23.4514 26.5459 23.4564 26.5443C23.4615 26.5427 23.4668 26.5422 23.472 26.5427C23.4772 26.5432 23.4823 26.5447 23.4869 26.5472C23.4916 26.5497 23.4957 26.5531 23.4991 26.5573C23.5025 26.5615 23.505 26.5663 23.5066 26.5715C23.5082 26.5767 23.5088 26.5822 23.5084 26.5876L23.1456 31.137C23.1447 31.1473 23.1402 31.1569 23.1329 31.164C23.1255 31.171 23.116 31.1749 23.106 31.1749Z" fill="#0C0C0C"/>
<path d="M29.7618 33.9053L32.8281 24.0659C32.8819 23.8929 32.9869 23.7423 33.1278 23.6354C33.2687 23.5286 33.4384 23.471 33.6126 23.471H46.9011C47.0313 23.471 47.1597 23.5032 47.2757 23.5649C47.3917 23.6266 47.4921 23.7162 47.5686 23.8262C47.6451 23.9361 47.6956 24.0635 47.716 24.1978C47.7363 24.332 47.7259 24.4694 47.6856 24.5987L43.8234 34.4385C43.7695 34.6114 43.6646 34.7621 43.5236 34.8689C43.3827 34.9758 43.213 35.0333 43.0388 35.0333H30.5463C30.4161 35.0334 30.2877 35.0012 30.1716 34.9394C30.0555 34.8777 29.9551 34.7881 29.8786 34.6781C29.8021 34.5681 29.7516 34.4407 29.7313 34.3064C29.711 34.1721 29.7214 34.0346 29.7618 33.9053Z" fill="#292A2E"/>
<path d="M29.7618 33.9053L32.8281 24.0659C32.8819 23.8929 32.9869 23.7423 33.1278 23.6354C33.2687 23.5286 33.4384 23.471 33.6126 23.471H46.9011C47.0313 23.471 47.1597 23.5032 47.2757 23.5649C47.3917 23.6266 47.4921 23.7162 47.5686 23.8262C47.6451 23.9361 47.6956 24.0635 47.716 24.1978C47.7363 24.332 47.7259 24.4694 47.6856 24.5987L43.8234 34.4385C43.7695 34.6114 43.6646 34.7621 43.5236 34.8689C43.3827 34.9758 43.213 35.0333 43.0388 35.0333H30.5463C30.4161 35.0334 30.2877 35.0012 30.1716 34.9394C30.0555 34.8777 29.9551 34.7881 29.8786 34.6781C29.8021 34.5681 29.7516 34.4407 29.7313 34.3064C29.711 34.1721 29.7214 34.0346 29.7618 33.9053Z" fill="#292A2E"/>
<path d="M32.263 34.2351H23.9005C23.6921 34.2351 23.5232 34.4114 23.5232 34.6289V34.6391C23.5232 34.8566 23.6921 35.0329 23.9005 35.0329H32.263C32.4713 35.0329 32.6402 34.8566 32.6402 34.6391V34.6289C32.6402 34.4114 32.4713 34.2351 32.263 34.2351Z" fill="#292A2E"/>
<path d="M32.263 34.2351H23.9005C23.6921 34.2351 23.5232 34.4114 23.5232 34.6289V34.6391C23.5232 34.8566 23.6921 35.0329 23.9005 35.0329H32.263C32.4713 35.0329 32.6402 34.8566 32.6402 34.6391V34.6289C32.6402 34.4114 32.4713 34.2351 32.263 34.2351Z" fill="#292A2E"/>
<path d="M38.3256 31.0997C39.0492 31.0997 39.6358 30.4874 39.6358 29.732C39.6358 28.9767 39.0492 28.3643 38.3256 28.3643C37.602 28.3643 37.0154 28.9767 37.0154 29.732C37.0154 30.4874 37.602 31.0997 38.3256 31.0997Z" fill="white"/>
<path d="M29.0626 31.6004L26.9756 30.8368L27.2752 30.8152C27.3718 30.8062 27.4615 30.7593 27.5262 30.6839C27.591 30.6085 27.6258 30.5102 27.6238 30.409C27.621 30.3569 27.6081 30.3058 27.5858 30.259C27.5635 30.2122 27.5323 30.1706 27.4941 30.1368C27.4559 30.103 27.4115 30.0777 27.3637 30.0624C27.3158 30.0471 27.2654 30.0422 27.2157 30.0479L23.5232 30.4575L23.6187 31.6961C23.6485 32.0809 23.7877 32.4475 24.0184 32.7491C24.2491 33.0507 24.5609 33.2735 24.9137 33.389L26.5128 33.9089C26.5953 33.9376 26.6849 33.9357 26.7662 33.9034C26.8476 33.8711 26.9158 33.8104 26.9592 33.7317C26.997 33.6597 27.0117 33.577 27.0013 33.4957C26.9909 33.4144 26.9558 33.3387 26.9013 33.2796C26.9048 33.277 26.9078 33.2736 26.91 33.2698C26.9123 33.2659 26.9138 33.2616 26.9144 33.2571C26.915 33.2527 26.9147 33.2481 26.9135 33.2437C26.9124 33.2394 26.9104 33.2353 26.9077 33.2318L27.2022 33.3282C27.2941 33.3604 27.3943 33.355 27.4826 33.3131C27.5708 33.2711 27.6405 33.1958 27.6775 33.1022C27.7078 33.0174 27.7085 32.9241 27.6793 32.8388C27.6502 32.7535 27.5932 32.6817 27.5183 32.636C27.5218 32.6341 27.5249 32.6315 27.5274 32.6284L27.6486 32.668C27.7312 32.6967 27.8207 32.6948 27.9021 32.6625C27.9834 32.6301 28.0516 32.5695 28.095 32.4907C28.1408 32.4034 28.1524 32.3011 28.1275 32.205C28.1026 32.109 28.043 32.0268 27.9613 31.9756C27.962 31.973 27.9623 31.9704 27.9624 31.9678L28.8316 32.2857C28.8748 32.302 28.9207 32.3093 28.9666 32.307C29.0125 32.3047 29.0575 32.2929 29.099 32.2723C29.1405 32.2517 29.1777 32.2228 29.2084 32.1871C29.2391 32.1514 29.2628 32.1098 29.278 32.0645C29.2932 32.0192 29.2996 31.9712 29.297 31.9234C29.2943 31.8755 29.2825 31.8286 29.2624 31.7855C29.2423 31.7424 29.2142 31.7038 29.1797 31.6721C29.1452 31.6404 29.105 31.6162 29.0615 31.6008L29.0626 31.6004Z" fill="#E98862"/>
<path opacity="0.2" d="M27.9295 32.0029C27.9254 32.0029 27.9214 32.0021 27.9176 32.0007L27.0769 31.6816C27.0683 31.6783 27.0613 31.6716 27.0574 31.6628C27.0535 31.6541 27.0532 31.6442 27.0563 31.6352C27.0595 31.6261 27.066 31.6188 27.0743 31.6148C27.0826 31.6107 27.0922 31.6103 27.1008 31.6136L27.9416 31.9328C27.9492 31.9357 27.9557 31.9413 27.9597 31.9487C27.9638 31.956 27.9653 31.9647 27.9639 31.973C27.9625 31.9814 27.9583 31.989 27.952 31.9945C27.9458 31.9999 27.9379 32.0029 27.9297 32.0029H27.9295Z" fill="#0A0A0A"/>
<path opacity="0.2" d="M27.5042 32.6409C27.5003 32.6409 27.4963 32.6402 27.4926 32.6389L26.83 32.3934C26.8256 32.3919 26.8216 32.3895 26.8181 32.3864C26.8146 32.3832 26.8117 32.3793 26.8097 32.375C26.8077 32.3707 26.8065 32.366 26.8062 32.3612C26.8059 32.3564 26.8066 32.3516 26.8081 32.347C26.8097 32.3425 26.8121 32.3383 26.8152 32.3347C26.8183 32.3312 26.822 32.3283 26.8262 32.3263C26.8304 32.3243 26.8349 32.3231 26.8395 32.323C26.8442 32.3228 26.8488 32.3236 26.8531 32.3253L27.5158 32.5707C27.5235 32.5736 27.5299 32.5792 27.5341 32.5865C27.5382 32.5939 27.5397 32.6025 27.5383 32.6109C27.5369 32.6193 27.5328 32.6269 27.5265 32.6324C27.5203 32.6379 27.5124 32.6409 27.5042 32.6409Z" fill="#0A0A0A"/>
<path opacity="0.2" d="M26.8802 33.2884C26.876 33.2884 26.8718 33.2876 26.8678 33.286L26.5574 33.1625C26.5488 33.159 26.5419 33.1522 26.5382 33.1434C26.5344 33.1347 26.5342 33.1247 26.5374 33.1158C26.5407 33.1068 26.5473 33.0996 26.5557 33.0957C26.5641 33.0918 26.5736 33.0915 26.5822 33.0949L26.8926 33.2185C26.9002 33.2215 26.9065 33.2271 26.9105 33.2345C26.9145 33.2419 26.9159 33.2505 26.9144 33.2588C26.913 33.2672 26.9087 33.2747 26.9025 33.2801C26.8962 33.2855 26.8884 33.2885 26.8803 33.2884H26.8802Z" fill="#0A0A0A"/>
<path d="M25.1576 29.7244L16.4022 29.7183L13.09 21.2839L8.14893 23.4525L12.2813 33.4627L12.3217 33.5624C12.5238 34.049 12.8644 34.4589 13.2972 34.7367C13.73 35.0145 14.2341 35.1467 14.7413 35.1154L25.2898 34.4649L25.1576 29.7244Z" fill="#367CFF"/>
<path d="M14.5963 35.1614C14.1055 35.1605 13.6255 35.0103 13.2151 34.7293C12.8047 34.4483 12.4816 34.0485 12.2853 33.5789L12.2449 33.4792L8.72339 24.95L8.79646 24.9167L12.3583 33.5462C12.5582 34.0242 12.8935 34.4268 13.3191 34.6999C13.7447 34.9731 14.2402 35.1036 14.739 35.074L25.2488 34.4259L25.1186 29.7661L16.3753 29.76L13.8283 23.2748L13.902 23.2434L16.4286 29.6769L25.1959 29.6831L25.3307 34.5041L25.292 34.5065L14.7439 35.1568C14.6946 35.1599 14.6452 35.1614 14.5963 35.1614Z" fill="#0C0C0C"/>
<path d="M4.85804 35.8296L1.50024 70.5057L1.65863 70.5224L5.01642 35.8464L4.85804 35.8296Z" fill="#494949"/>
<path d="M18.7311 35.8296L15.3733 70.5057L15.5317 70.5224L18.8895 35.8463L18.7311 35.8296Z" fill="#494949"/>
<path d="M47.6584 35.8291L47.5 35.8458L50.8555 70.5221L51.0139 70.5054L47.6584 35.8291Z" fill="#494949"/>
<path d="M50.6842 35.1568H2.05185C1.69166 35.1568 1.39966 35.4616 1.39966 35.8376C1.39966 36.2136 1.69166 36.5183 2.05185 36.5183H50.6842C51.0444 36.5183 51.3364 36.2136 51.3364 35.8376C51.3364 35.4616 51.0444 35.1568 50.6842 35.1568Z" fill="#292A2E"/>
<path opacity="0.8" d="M50.6842 35.1568H2.05185C1.69166 35.1568 1.39966 35.4616 1.39966 35.8376C1.39966 36.2136 1.69166 36.5183 2.05185 36.5183H50.6842C51.0444 36.5183 51.3364 36.2136 51.3364 35.8376C51.3364 35.4616 51.0444 35.1568 50.6842 35.1568Z" fill="white"/>
<path d="M50.6845 36.6014H2.05241C1.95567 36.6025 1.8597 36.5835 1.77003 36.5456C1.68037 36.5077 1.59879 36.4516 1.53003 36.3805C1.46127 36.3095 1.40668 36.225 1.36942 36.1318C1.33217 36.0386 1.31299 35.9386 1.31299 35.8376C1.31299 35.7366 1.33217 35.6366 1.36942 35.5434C1.40668 35.4502 1.46127 35.3656 1.53003 35.2946C1.59879 35.2236 1.68037 35.1675 1.77003 35.1296C1.8597 35.0916 1.95567 35.0727 2.05241 35.0737H50.6845C50.7812 35.0727 50.8772 35.0916 50.9669 35.1296C51.0565 35.1675 51.1381 35.2236 51.2069 35.2946C51.2756 35.3656 51.3302 35.4502 51.3675 35.5434C51.4047 35.6366 51.4239 35.7366 51.4239 35.8376C51.4239 35.9386 51.4047 36.0386 51.3675 36.1318C51.3302 36.225 51.2756 36.3095 51.2069 36.3805C51.1381 36.4516 51.0565 36.5077 50.9669 36.5456C50.8772 36.5835 50.7812 36.6025 50.6845 36.6014ZM2.05241 35.2399C1.97665 35.239 1.90147 35.2537 1.83122 35.2834C1.76097 35.313 1.69705 35.3568 1.64316 35.4124C1.58928 35.468 1.54649 35.5342 1.51729 35.6072C1.48809 35.6802 1.47306 35.7585 1.47306 35.8376C1.47306 35.9167 1.48809 35.995 1.51729 36.0679C1.54649 36.1409 1.58928 36.2071 1.64316 36.2627C1.69705 36.3183 1.76097 36.3622 1.83122 36.3918C1.90147 36.4214 1.97665 36.4362 2.05241 36.4353H50.6845C50.7603 36.4362 50.8354 36.4214 50.9057 36.3918C50.9759 36.3622 51.0399 36.3183 51.0938 36.2627C51.1476 36.2071 51.1904 36.1409 51.2196 36.0679C51.2488 35.995 51.2639 35.9167 51.2639 35.8376C51.2639 35.7585 51.2488 35.6802 51.2196 35.6072C51.1904 35.5342 51.1476 35.468 51.0938 35.4124C51.0399 35.3568 50.9759 35.313 50.9057 35.2834C50.8354 35.2537 50.7603 35.239 50.6845 35.2399H2.05241Z" fill="#292A2E"/>
<path d="M50.6843 35.1568H16.4554C16.0952 35.1568 15.8032 35.4616 15.8032 35.8376C15.8032 36.2136 16.0952 36.5183 16.4554 36.5183H50.6843C51.0445 36.5183 51.3365 36.2136 51.3365 35.8376C51.3365 35.4616 51.0445 35.1568 50.6843 35.1568Z" fill="white"/>
<path d="M50.6843 36.6014H16.4554C16.2626 36.5993 16.0784 36.5179 15.9428 36.3749C15.8073 36.2319 15.7312 36.0388 15.7312 35.8376C15.7312 35.6364 15.8073 35.4433 15.9428 35.3002C16.0784 35.1572 16.2626 35.0758 16.4554 35.0737H50.6843C50.781 35.0727 50.877 35.0916 50.9667 35.1296C51.0564 35.1675 51.1379 35.2236 51.2067 35.2946C51.2755 35.3656 51.33 35.4502 51.3673 35.5434C51.4046 35.6366 51.4237 35.7366 51.4237 35.8376C51.4237 35.9386 51.4046 36.0386 51.3673 36.1318C51.33 36.225 51.2755 36.3095 51.2067 36.3805C51.1379 36.4516 51.0564 36.5077 50.9667 36.5456C50.877 36.5835 50.781 36.6025 50.6843 36.6014ZM16.4554 35.2399C16.3047 35.2417 16.1608 35.3055 16.0548 35.4174C15.9489 35.5293 15.8895 35.6803 15.8895 35.8376C15.8895 35.9949 15.9489 36.1458 16.0548 36.2577C16.1608 36.3696 16.3047 36.4334 16.4554 36.4353H50.6843C50.7601 36.4362 50.8353 36.4214 50.9055 36.3918C50.9758 36.3622 51.0397 36.3183 51.0936 36.2627C51.1474 36.2071 51.1902 36.1409 51.2194 36.0679C51.2486 35.995 51.2637 35.9167 51.2637 35.8376C51.2637 35.7585 51.2486 35.6802 51.2194 35.6072C51.1902 35.5342 51.1474 35.468 51.0936 35.4124C51.0397 35.3568 50.9758 35.313 50.9055 35.2834C50.8353 35.2537 50.7601 35.239 50.6843 35.2399H16.4554Z" fill="#292A2E"/>
<path d="M51.9963 59.4676C51.9858 59.4677 51.9755 59.4655 51.9658 59.4614C51.9562 59.4572 51.9474 59.451 51.94 59.4433C51.8279 59.3263 51.645 57.1785 51.1527 50.7837C50.9512 48.1671 50.7609 45.6956 50.622 44.1937C50.6121 44.0864 50.5723 44.0739 50.5592 44.0699C50.3691 44.01 49.791 44.4858 49.4682 44.9026C49.4549 44.9197 49.4357 44.9307 49.4147 44.933C49.3937 44.9353 49.3727 44.9288 49.3562 44.9149C49.3398 44.9011 49.3293 44.881 49.3271 44.8591C49.3249 44.8371 49.3311 44.8152 49.3444 44.798C49.5578 44.5225 50.2535 43.8003 50.605 43.9107C50.6758 43.9329 50.7642 43.9973 50.7805 44.1777C50.9195 45.681 51.1098 48.1532 51.3114 50.7704C51.6106 54.6564 51.9495 59.0589 52.0609 59.3361C52.0695 59.3485 52.0745 59.3632 52.0756 59.3784C52.0767 59.3936 52.0738 59.4089 52.0671 59.4225C52.0604 59.4361 52.0503 59.4475 52.0378 59.4554C52.0253 59.4634 52.0109 59.4676 51.9963 59.4676Z" fill="#494949"/>
<path d="M50.4174 46.9498C51.7381 45.8446 52.1759 44.1245 51.3951 43.1077C50.6144 42.0909 48.9107 42.1626 47.59 43.2677C46.2692 44.3729 45.8314 46.0931 46.6122 47.1098C47.393 48.1266 49.0966 48.055 50.4174 46.9498Z" fill="#0CBC8B"/>
<path opacity="0.2" d="M50.4174 46.9498C51.7381 45.8446 52.1759 44.1245 51.3951 43.1077C50.6144 42.0909 48.9107 42.1626 47.59 43.2677C46.2692 44.3729 45.8314 46.0931 46.6122 47.1098C47.393 48.1266 49.0966 48.055 50.4174 46.9498Z" fill="white"/>
<path d="M46.9824 47.3684C46.9749 47.3684 46.9675 47.3662 46.9611 47.362C46.9547 47.3577 46.9496 47.3517 46.9464 47.3446C46.9432 47.3374 46.942 47.3295 46.9429 47.3217C46.9439 47.3138 46.947 47.3065 46.9518 47.3004L50.7159 42.562C50.7226 42.5535 50.7323 42.5482 50.7428 42.5472C50.7533 42.5461 50.7638 42.5495 50.7719 42.5566C50.7801 42.5636 50.7852 42.5737 50.7862 42.5847C50.7871 42.5957 50.7839 42.6066 50.7772 42.6151L47.0131 47.3535C47.0093 47.3582 47.0046 47.3619 46.9993 47.3645C46.994 47.3671 46.9883 47.3684 46.9824 47.3684Z" fill="white"/>
<path d="M52.8171 58.4519C52.8044 58.4519 52.7919 58.4487 52.7806 58.4426C52.7693 58.4366 52.7596 58.4277 52.7522 58.4169C52.7449 58.4061 52.7401 58.3936 52.7383 58.3805C52.7366 58.3674 52.7378 58.354 52.742 58.3415L54.156 54.0969C54.1976 53.9722 54.2685 53.8604 54.3623 53.7717C54.456 53.683 54.5696 53.6203 54.6926 53.5894C54.8156 53.5584 54.944 53.5601 55.0662 53.5944C55.1884 53.6286 55.3004 53.6943 55.3919 53.7855L56.1395 54.5309C56.1547 54.5461 56.1636 54.567 56.1641 54.5891C56.1646 54.6111 56.1566 54.6324 56.142 54.6484C56.1275 54.6643 56.1074 54.6736 56.0863 54.6741C56.0652 54.6746 56.0447 54.6663 56.0295 54.6511L55.282 53.9056C55.2097 53.8337 55.1213 53.7818 55.0248 53.7547C54.9284 53.7277 54.827 53.7263 54.7299 53.7508C54.6328 53.7753 54.5431 53.8248 54.4691 53.8948C54.3951 53.9648 54.3391 54.053 54.3062 54.1515L52.8924 58.3962C52.887 58.4125 52.8768 58.4266 52.8633 58.4366C52.8498 58.4466 52.8337 58.4519 52.8171 58.4519Z" fill="#494949"/>
<path d="M58.2279 56.8809C59.2067 56.0721 59.1485 54.2933 58.098 52.9078C57.0474 51.5223 55.4022 51.0548 54.4234 51.8636C53.4446 52.6724 53.5028 54.4512 54.5533 55.8366C55.6039 57.2221 57.2491 57.6897 58.2279 56.8809Z" fill="#0CBC8B"/>
<path d="M51.3543 59.1969C51.3365 59.1969 51.3191 59.1906 51.3051 59.1791C51.291 59.1675 51.2811 59.1514 51.277 59.1332L48.9038 48.7768C48.8876 48.7063 48.853 48.6417 48.8039 48.5903C48.7548 48.5389 48.6931 48.5026 48.6256 48.4855C48.558 48.4683 48.4872 48.4709 48.421 48.493C48.3548 48.5151 48.2957 48.5558 48.2502 48.6107L47.5187 49.4931C47.5119 49.5014 47.5036 49.5083 47.4942 49.5133C47.4848 49.5183 47.4746 49.5213 47.4641 49.5221C47.4536 49.523 47.4431 49.5216 47.4331 49.5182C47.4231 49.5148 47.4139 49.5093 47.4059 49.5021C47.398 49.4949 47.3915 49.4861 47.3868 49.4763C47.3821 49.4665 47.3793 49.4558 47.3786 49.4448C47.3779 49.4339 47.3793 49.4229 47.3827 49.4125C47.3861 49.4021 47.3914 49.3925 47.3983 49.3843L48.1297 48.502C48.1944 48.424 48.2785 48.3661 48.3726 48.3347C48.4668 48.3033 48.5674 48.2996 48.6635 48.3241C48.7595 48.3486 48.8472 48.4002 48.9169 48.4733C48.9866 48.5465 49.0357 48.6383 49.0587 48.7386L51.4314 59.0949C51.4362 59.1163 51.4327 59.1388 51.4216 59.1574C51.4106 59.1761 51.3929 59.1895 51.3725 59.1946C51.3665 59.1961 51.3605 59.1969 51.3543 59.1969Z" fill="#494949"/>
<path d="M50.4787 51.7937C50.7672 50.0526 50.0038 48.4611 48.7737 48.239C47.5437 48.017 46.3127 49.2485 46.0242 50.9896C45.7358 52.7308 46.4991 54.3223 47.7292 54.5443C48.9593 54.7664 50.1903 53.5349 50.4787 51.7937Z" fill="#0CBC8B"/>
<path d="M51.9965 59.4676C51.9932 59.4677 51.9899 59.4675 51.9867 59.4671C51.9763 59.4657 51.9663 59.4623 51.9572 59.4569C51.9481 59.4515 51.9401 59.4443 51.9336 59.4357C51.9272 59.4271 51.9224 59.4173 51.9196 59.4068C51.9168 59.3962 51.9161 59.3853 51.9173 59.3744L53.4325 46.5327C53.449 46.3929 53.5039 46.2609 53.5905 46.1528C53.6771 46.0447 53.7918 45.965 53.9208 45.9233C54.0498 45.8815 54.1875 45.8796 54.3175 45.9177C54.4475 45.9557 54.5643 46.0322 54.6536 46.1378L56.3855 48.1853C56.3994 48.2019 56.4065 48.2235 56.4052 48.2455C56.4039 48.2675 56.3943 48.2881 56.3784 48.3027C56.3626 48.3173 56.3419 48.3247 56.3208 48.3233C56.2997 48.3219 56.28 48.3119 56.2661 48.2953L54.5343 46.2478C54.4652 46.1662 54.375 46.1071 54.2745 46.0776C54.174 46.0482 54.0675 46.0497 53.9679 46.0819C53.8682 46.1142 53.7795 46.1758 53.7126 46.2594C53.6456 46.3429 53.6033 46.4449 53.5905 46.553L52.0754 59.3947C52.0731 59.4148 52.0637 59.4333 52.0492 59.4468C52.0346 59.4602 52.0159 59.4676 51.9965 59.4676Z" fill="#494949"/>
<path d="M58.1614 49.3232C58.7656 48.1829 58.0547 46.5652 56.5735 45.7099C55.0923 44.8546 53.4017 45.0857 52.7974 46.226C52.1932 47.3663 52.9041 48.984 54.3853 49.8393C55.8666 50.6946 57.5572 50.4635 58.1614 49.3232Z" fill="#0CBC8B"/>
<path opacity="0.2" d="M58.2279 56.8809C59.2067 56.0721 59.1485 54.2933 58.098 52.9078C57.0474 51.5223 55.4022 51.0548 54.4234 51.8636C53.4446 52.6724 53.5028 54.4512 54.5533 55.8366C55.6039 57.2221 57.2491 57.6897 58.2279 56.8809Z" fill="white"/>
<path opacity="0.5" d="M50.4787 51.7937C50.7672 50.0526 50.0038 48.4611 48.7737 48.239C47.5437 48.017 46.3127 49.2485 46.0242 50.9896C45.7358 52.7308 46.4991 54.3223 47.7292 54.5443C48.9593 54.7664 50.1903 53.5349 50.4787 51.7937Z" fill="white"/>
<path opacity="0.5" d="M58.1614 49.3232C58.7656 48.1829 58.0547 46.5652 56.5735 45.7099C55.0923 44.8546 53.4017 45.0857 52.7974 46.226C52.1932 47.3663 52.9041 48.984 54.3853 49.8393C55.8666 50.6946 57.5572 50.4635 58.1614 49.3232Z" fill="white"/>
<path d="M53.934 70.3638H50.0581L49.4158 57.4186H54.5763L53.934 70.3638Z" fill="#292A2E"/>
<path opacity="0.3" d="M53.934 70.3638H50.0581L49.4158 57.4186H54.5763L53.934 70.3638Z" fill="white"/>
<path d="M58.2277 56.9219C58.2217 56.9218 58.2158 56.9204 58.2104 56.9177C58.205 56.915 58.2002 56.911 58.1965 56.9061L54.3919 51.8888C54.3854 51.8801 54.3823 51.8691 54.3836 51.8582C54.3848 51.8472 54.3901 51.8372 54.3984 51.8304C54.4067 51.8236 54.4172 51.8204 54.4277 51.8217C54.4382 51.823 54.4478 51.8285 54.4543 51.8372L58.2589 56.8545C58.2636 56.8606 58.2665 56.868 58.2673 56.8757C58.2681 56.8835 58.2668 56.8914 58.2636 56.8984C58.2603 56.9054 58.2552 56.9114 58.2489 56.9155C58.2425 56.9197 58.2352 56.9219 58.2277 56.9219Z" fill="white"/>
<path d="M57.9085 49.7252C57.9001 49.7251 57.8918 49.7222 57.885 49.7169L53.0166 46.0061C53.0081 45.9996 53.0023 45.9898 53.0007 45.9789C52.9991 45.968 53.0017 45.9569 53.0079 45.948C53.0141 45.9391 53.0235 45.9331 53.0339 45.9314C53.0444 45.9297 53.055 45.9324 53.0635 45.9389L57.932 49.6498C57.9387 49.6551 57.9436 49.6624 57.9461 49.6707C57.9486 49.679 57.9485 49.6879 57.9459 49.6962C57.9432 49.7045 57.9382 49.7117 57.9314 49.7168C57.9246 49.7219 57.9165 49.7246 57.9081 49.7246L57.9085 49.7252Z" fill="white"/>
<path d="M47.5315 54.4902C47.528 54.4901 47.5245 54.4896 47.5212 54.4887C47.511 54.4858 47.5023 54.4789 47.4971 54.4694C47.4918 54.4598 47.4903 54.4485 47.493 54.4379L49.0428 48.3764C49.0458 48.3661 49.0524 48.3573 49.0615 48.352C49.0705 48.3467 49.0812 48.3453 49.0912 48.3481C49.1012 48.3509 49.1098 48.3576 49.1151 48.3669C49.1204 48.3762 49.1221 48.3873 49.1197 48.3978L47.5699 54.4592C47.5677 54.4681 47.5627 54.4759 47.5557 54.4815C47.5488 54.4871 47.5402 54.4901 47.5315 54.4902Z" fill="white"/>
<path d="M55.8053 70.4805H0.055716C0.0409392 70.4805 0.0267676 70.4744 0.0163188 70.4635C0.00587006 70.4526 0 70.4378 0 70.4223C0 70.4069 0.00587006 70.3921 0.0163188 70.3812C0.0267676 70.3703 0.0409392 70.3642 0.055716 70.3642H55.8051C55.8199 70.3642 55.8341 70.3703 55.8445 70.3812C55.855 70.3921 55.8609 70.4069 55.8609 70.4223C55.8609 70.4378 55.855 70.4526 55.8445 70.4635C55.8341 70.4744 55.8199 70.4805 55.8051 70.4805H55.8053Z" fill="#292A2E"/>
<g opacity="0.65">
<path d="M55.8053 70.4805H0.055716C0.0409392 70.4805 0.0267676 70.4744 0.0163188 70.4635C0.00587006 70.4526 0 70.4378 0 70.4223C0 70.4069 0.00587006 70.3921 0.0163188 70.3812C0.0267676 70.3703 0.0409392 70.3642 0.055716 70.3642H55.8051C55.8199 70.3642 55.8341 70.3703 55.8445 70.3812C55.855 70.3921 55.8609 70.4069 55.8609 70.4223C55.8609 70.4378 55.855 70.4526 55.8445 70.4635C55.8341 70.4744 55.8199 70.4805 55.8051 70.4805H55.8053Z" fill="#292A2E"/>
</g>
</svg>
